<?xml version="1.0" encoding="UTF-8" standalone="no"?><!DOCTYPE svg PUBLIC "-//W3C//DTD SVG 1.1//EN" "http://www.w3.org/Graphics/SVG/1.1/DTD/svg11.dtd"><svg width="100%" height="100%" viewBox="0 0 512 400" version="1.1" xmlns="http://www.w3.org/2000/svg" xmlns:xlink="http://www.w3.org/1999/xlink" xml:space="preserve" xmlns:serif="http://www.serif.com/" style="fill-rule:evenodd;clip-rule:evenodd;stroke-linecap:round;stroke-linejoin:round;stroke-miterlimit:1.5;"><path id="Saudi-Arabia" d="M58.128,213.744c-0.606,0.444 -1.031,1.015 -1.521,1.601c-3.554,4.241 -5.182,-0.565 -6.967,0.743c-1.142,0.836 1.513,5.097 1.873,5.888c0.225,0.495 0.059,1.367 0.059,1.887c0,0.938 0.073,1.565 0.585,2.4c0.74,1.205 2.046,1.91 2.81,3.03c1.125,1.648 2.175,3.125 3.161,4.859c0.998,1.754 3.072,3.038 4.157,4.802c0.486,0.793 0.249,1.84 0.878,2.63c0.937,1.176 3.443,3.524 4.039,4.688c0.553,1.079 -0.136,3.032 0.292,4.287c0.314,0.918 1.422,1.22 1.815,2.115c0.701,1.599 1.435,4.821 2.985,5.831c0.965,0.628 2.866,0.316 3.513,1.201c2.165,2.961 0.931,2.783 1.639,4.859c0.629,1.842 3.618,4.479 5.152,5.602c0.932,0.684 2.157,-1.764 2.516,-2.115c1.05,-1.025 3.471,-0.602 4.683,-0.172c0.622,0.221 1.035,0.668 1.581,0.973c1.392,0.776 3.775,-0.018 5.327,0.285c0.583,0.114 0.787,0.885 1.404,1.086c0.406,0.132 0.937,-0.115 1.347,0c0.133,0.037 0.5,0.342 0.644,0.286c0.764,-0.298 0.811,-2.695 2.4,-3.316c1.16,-0.452 2.515,-0.538 3.63,-1.143c1.628,-0.884 2.941,-2.094 4.624,-2.915c0.312,-0.153 3.569,-1.372 3.981,-1.487c0.613,-0.171 1.389,0.121 1.99,-0.114c0.814,-0.318 1.348,-1.054 2.108,-1.373c1.422,-0.595 1.77,1.225 3.394,0.63c0.439,-0.161 0.54,-0.527 0.82,-0.8c0.505,-0.495 1.657,0.043 2.225,-0.401c0.519,-0.405 1.084,-0.959 1.697,-1.258c0.341,-0.166 0.818,0.04 1.171,-0.114c1.657,-0.719 4.303,-1.852 4.859,-3.658c0.174,-0.569 -0.011,-1.214 0.234,-1.773c0.269,-0.615 0.623,-1.301 0.702,-2.001c0.346,-3.045 -1.214,-2.22 -2.985,-3.372c-2.249,-1.464 -4.579,-0.673 -7.084,-1.373c-0.244,-0.067 -4.955,-2.654 -5.444,-2.972c-2.898,-1.887 -2.247,-3.95 -3.57,-5.888c-0.731,-1.071 -6.409,-2.867 -6.439,-2.973c-0.125,-0.426 0.26,-1.376 0,-1.715c-0.122,-0.158 -0.727,-0.148 -0.82,-0.286c-0.56,-0.82 0.701,-3.431 0,-4.116c-0.376,-0.366 -0.903,-0.335 -1.17,-0.857c-0.291,-0.567 -0.029,-1.569 -0.293,-2.173c-0.475,-1.079 -1.731,-1.968 -2.459,-2.858c-0.651,-0.794 -0.611,-1.831 -1.171,-2.515c-0.305,-0.372 -1.52,-0.286 -1.931,-0.286c-2.843,0 -5.326,-2.944 -7.903,-2.629c-0.925,0.113 -3.953,1.016 -4.742,0.4c-0.767,-0.599 -2.467,-2.01 -3.22,-2.344c-0.507,-0.226 -1.38,-0.333 -1.814,-0.686c-0.257,-0.208 -0.185,-0.592 -0.468,-0.8c-1.329,-0.973 -2.978,-1.56 -4.274,-2.572c-1.362,-1.065 -2.715,-2.408 -4.097,-3.488c-1.167,-0.912 -3.148,-1.222 -4.508,-1.887c-0.552,-0.269 -4.872,-2.078 -5.327,-1.485c-0.827,1.077 -2.606,1.593 -3.629,3.258c-0.222,0.362 -0.139,0.972 -0.293,1.372c-0.5,1.302 -1.242,2.139 -1.873,3.373c-0.372,0.726 -0.277,1.287 -0.644,1.886" style="fill:#17583e;fill-rule:nonzero;"/><path id="Yemen" d="M124.437,271.213c-0.524,-1.261 -1.805,-2.209 -2.385,-3.622c-0.517,-1.263 -1.173,-4.54 -2.384,-5.25c-1.792,-1.049 -2.133,1.181 -3.597,1.59c-0.917,0.256 -1.787,-0.337 -2.725,-0.222c-0.554,0.068 -8.505,4.158 -9.276,4.695c-1.75,1.221 -1.755,3.168 -3.52,3.512c-1.871,0.366 -4.537,-1.178 -6.436,-1.589c-1.031,-0.224 -2.824,0.414 -3.748,-0.038c-3.245,-1.584 -2.587,-0.456 -4.656,0.555c-1.308,0.638 -2.097,1.636 -2.348,3.105c-0.432,2.532 1.628,2.34 1.628,3.845c0,1.618 -0.271,3.433 -0.038,5.028c0.084,0.569 1.2,1.077 1.515,1.59c0.77,1.255 0.391,3.37 2.498,4.4c1.493,0.729 1.855,-0.55 3.105,-0.703c1.332,-0.162 2.924,0.605 4.164,0.258c0.543,-0.15 0.686,-0.889 1.136,-1.182c1.075,-0.7 2.554,-1.478 3.785,-1.959c1.853,-0.724 6.574,-2.095 7.988,-2.884c0.666,-0.372 0.675,-1.217 1.439,-1.59c1.725,-0.842 3.776,-1.012 5.489,-1.849c0.601,-0.293 0.807,-0.916 1.325,-1.22c0.469,-0.274 1.007,-0.06 1.477,-0.443c1.786,-1.453 2.031,-3.546 2.271,-3.734c0.876,-0.684 2.552,-1.317 3.142,-2.181" style="fill:#4b96c0;fill-rule:nonzero;"/><path id="Omen" d="M126.722,269.861c-1.834,-0.243 -5.247,-6.087 -4.136,-7.714c1.018,-1.491 2.95,-0.597 4.197,-1.205c0.932,-0.455 1.406,-1.089 2.469,-1.296c1.57,-0.307 2.434,-1.608 3.116,-2.773c0.351,-0.599 1.207,-0.436 1.635,-0.994c0.473,-0.616 0.477,-1.933 0.586,-2.681c0.307,-2.095 2.188,-0.589 0,-5.575c-0.427,-0.973 -2.938,-1.258 -2.961,-1.416c-0.138,-0.935 1.076,-1.383 1.542,-2.019c0.244,-0.333 0.198,-0.856 0.371,-1.235c0.858,-1.886 2.078,-5 4.658,-4.58c1.162,0.189 2.249,0.652 3.209,1.355c0.696,0.51 1.022,1.45 1.635,2.05c1.863,1.819 7.352,4.067 6.542,7.231c-0.52,2.034 -3.573,2.591 -4.628,4.309c-1.204,1.96 -1.796,4.21 -3.024,6.147c-0.977,1.541 -3.129,2.688 -3.795,3.827c-1.546,2.641 -2.797,3.621 -5.462,5.182c-0.51,0.299 -1.046,0.758 -1.665,0.844c-1.109,0.155 -2.274,0.004 -3.364,0.181c-0.481,0.079 -0.63,0.382 -1.203,0.331" style="fill:#f5e158;fill-rule:nonzero;"/><path id="United-Arab-Emirates" d="M130.412,244.371c-0.118,-0.822 0.58,-1.238 0.926,-1.858c0.374,-0.668 0.325,-1.495 0.751,-2.15c2.004,-3.075 4.431,-2.493 3.129,-6.307c-0.483,-1.418 -2.547,-1.888 -3.63,-0.832c-1.306,1.277 -2.439,3.598 -4.155,4.352c-0.732,0.321 -1.565,0.331 -2.277,0.733c-0.499,0.282 -0.911,0.919 -1.502,1.002c-3.25,0.454 -5.285,-1.344 -6.358,-1.344c-0.254,0 -0.547,-0.395 -0.726,-0.22c-0.293,0.286 1.519,2.811 2.102,3.153c4.695,2.751 2.933,3.612 9.638,3.202c0.75,-0.045 1.323,0.69 1.877,0.269" style="fill:#c5d83b;fill-rule:nonzero;"/><path id="Qatar1" d="M116.597,236.463c2.405,-0.311 0.799,-4.52 -0.717,-4.718c-0.799,-0.104 -1.183,0.298 -1.325,1.042c-0.405,2.105 -1.918,0.755 1.416,3.809" style="fill:#4b96c0;fill-rule:nonzero;"/><path id="Bahrain1" d="M111.629,231.388c0.752,-1.456 -1.874,-1.552 -1.874,-2.693c0,-0.307 5.151,-1.792 2.773,1.563c-0.245,0.345 -0.432,0.67 -0.716,0.981" style="fill:#f5e158;fill-rule:nonzero;"/><path id="Kuwait1" d="M100.857,217.525c-1.461,0.297 -2.079,-0.482 -3.216,-1.157c-0.802,-0.478 -2.239,-0.429 -2.816,-1.216c-0.488,-0.668 0.389,-1.573 0.963,-1.853c1.658,-0.809 2.155,0.324 3.587,0.579c0.369,0.065 1.388,-0.139 1.69,0.058c0.032,0.021 -0.736,0.814 -0.756,1.027c-0.076,0.82 0.843,1.265 0.667,2.215" style="fill:#8caa5c;fill-rule:nonzero;"/><path id="Israel1" d="M48.684,214.466c2.878,-1.444 -1.488,-3.39 -1.488,-5.115c0,-2.872 1.203,-3.575 1.369,-4.708c0.096,-0.662 -0.262,-1.695 0.089,-2.266c0.307,-0.5 0.472,-4.733 -0.685,-3.604c-1.113,1.088 0.186,3.806 -0.118,5.144c-0.186,0.814 -1.174,1.377 -1.429,2.208c-0.496,1.613 -0.455,8.341 2.053,8.341" style="fill:#8caa5c;fill-rule:nonzero;"/><path id="Lebanon1" d="M50.289,198.652c-0.386,-1.155 0.71,-1.734 1,-2.583c0.118,-0.347 -0.2,-0.796 -0.027,-1.092c0.209,-0.355 0.743,-0.53 0.816,-0.964c0.12,-0.7 -1.507,-2.385 -2.249,-2.171c-0.733,0.21 -0.413,1.624 -0.5,2.132c-0.325,1.904 -1.804,3.221 0.802,4.433" style="fill:#c5d83b;fill-rule:nonzero;"/><path id="Jordan" d="M52.565,213.963c1.515,0.36 1.954,-1.414 2.874,-1.828c0.346,-0.156 0.852,0.031 1.153,-0.233c0.399,-0.351 0.435,-1.417 0.479,-1.892c0.206,-2.211 1.794,-4.652 3.548,-6.079c0.569,-0.464 2.644,-1.128 2.721,-1.956c0.038,-0.413 -0.492,-0.733 -0.675,-1.106c-0.181,-0.368 -0.255,-1.141 -0.675,-1.36c-1.473,-0.767 -2.869,0.884 -4.07,1.446c-1.195,0.558 -2.556,1.588 -3.853,1.87c-0.422,0.092 -1.856,-0.37 -2.111,-0.085c-0.616,0.688 -0.033,2.805 -0.174,3.678c-0.227,1.4 -3.04,7.911 0.827,7.439" style="fill:#f5e158;fill-rule:nonzero;"/><path id="Syria" d="M50.845,200.575c1.136,-0.458 1.865,0.607 3.013,0.397c0.529,-0.097 0.783,-0.73 1.316,-0.841c1.162,-0.243 2.166,-0.223 3.204,-0.911c0.576,-0.381 0.866,-1.067 1.388,-1.424c0.449,-0.307 1.121,-0.085 1.578,-0.398c1.179,-0.805 1.728,-2.319 3.037,-3.129c0.833,-0.515 3.881,-0.831 4.329,-1.705c0.541,-1.057 -0.24,-2.841 -0.071,-3.994c0.184,-1.262 1.047,-2.278 1.124,-3.62c0.035,-0.63 1.471,-2.84 1.267,-3.152c-0.635,-0.976 -3.078,0.191 -3.803,0.396c-1.103,0.313 -3.559,1.334 -4.472,1.285c-0.765,-0.041 -1.236,-0.608 -1.937,-0.771c-1.353,-0.315 -6.293,0.26 -7.557,0.981c-0.494,0.282 -0.738,1.02 -1.125,1.425c-1.022,1.069 -3.353,1.95 -2.319,3.97c1.14,2.227 3.946,0.035 3.946,5.162c0,0.446 -1.317,3.666 -1.627,4.227c-0.063,0.115 -1.931,1.801 -1.649,1.939c0.076,0.037 0.472,-0.07 0.597,-0.07" style="fill:#4b96c0;fill-rule:nonzero;"/><path id="Iraq" d="M92.864,214.319c-0.329,-6.123 7.865,-1.378 8.475,-2.093c0.324,-0.379 -1.124,-1.632 -1.373,-1.964c-1.344,-1.789 -2.75,-5.929 -3.585,-6.608c-0.529,-0.43 -1.208,-0.276 -1.741,-0.654c-0.083,-0.058 -3.047,-2.738 -3.082,-2.781c-1.056,-1.237 -1.501,-2.667 -2.446,-3.958c-0.569,-0.779 -1.563,-1.205 -1.976,-2.094c-0.178,-0.381 -0.283,-0.83 -0.336,-1.244c-0.245,-1.916 1.197,-4.544 1.106,-5.038c-0.183,-0.984 -4.68,-4.243 -5.628,-6.281c-0.086,-0.183 -0.194,-0.319 -0.402,-0.392c-0.825,-0.294 -1.921,0.115 -2.781,-0.034c-1.187,-0.204 -3.988,-1.863 -5.126,-0.752c-0.457,0.446 0.164,1.527 -0.133,2.061c-0.372,0.665 -1.205,0.933 -1.508,1.701c-0.401,1.019 -0.092,2.033 -0.234,3.075c-0.132,0.964 -1.052,1.565 -1.441,2.389c-0.482,1.02 -0.134,2.257 -0.67,3.304c-1.092,2.131 -6.94,2.942 -6.6,5.595c0.055,0.421 0.468,0.486 0.637,0.817c0.18,0.352 -0.081,0.852 0.067,1.211c0.89,2.173 2.313,2.126 4.255,2.126c1.439,0 1.718,0.883 3.048,1.44c4.283,1.792 8.126,4.811 11.726,7.622c0.735,0.575 5.207,3.792 5.895,3.926c2.322,0.454 3.853,0.747 3.853,-1.831" style="fill:#c5d83b;fill-rule:nonzero;"/><path id="Iran" d="M156.417,232.96c0.174,-0.461 0.501,-0.858 0.501,-1.36c0,-0.786 -1.866,-1.603 0.835,-4.242c0.417,-0.406 3.047,-1.923 2.395,-2.773c-0.325,-0.422 -0.992,-0.127 -1.337,-0.38c-0.264,-0.194 -0.17,-1.308 -0.501,-1.632c-1.833,-1.789 -4.482,-3.581 -5.791,-5.818c-0.282,-0.481 0.141,-1.2 -0.112,-1.632c-0.215,-0.367 -0.505,-0.608 -0.668,-1.033c-1.201,-3.127 1.956,-5.425 1.671,-5.982c-0.543,-1.06 -2.659,-1.001 -3.954,-2.446c-1.438,-1.605 -1.184,-3.929 -1.614,-5.819c-0.349,-1.533 -1.587,-2.529 -1.783,-4.241c-0.078,-0.697 -0.334,-2.467 -0.055,-3.1c0.347,-0.792 1.323,-1.28 1.726,-2.067c1.052,-2.054 -0.378,-5.928 -2.116,-7.287c-0.429,-0.334 -4.336,-1.437 -5.29,-1.903c-1.802,-0.88 -3.421,-1.929 -5.345,-2.556c-0.803,-0.261 -1.876,0.127 -2.618,-0.162c-1.193,-0.467 -3.398,-2.369 -4.844,-1.741c-0.481,0.209 -0.842,0.846 -1.337,1.088c-0.632,0.309 -1.239,0.167 -1.893,0.326c-0.03,0.008 -4.902,2.503 -5.123,2.665c-0.585,0.428 -0.308,0.94 -0.724,1.413c-1.61,1.835 -6.065,2.901 -8.52,2.502c-0.905,-0.148 -2.03,-1.249 -2.728,-1.794c-1.015,-0.793 -2.653,-0.774 -3.675,-1.523c-0.246,-0.18 -0.787,-1.047 -0.891,-1.088c-0.265,-0.103 -0.664,0.056 -0.947,0c-1.537,-0.3 -2.88,-1.538 -3.786,-2.718c-0.167,-0.218 0.053,-0.549 -0.056,-0.762c-0.185,-0.362 -0.946,-0.379 -1.17,-0.816c-0.495,-0.97 -1.261,-3.244 -2.06,-4.024c-0.399,-0.389 -1.995,0.39 -2.394,0c-0.299,-0.292 -0.013,-0.675 -0.613,-0.87c-0.137,-0.045 -0.833,0.78 -1.002,0.925c-0.88,0.752 -1.691,0.912 -2.729,1.25c-0.89,0.291 -1.624,0.263 -2.505,0.435c-1.214,0.237 -0.582,0.925 -3.397,0.925c-0.288,0 -0.702,0.002 -0.835,0.326c-0.239,0.582 0.569,1.199 0.668,1.686c0.142,0.696 -0.021,1.438 0.279,2.12c1.037,2.363 5.262,5.693 6.904,7.831c1.618,2.106 -0.857,4.177 -0.167,6.2c0.324,0.949 1.092,1.376 1.56,2.174c0.393,0.674 0.403,1.474 0.834,2.175c0.349,0.568 0.749,1.282 1.17,1.795c0.177,0.216 1.371,0.421 1.726,0.653c0.517,0.336 0.652,1.183 1.225,1.631c0.817,0.638 2.307,0.619 2.896,1.577c0.394,0.643 -0.188,1.653 0.167,2.23c1.272,2.07 2.541,4.715 4.566,6.199c0.611,0.447 1.501,-0.435 2.061,-0.544c1.885,-0.368 2.345,1.535 3.953,1.849c0.363,0.071 1.347,-0.186 1.615,0.163c1.163,1.514 1.712,3.468 2.506,5.275c0.238,0.543 0.794,0.756 1.057,1.142c0.279,0.409 -0.187,1.115 0.167,1.577c2.153,2.803 4.904,2.342 6.516,3.915c0.464,0.454 0.689,1.249 1.391,1.523c0.88,0.343 2.129,-0.076 3.063,0.054c0.581,0.082 1.085,0.423 1.448,0.707c1.069,0.835 4.094,-0.136 5.345,-0.38c1.141,-0.223 1.475,-2.204 3.23,-1.469c1.048,0.439 4.799,3.887 5.179,5.003c0.114,0.334 0.049,1.891 0.39,1.958c0.688,0.134 2.802,-0.012 3.285,0.326c0.291,0.203 0.859,1.436 1.059,1.468c1.451,0.237 2.13,-0.601 3.451,-0.816c1.538,-0.25 3.044,0.87 4.956,0.87c0.727,0 2.952,-0.397 2.952,-1.195" style="fill:#8caa5c;fill-rule:nonzero;"/><path id="Azerbaijan" d="M97.551,171.982c-1.083,-1.1 -3.704,-2.635 -5.408,-2.873c-0.892,-0.124 -1.563,0.779 -2.51,0.423c-1.077,-0.405 -1.295,-1.849 -2.076,-2.535c-1.131,-0.994 -4.159,-0.048 -3.72,-2.62c0.091,-0.532 1.682,-0.673 2.077,-0.886c0.889,-0.483 1.365,-2.478 2.465,-2.324c0.82,0.115 3.855,2.318 4.239,1.943c0.522,-0.508 2.075,-2.097 3.029,-1.352c3.549,2.773 2.041,3.869 2.769,5.999c0.137,0.404 0.781,0.456 0.908,0.887c0.368,1.256 -0.934,2.644 -1.731,3.423" style="fill:#17583e;fill-rule:nonzero;"/><path id="Armenia" d="M88.123,170.077c-0.472,-1.384 -2.616,-1.344 -3.75,-2.293c-2.14,-1.791 -0.027,-3.043 -4.858,-4.266c-0.42,-0.106 -1.939,-0.405 -2.249,0.032c-1.895,2.674 0.765,2.613 1.858,3.948c1.455,1.776 -1.247,4.709 2.087,5.794c0.54,0.176 1.614,0.319 2.184,0.16c0.544,-0.152 0.726,-0.63 1.174,-0.892c0.605,-0.354 5.342,-1.151 3.521,-2.674" style="fill:#4b96c0;fill-rule:nonzero;"/><path id="Georgia" d="M83.265,162.141c1.377,-1.193 4.518,-1.549 1.142,-2.938c-1.602,-0.659 -3.091,-1.456 -4.731,-2.046c-1.116,-0.402 -2.345,-0.389 -3.444,-0.872c-0.941,-0.412 -1.622,-1.197 -2.574,-1.581c-2.007,-0.806 -3.491,-0.003 -5.498,-0.101c-2.147,-0.105 -3.886,-3.041 -7.096,-2.593c-0.872,0.121 0.157,1.202 0.415,1.397c1.548,1.177 5.398,1.525 5.788,3.81c0.195,1.14 2.74,3.957 3.881,4.275c0.701,0.196 1.546,-0.131 2.199,0.081c0.987,0.322 1.377,1.169 2.636,0.994c1.116,-0.156 1.192,-1.385 3.319,-1.196c1.371,0.121 3.138,3.009 4.087,0.689" style="fill:#f5e158;fill-rule:nonzero;"/><path id="Russia" d="M201.754,18.417c3.831,0.041 3.572,2.632 8.653,3.625c3.278,0.64 5.665,-1.417 8.681,-1.908c1.707,-0.277 4.975,-1.214 6.729,-0.53c1.027,0.402 1.978,1.209 3.146,1.59c0.981,0.319 2.603,0.069 3.473,0.636c0.724,0.472 1.151,1.366 1.844,1.908c0.326,0.254 1.12,0.49 1.302,0.847c0.374,0.73 -1.729,1.166 -2.278,1.166c-2.486,0 -5.909,3.537 -7.162,4.026c-1.36,0.532 -2.93,0.042 -2.93,2.014c0,0.436 0.271,0.812 0.651,1.06c1.619,1.054 12.409,-0.531 14.215,-1.59c0.471,-0.276 0.379,-0.874 0.868,-0.953c1.657,-0.27 2.843,1.059 3.256,1.059c0.114,0 -0.006,-0.318 0.109,-0.318c0.108,0 -0.077,0.244 0,0.319c0.26,0.254 1.159,-0.284 1.41,-0.319c0.209,-0.029 2.536,0.463 2.713,0.636c0.431,0.421 0.735,1.313 1.302,1.59c0.711,0.347 4.932,-1.503 6.62,-0.954c0.92,0.3 1.56,1.467 2.495,1.696c0.374,0.091 0.813,-0.063 1.194,0c1.583,0.257 2.974,1.156 4.557,1.377c3.094,0.432 2.835,-1.49 4.775,-2.437c0.909,-0.444 2.72,0.278 3.719,0.278c1.663,0 2.918,-1.507 4.571,-1.709c3.143,-0.383 6.268,-0.453 9.14,0.95c0.659,0.322 1.172,0.952 1.847,1.234c0.97,0.406 2.396,-0.002 3.306,0.665c3.977,2.912 7.305,4.657 11.96,6.362c1.302,0.476 2.378,1.346 3.793,1.52c2.514,0.306 3.284,-2.521 5.639,-2.849c1.531,-0.214 2.744,0.335 4.182,0.569c1.229,0.2 2.562,-0.2 3.792,0c1.892,0.308 3.011,1.956 5.153,0.76c4.469,-2.494 1.292,-3.836 1.654,-5.603c0.077,-0.376 1.583,-0.19 1.847,-0.19c0.594,0 0.753,-0.391 1.264,-0.474c2.005,-0.327 4.882,-0.283 6.904,0c0.711,0.099 1.277,0.629 1.944,0.759c1.935,0.378 4.082,-0.317 6.029,0c0.421,0.068 0.224,0.693 0.487,0.95c0.634,0.619 1.716,0.628 2.528,0.759c1.505,0.245 3.121,-0.914 4.764,-0.379c1.907,0.62 3.956,1.208 5.834,1.993c1.069,0.448 2.129,1.545 3.307,1.71c3.442,0.48 7.05,-0.196 10.501,0.285c0.622,0.087 0.689,0.515 1.07,0.665c2.477,0.968 6.195,0.57 8.848,0.57c1.309,0 2.795,0.21 4.085,0c0.597,-0.098 1.954,-1.202 2.333,-1.14c1.092,0.178 2.147,1.295 3.014,1.899c0.376,0.261 7.143,2.706 7.488,2.754c2.518,0.352 8.826,0.993 11.182,0.665c0.525,-0.073 0.813,-0.382 1.264,-0.57c0.793,-0.332 5.474,-0.146 6.515,0c0.656,0.092 1.142,0.641 1.75,0.759c1.949,0.381 4.054,-0.101 6.029,0.285c2.074,0.405 3.77,2.11 5.737,2.659c0.601,0.168 4.398,-0.051 3.694,-1.424c-0.115,-0.225 -4.142,-3.142 -4.084,-3.229c0.343,-0.501 2.599,-0.19 3.21,-0.19c0.677,0 2.989,-0.349 3.403,0.19c0.162,0.212 -0.243,0.237 0,0.475c0.438,0.427 3.248,0.196 3.889,0.285c1.309,0.183 3.032,-0.406 4.279,0c0.563,0.183 0.801,0.427 1.167,0.855c0.966,1.133 3.281,0.474 4.57,0.474c4.047,0 5.163,0.688 8.751,2.089c0.824,0.322 2.137,0.084 3.015,0.19c2.952,0.361 5.935,1.52 8.848,2.09c0.897,0.175 1.753,1.215 2.82,1.424c2.368,0.462 5.344,0.062 7.779,0.855c2.878,0.936 4.839,3.726 8.07,4.178c2.419,0.337 4.176,-0.302 6.321,-1.14c0.384,-0.15 0.951,0.08 1.361,0c0.231,-0.045 0.945,-0.257 1.167,-0.095c0.347,0.254 0.324,0.861 0.68,1.14c1.671,1.305 6.084,3.386 5.641,5.982c-0.26,1.524 -4.891,0.241 -5.641,0.095c-2.264,-0.443 -3.483,-2.702 -5.639,-3.229c-2.174,-0.53 -3.581,1.412 -5.835,1.045c-0.866,-0.141 -4.882,-3.029 -7.195,-1.9c-1.552,0.759 2.67,3.917 2.626,3.989c-0.39,0.635 -6.707,-1.142 -7.487,-0.379c-0.287,0.279 -0.054,0.921 0,1.234c0.433,2.542 5.165,2.899 7.292,3.418c2.998,0.732 6.323,2.185 9.043,3.513c0.386,0.189 2.408,1.562 1.167,1.805c-1.833,0.358 -9.031,-0.582 -9.821,0.189c-2.706,2.643 -3.403,6.671 -3.695,7.027c-0.327,0.4 -1.263,0.475 -1.653,0.665c-3.869,1.889 -3.653,-0.916 -5.931,-1.234c-5.373,-0.75 -4.938,1.033 -8.265,2.658c-1.336,0.653 -3.858,0.674 -4.863,1.899c-0.268,0.33 -0.438,2.989 -0.291,3.325c0.116,0.265 3.671,4.231 3.986,4.462c0.583,0.427 5.518,1.655 6.029,2.279c1.706,2.083 1.825,5.454 2.82,7.882c0.234,0.572 1.024,1.599 1.653,1.804c0.069,0.023 0.865,0.063 0.876,0.095c0.016,0.049 -1.511,0.988 -1.751,1.804c-0.882,3.014 0.408,2.561 0.875,4.843c0.231,1.129 -1.32,3.042 -0.681,4.083c0.377,0.613 2.462,2.614 1.848,3.513c-0.402,0.59 -3.519,1.681 -4.278,1.805c-0.23,0.037 -0.743,0.069 -0.876,-0.19c-0.188,-0.369 0.114,-0.918 -0.097,-1.33c-0.843,-1.645 -2.149,-3.67 -3.695,-4.747c-1.603,-1.119 -3.872,-1.978 -5.153,-3.229c-0.216,-0.21 -0.037,-0.934 -0.195,-1.139c-0.2,-0.262 -1.651,-0.531 -2.042,-0.76c-1.052,-0.616 -4.442,-3.603 -5.056,-4.653c-0.544,-0.929 0.056,-2.157 -0.194,-3.134c-0.388,-1.517 -4.189,-3.186 -4.376,-4.463c-0.054,-0.366 1.049,-9.529 1.166,-9.875c0.443,-1.298 2.74,-3.061 2.918,-4.274c0.413,-2.823 -0.785,-2.833 -1.75,-5.032c-0.663,-1.509 -1.496,-3.194 -3.015,-4.084c-0.599,-0.35 -0.957,-0.083 -1.556,0c-4.123,0.575 -0.146,4.208 -2.042,5.318c-0.47,0.276 -3.144,0.361 -3.597,0.095c-0.753,-0.441 -1.572,-1.278 -2.431,-1.614c-1.024,-0.4 -7.532,-2.106 -8.46,-1.804c-1.448,0.471 -3.168,7.307 -2.723,8.83c0.174,0.592 1.533,1.899 0.876,2.755c-0.015,0.019 -4.465,0.204 -4.96,0.285c-1.669,0.271 -4.966,-1.995 -7,-2.28c-2.565,-0.357 -5.804,-0.75 -8.168,0.57c-0.719,0.401 -1.28,0.735 -2.14,0.855c-4.159,0.58 -8.023,-2.625 -12.251,-0.855c-0.557,0.233 -0.448,0.605 -0.876,0.855c-0.937,0.55 -2.341,0.882 -3.208,1.899c-0.41,0.48 -0.183,1.4 -0.487,1.994c-0.983,1.922 -2.236,3.441 -2.236,5.697c0,0.723 0.178,1.68 0,2.375c-0.456,1.78 -4.71,4.665 -4.571,4.937c0.093,0.179 0.413,0.079 0.584,0.19c0.775,0.504 1.2,1.224 1.945,1.709c1.005,0.655 11.038,4.676 11.863,4.274c0.799,-0.39 0.242,-1.249 0.486,-1.805c0.238,-0.542 2.506,-1.868 3.112,-1.424c0.278,0.204 -0.029,0.784 0.194,1.044c0.303,0.355 0.787,0.851 1.167,1.141c0.228,0.173 4.746,3.258 4.862,3.323c1.198,0.668 2.684,0.721 3.695,1.709c0.121,0.118 0.195,0.281 0.263,0.45l0.058,0.144c0.067,0.169 0.141,0.332 0.263,0.45c2.91,2.843 1.972,3.604 3.597,5.508c1.156,1.355 2.675,2.204 3.792,3.514c1.759,2.061 2.717,8.704 3.306,11.584c0.279,1.363 0,3.062 0,4.463c0,0.959 -0.672,5.036 -1.898,5.036c-0.405,0.489 -0.517,1.074 -0.762,1.672c-0.32,0.783 -0.082,1.647 -0.475,2.415c-0.625,1.221 -1.634,2.361 -2.187,3.622c-0.145,0.33 -0.157,1.508 -0.381,1.672c-0.244,0.178 -0.925,0.072 -1.236,0.186c-1.677,0.614 -3.494,1.997 -5.517,1.207c-0.606,-0.236 -0.438,-1.149 -1.521,-1.3c-1.135,-0.159 -2.87,3.46 -3.52,2.508c-0.675,-0.989 0.378,-2.793 0,-3.901c-0.369,-1.082 -3.564,-3.769 -3.138,-5.016c0.278,-0.815 1.459,-0.207 1.997,-0.557c1.086,-0.707 3.603,-3.272 4.09,-4.459c0.148,-0.361 -0.041,-0.781 0.095,-1.114c0.093,-0.228 0.764,-0.733 0.666,-1.021c-0.158,-0.462 -1.288,-0.022 -1.617,-0.28c-0.956,-0.745 -1.046,-2.158 -1.046,-3.25c0,-0.32 -0.161,-1.225 0,-1.486c0.266,-0.434 2.036,-1.33 1.426,-2.322c-0.247,-0.402 -1.575,-0.517 -1.997,-0.929c-0.527,-0.514 -3.56,-1.804 -4.375,-1.208c-0.43,0.315 -0.098,1.25 -0.856,1.672c-1.016,0.568 -2.31,0.639 -3.329,1.208c-0.958,0.535 -1.149,1.593 -2.377,1.393c-0.553,-0.09 -1.611,-0.458 -1.998,-0.836c-0.207,-0.202 -0.027,-0.503 -0.19,-0.743c-0.721,-1.056 -4.732,-3.982 -5.897,-4.551c-2.204,-1.077 -8.301,-0.87 -10.938,-2.415c-0.287,-0.168 -0.507,-0.588 -0.666,-0.743c-0.475,-0.465 -1.832,-0.645 -2.472,-1.115c-0.474,-0.346 -0.51,-0.884 -0.951,-1.207c-2.411,-1.766 -4.236,-3.87 -6.088,-6.13c-1.217,-1.486 -2.154,-3.308 -3.804,-4.459c-0.771,-0.538 -1.575,-1.321 -2.473,-1.671c-1.643,-0.643 -3.276,-0.664 -4.946,-1.208c-1.17,-0.381 -2.228,-1.291 -3.423,-1.486c-1.809,-0.294 -4.657,-0.294 -6.468,0c-1.275,0.207 -4.612,1.516 -5.707,2.229c-0.357,0.233 -0.505,1.205 -0.76,1.579c-0.134,0.196 -1.157,1.069 -1.046,1.393c0.053,0.16 1.699,-0.099 1.902,0c0.428,0.21 0.762,0.954 1.046,1.3c0.333,0.406 0.142,1.004 0.475,1.394c0.144,0.167 1.305,1.234 0.952,1.579c-0.192,0.187 -0.64,0.2 -0.856,0.464c-0.517,0.632 -1.479,2.764 -0.952,3.623c0.471,0.767 2.118,1.413 1.332,2.693c-0.304,0.495 -1.279,0.005 -1.712,0.186c-1.57,0.657 -2.481,1.341 -4.185,1.579c-1.139,0.159 -1.784,-0.953 -2.853,-1.3c-1.21,-0.394 -2.824,0.206 -4.09,0c-1.073,-0.175 -1.008,-0.929 -3.9,-0.929c-0.632,0 -1.382,-0.12 -1.996,0c-0.793,0.155 -1.157,1.081 -1.903,1.393c-1.367,0.573 -6.45,2.204 -7.799,1.765c-0.422,-0.137 -0.987,-0.992 -2.092,-1.301c-2.568,-0.716 -5.079,-1.072 -7.704,-1.393c-0.627,-0.076 -0.911,-0.729 -1.522,-0.928c-1.996,-0.65 -4.2,-0.797 -5.992,-1.672c-0.539,-0.263 -3.44,-0.457 -3.994,-0.186c-1.016,0.496 -2.739,1.813 -4.09,1.022c-1.199,-0.703 -5.002,-2.624 -6.277,-3.159c-1.719,-0.719 -2.672,-2.28 -4.281,-3.065c-1.67,-0.815 -3.922,-0.152 -5.706,-0.65c-0.689,-0.192 -1.034,-0.701 -1.617,-0.929c-0.509,-0.198 -2.327,-0.151 -2.758,0.186c-0.381,0.298 -0.151,0.686 -0.381,1.022c-0.314,0.461 -2.909,1.971 -2.282,2.786c0.312,0.408 1.157,-0.006 1.521,0.279c0.681,0.532 0.111,1.476 0.476,1.951c1.567,2.04 -1.214,3.343 -3.329,3.343c-0.906,0 -1.959,0.146 -2.853,0c-0.603,-0.098 -1.172,-1.034 -1.807,-1.3c-0.893,-0.373 -2.092,-0.248 -3.044,-0.558c-0.569,-0.185 -0.97,-0.759 -1.522,-0.835c-2.783,-0.389 -5.417,-2.063 -8.369,-1.486c-1.822,0.356 -5.961,2.704 -7.514,3.715c-0.668,0.435 -1.493,1.724 -2.188,1.951c-0.344,0.111 -0.821,-0.158 -1.141,0.092c-0.605,0.473 -1.179,1.226 -1.902,1.579c-0.179,0.088 -1.348,-1.586 -1.807,-1.765c-2.474,-0.966 -5.381,-0.833 -8.052,-0.833c-3.805,-1.857 -7.235,-4.594 -11.72,-5.22c-1.353,-0.188 -3.058,1.196 -4.185,0.566c-0.802,-0.447 -1.105,-1.354 -2.061,-1.509c-1.716,-0.28 -3.896,1.588 -5.345,0.88c-1.431,-0.699 -0.514,-2.535 -1.803,-3.585c-1.963,-1.597 -8.476,-3.48 -9.144,-4.024c-0.66,-0.536 -0.072,-1.651 -0.902,-2.326c-1.486,-1.21 -2.854,-1.864 -4.636,-2.516c-0.908,-0.333 -1.249,-1.562 -2.19,-1.824c-0.463,-0.13 -1.45,-0.282 -1.932,-0.125c-0.58,0.189 -0.972,1.154 -1.48,1.509c-0.575,0.4 -3.142,1.622 -3.864,1.321c-0.751,-0.315 -1.128,-1.322 -1.803,-1.761c-1.018,-0.664 -3.361,-0.495 -4.572,-0.693c-0.733,-0.119 -1.262,-0.598 -1.932,-0.817c-0.564,-0.184 -1.233,0.05 -1.803,-0.189c-0.424,-0.177 -0.652,-1.036 -1.159,-1.32c-0.695,-0.388 -1.541,-0.124 -2.19,-0.441c-0.683,-0.333 -0.619,-1.325 -1.48,-1.446c-1.481,-0.206 -3.745,-0.264 -5.152,0.251c-0.593,0.218 -1.083,0.79 -1.739,0.881c-1.158,0.162 -2.494,-0.281 -3.606,0.126c-0.842,0.308 -1.459,1.369 -2.318,1.509c-1.341,0.219 -2.782,-0.155 -4.122,0.063c-1.396,0.227 -2.586,1.367 -4.056,1.572c-2.091,0.292 -4.122,-0.081 -6.118,0.754c-3.423,1.434 -0.397,2.99 -1.224,5.409c-0.529,1.55 -2.795,2.277 -2.124,4.025c0.493,1.285 4.292,3.334 3.992,4.213c-0.239,0.698 -1.917,0.274 -2.512,0.44c-0.589,0.165 -1.09,0.592 -1.674,0.755c-0.419,0.117 -2.198,-0.983 -2.704,-1.195c-0.686,-0.287 -1.529,-0.047 -2.254,-0.126c-0.574,-0.062 -1.421,-0.735 -2.061,-0.943c-2.131,-0.694 -3.532,0.987 -5.473,1.257c-0.61,0.085 -1.258,-0.085 -1.868,0c-0.213,0.03 -0.785,0.57 -1.03,0.378c-0.415,-0.325 -0.648,-0.847 -1.16,-1.132c-0.791,-0.442 -4.609,-1.621 -5.473,-1.761c-0.737,-0.12 -1.614,-0.056 -2.318,-0.315c-0.531,-0.194 -0.734,-0.729 -1.159,-1.005c-0.536,-0.35 -4.769,-0.964 -5.409,-0.755c-0.536,0.175 -0.742,0.85 -1.224,1.132c-1.586,0.929 -3.816,0.623 -5.537,3.144c-0.578,0.846 -0.175,1.805 -1.031,2.641c-1.048,1.023 -2.908,-0.542 -4.186,-0.126c-1.391,0.454 -3.525,7.134 -2.575,8.679c0.277,0.451 0.74,0.084 1.094,0.315c0.869,0.565 1.39,1.53 2.318,2.075c0.65,0.38 1.506,0.426 2.125,0.88c0.447,0.327 0.756,1.108 1.095,1.572c0.449,0.613 1.274,0.718 1.868,1.132c0.525,0.366 0.701,1.165 1.223,1.572c0.511,0.399 2.01,0.837 2.125,1.509c0.039,0.226 0.088,0.82 -0.065,1.006c-0.502,0.614 -1.262,0.149 -1.867,0.504c-2.074,1.215 -5.05,3.681 -5.474,6.162c-0.411,2.413 3.562,3.407 4.637,5.157c0.588,0.956 -0.228,3.275 1.803,4.465c0.306,0.179 2.62,1.906 2.125,2.39c-1.239,1.21 -1.83,0.161 -2.739,-0.283c-0.923,-0.451 -1.177,0.119 -1.873,-0.788c-1.262,0.267 -1.67,-1.502 -2.445,-1.753c-3.4,-1.108 -6.379,-3.218 -9.983,-3.921c-1.148,-0.224 -1.967,-1.241 -3.039,-1.59c-1.719,-0.56 -3.9,0.446 -5.642,0.106c-1.47,-0.287 -2.291,-2 -3.907,-2.225c-1.931,-0.27 -4.057,0.373 -5.968,0c-1.014,-0.199 -6,-3.328 -6.619,-4.133c-1.004,-1.307 1.49,-4.156 2.062,-5.087c1.253,-2.04 0.57,-3.617 1.302,-5.405c0.342,-0.835 1.135,-1.127 1.628,-1.8c1.439,-1.968 1.563,-4.9 0.108,-6.677c-2.606,-3.181 -10.783,-3.463 -14.324,-5.193c-2.573,-1.255 -3.768,-3.547 -5.86,-5.298c-0.817,-0.684 -1.779,-1.091 -2.604,-1.696c-1.323,-0.968 -5.802,-0.261 -6.619,-1.059c-1.052,-1.028 -0.364,-2.902 -0.868,-4.133c-0.39,-0.951 -1.323,-1.6 -1.737,-2.544c-0.836,-1.905 -1.223,-4.16 -2.821,-5.721c-0.396,-0.388 -1.055,-0.471 -1.519,-0.743c-4.028,-2.36 -6.837,0 -9.766,-4.768c-0.871,-1.418 -0.328,-3.721 -0.651,-5.298c-0.162,-0.787 -0.832,-1.165 -0.976,-2.014c-0.076,-0.436 -0.227,-2.212 0,-2.543c0.425,-0.624 2.419,-0.202 3.254,-2.649c0.12,-0.349 0.717,-1.462 0.543,-1.802c-0.267,-0.522 -5.238,0.347 -3.364,-1.483c0.685,-0.669 1.807,-0.883 2.604,-1.272c0.612,-0.299 5.1,-5.085 5.209,-5.617c0.551,-2.687 -2.44,-3.388 -3.472,-5.404c-1.027,-2.006 -1.565,-4.328 -2.604,-6.358c-0.346,-0.675 0.257,-1.841 -0.109,-2.438c-0.293,-0.476 -1.275,-0.463 -1.52,-1.059c-0.476,-1.164 0.255,-2.892 0,-4.133c-0.595,-2.909 -5.221,-4.78 -0.759,-8.266c0.506,-0.395 1.995,0 2.604,0c0.853,0 2.485,-0.588 3.256,-0.212c0.874,0.427 2.085,0.7 3.039,1.166c2.199,1.074 -0.144,1.695 4.34,1.695c3.178,0 6.336,-1.469 9.549,-0.423c1.108,0.36 1.984,1.18 3.038,1.695c5.141,2.51 4.086,-0.037 8.79,4.557c1.104,1.078 -0.531,2.753 -1.628,2.967c-0.656,0.128 -1.413,-0.158 -2.062,0c-2.154,0.526 -4.285,2.075 -6.619,1.695c-0.785,-0.127 -1.52,-1.907 -2.387,-2.331c-2.461,-1.201 -5.478,-1.483 -8.247,-1.483c-2.54,0 -1.773,-0.152 -2.713,1.377c-0.288,0.469 -0.677,-0.007 -0.977,0.212c-0.307,0.225 -0.827,1.841 -0.543,2.119c0.496,0.484 2.384,-0.32 3.039,0c0.76,0.372 1.697,1.021 2.279,1.59c1.062,1.037 2.199,5.713 5.208,6.888c1.116,0.436 7.711,1.584 8.682,0.636c0.218,-0.213 2.139,-2.124 2.062,-2.225c-0.575,-0.748 -2.167,-0.04 -2.931,-0.636c-0.465,-0.364 -1.526,-1.634 -0.542,-1.908c0.988,-0.276 1.13,0.687 1.953,0.848c1.543,0.301 3.28,0.754 4.884,0.53c0.925,-0.129 2.884,-1.83 1.953,-2.967c-0.168,-0.206 -2.556,-0.694 -0.977,-1.272c0.722,-0.264 1.383,-0.72 2.17,-0.848c2.128,-0.346 5.202,0.091 6.945,-1.272c1.191,-0.93 0.11,-5.892 0.76,-6.145c4.581,-1.79 3.383,2.195 4.014,2.966c0.875,1.069 3.219,1.539 4.558,1.166c2.596,-0.724 4.836,-2.891 7.162,-4.027c3.214,-1.569 7.238,-2.502 10.743,-3.073c1.788,-0.291 -0.314,1.21 2.17,1.696c3.13,0.611 5.455,-1.484 8.464,-1.484c1.862,0 3.7,-0.106 5.535,-0.106c1.042,0 0.304,1.706 1.41,1.166c0.791,-0.386 1.531,-2.284 2.713,-2.861c3.162,-1.544 5.868,-1.163 9.115,-0.106c1.52,0.494 2.986,0.443 4.558,0.636c0.787,0.096 4.515,1.434 5.642,1.801c0.463,0.151 0.777,1.038 1.194,1.377c0.405,0.33 3.163,1.681 3.689,1.166c0.62,-0.604 1.242,-1.529 1.953,-2.225c0.323,-0.314 1.919,-2.083 1.194,-2.649c-0.378,-0.296 -7.272,-3.428 -7.813,-3.603c-0.158,-0.052 -0.827,0.003 -0.976,-0.106c-0.278,-0.203 0.035,-0.638 -0.109,-0.848c-0.243,-0.356 -0.814,-0.583 -0.977,-1.06c-0.473,-1.387 -0.27,-0.529 -0.759,-1.166c-0.423,-0.55 0.076,-3.412 0.759,-3.602c1.213,-0.338 2.803,-0.189 3.69,-1.272c0.127,-0.156 0.49,-0.92 0.543,-0.954c0.262,-0.17 0.995,0.086 1.302,0c0.701,-0.196 2.227,-1.322 3.038,-0.847c0.53,0.31 1.815,0.905 2.17,1.483c0.237,0.386 -0.022,0.782 0.109,1.166c0.382,1.12 5.16,5.546 6.294,7.206c0.693,1.016 0.994,2.36 1.628,3.39c0.987,1.608 2.59,2.35 3.58,4.77c0.079,0.19 0.232,0.753 0.109,0.953c-0.221,0.358 -0.937,0.428 -1.194,0.742c-1.271,1.552 -1.891,3.342 -3.146,4.875c-0.081,0.099 -0.428,0.331 -0.326,0.53c0.136,0.265 1.292,0.105 1.519,0.105c0.84,0 1.798,0.12 2.604,-0.105c0.94,-0.263 2.05,-0.525 2.93,-0.955c1.129,-0.55 5.368,-6.51 4.775,-7.523c-0.347,-0.593 -1.074,-0.5 -1.519,-0.848c-0.835,-0.652 -1.033,-2.28 -1.845,-3.073c-1.057,-1.033 -5.493,-1.258 -5.968,-2.65c-0.458,-1.34 0.133,-1.222 -0.977,-3.391c-0.145,-0.282 -1.509,-1.599 -1.085,-2.013c0.139,-0.137 3.234,-0.386 3.472,-0.212c0.289,0.211 -0.043,0.625 0.109,0.848c0.566,0.829 6.58,-0.019 7.813,-0.742c0.902,-0.528 1.106,-1.38 1.736,-2.119c0.606,-0.71 5.001,-4.737 5.751,-4.981c0.716,-0.233 6.053,-1.076 6.511,-0.741c0.506,0.007 0.079,0.395 0.217,0.53c0.751,0.733 4.443,0.006 4.991,-0.636c1.802,-2.111 -3.583,-3.814 -0.542,-5.299c1.887,-0.922 7.513,0.522 9.766,-0.106c2.285,-0.638 4.331,-2.542 6.619,-2.861c3.421,-0.478 6.179,1.789 9.55,1.377c2.591,-0.316 4.378,-4.168 7.922,-4.662c0.629,-0.088 1.177,-0.128 1.661,-0.129l0.102,0.001Zm236.733,122.099c-0.669,-0.146 -1.68,0.225 -2.301,-0.179c-1.154,-0.752 -1.547,-2.325 -2.483,-3.293c-0.667,-0.69 -1.607,-1.137 -2.169,-1.914c-0.548,-0.757 -0.709,-1.739 -1.15,-2.553c-2.692,-4.965 -7.832,-13.801 -12.076,-17.255c-1.165,-0.948 -5.331,-2.606 -4.077,-5.054c0.15,-0.292 2.894,1.189 3.084,1.302c3.077,1.837 4.248,5.753 6.456,8.449c2.601,3.175 9.044,3.983 10.873,7.556c1.278,2.495 -6.701,-0.788 -2.587,4.467c0.886,1.131 2.384,1.474 3.45,2.373c0.918,0.775 0.923,1.872 1.569,2.782c0.454,0.642 1.56,1.248 1.751,1.991c0.173,0.679 -0.261,0.742 -0.261,1.277l-0.079,0.051Z" style="fill:#8daa5c;fill-rule:nonzero;"/><path id="Kazhakstan" d="M170.348,162.17c-0.633,-0.799 -1.212,-0.664 -2.177,-0.664c-8.279,0 -8.703,-7.971 -13.606,-9.767c-2.393,-0.877 -5.558,0.537 -8.028,-0.066c-0.867,-0.211 -1.186,-1.146 -1.836,-1.528c-1.35,-0.791 -3.127,-0.769 -4.422,-1.528c-3.115,-1.825 -6.092,-3.807 -9.728,-4.518c-1.373,-0.267 -2.703,-0.055 -3.946,0.465c-1.397,0.585 -3.975,0.051 -7.076,1.263c-0.304,0.119 -0.492,0.772 -0.612,1.063c-1.069,2.609 0.101,3.019 0.884,5.314c0.714,2.091 0.683,4.358 1.293,6.445c0.033,0.113 0.366,0.573 0.204,0.731c-0.719,0.702 -4.623,-3.121 -5.238,-3.522c-2.3,-1.497 -4.442,0.731 -6.6,0.731c-0.673,0 -5.788,-2.797 -6.326,-3.322c-0.768,-0.75 -1.153,-1.565 -1.701,-2.458c-0.185,-0.301 -0.759,-0.426 -0.884,-0.731c-0.316,-0.772 0.533,-1.688 0.884,-2.258c0.265,-0.431 0.33,-1.043 0.817,-1.329c1.609,-0.944 3.741,-1.716 5.714,-1.395c0.885,0.144 1.915,1.19 2.926,0.598c0.324,-0.191 0.444,-1.714 0.271,-1.993c-0.357,-0.584 -3.388,-4.101 -3.945,-4.319c-2.245,-0.876 -4.063,-2.361 -6.735,-1.926c-1.873,0.305 -4.212,2.394 -6.259,1.594c-0.552,-0.215 -0.837,-1.083 -1.225,-1.462c-0.555,-0.541 -1.549,-0.669 -2.177,-1.129c-0.451,-0.331 -0.75,-0.998 -1.156,-1.395c-0.416,-0.407 -1.199,-0.419 -1.701,-0.664c-0.731,-0.358 -1.034,-1.01 -1.565,-1.528c-2.294,-2.242 -3.537,-1.583 -3.537,-5.515c0,-0.493 -0.176,-1.453 0.136,-1.86c0.479,-0.623 5.002,-0.373 5.374,-0.664c0.685,-0.534 1.323,-3.552 1.837,-3.853c2.18,-1.278 5.649,-3.388 8.368,-2.857c0.303,0.059 1.848,1.319 3.537,1.594c1.252,0.204 3.33,0.09 4.422,0.731c1.434,0.84 2.542,2.185 4.218,2.459c2.868,0.466 6.271,-2.08 9.661,-1.529c2.696,0.439 4.608,2.648 7.619,2.059c1.715,-0.335 5.374,-2.415 4.082,-4.517c-0.431,-0.702 -3.367,-2.452 -3.402,-2.658c-0.399,-2.341 1.17,-1.803 1.497,-3.72c0.161,-0.942 0.068,-1.96 0.068,-2.923c0,-0.308 -0.593,-0.678 -0.34,-0.863c0.214,-0.158 1.004,-0.542 1.293,-0.599c1.813,-0.354 4.028,0.439 5.782,-0.132c0.931,-0.303 1.741,-1.103 2.721,-1.263c2.291,-0.373 4.82,-0.832 7.075,-1.461c0.9,-0.251 1.604,-0.854 2.449,-1.129c0.79,-0.258 5.523,-1.06 6.123,-0.865c1.014,0.33 1.584,1.327 2.313,1.861c0.697,0.51 1.665,0.776 2.381,1.196c2.302,1.348 6.298,0.745 7.96,1.395c1.289,0.503 1.885,1.746 3.401,1.993c3.066,0.499 7.148,-1.948 8.436,-1.528c0.385,0.125 0.908,1.016 1.292,1.328c1.167,0.95 2.647,1.666 3.607,2.791c0.659,0.774 0.715,1.576 1.7,2.126c1.751,0.978 6.419,1.684 7.755,2.989c1.083,1.058 1.105,3.812 2.994,4.119c1.072,0.175 5.768,-0.575 6.191,-0.265c2.641,1.935 4.641,0.659 7.755,0.996c0.901,0.098 1.771,1.329 2.721,1.594c1.133,0.317 3.713,0.77 4.559,1.595c0.758,0.742 1.769,1.695 2.788,2.193c0.694,0.338 4.84,-1.254 5.987,-0.133c0.407,0.397 -1.233,1.375 -1.428,1.528c-1.114,0.87 -1.936,2.839 -2.177,4.252c-0.172,1.005 1.114,1.815 0.952,2.525c-0.67,2.946 -6.364,0.432 -8.299,1.062c-0.605,0.197 0.888,0.82 0.543,1.661c-0.342,0.837 -1.307,1.2 -1.632,1.993c-0.747,1.824 0.826,2.167 -2.721,3.322c-1.769,0.576 -2.254,1.118 -2.857,2.591c-1.584,3.867 2.863,4.877 3.401,7.507c0.193,0.944 -0.302,1.541 -0.476,2.392c-0.062,0.303 0.136,0.797 -0.068,1.063c-0.418,0.543 -1.314,-0.685 -1.497,-0.864c-0.982,-0.959 -2.281,-1.229 -3.605,-1.661c-1.367,-0.444 -4.378,-0.856 -5.783,-0.398c-0.99,0.322 -0.738,0.807 -2.993,0.532c-0.577,-0.071 -0.568,-0.577 -1.021,-0.798c-0.763,-0.372 -1.975,0.025 -2.585,-0.332c-0.461,-0.27 -0.908,-0.569 -1.497,-0.665c-2.23,-0.362 -5.856,2.356 -8.163,3.322c-0.211,0.088 -0.876,0.355 -1.089,0.199c-1.357,-0.993 -3.571,-1.281 -5.374,-0.93c-0.189,0.037 -0.79,0.445 -0.885,0.599c-0.138,0.225 0.101,0.683 0,0.93c-0.463,1.13 -2.307,2.654 -3.333,3.321c-2.323,1.513 -3.513,0.983 -4.558,1.594" style="fill:#4b96c0;fill-rule:nonzero;"/><path id="Krygstan" d="M211.226,159.178c-0.674,-1.27 -2.193,-1.34 -3.419,-1.853c-0.506,-0.212 -0.619,-0.836 -1.197,-1.047c-2.678,-0.98 -4.932,1.155 -7.66,0.755c-0.947,-0.139 -1.506,-1.14 -2.345,-1.243c-0.803,-0.097 -1.679,0.155 -2.47,0c-0.751,-0.146 -0.809,-1.218 -1.847,-0.901c-4.753,1.451 -3.943,5.149 -10.304,2.388c-2.349,-1.019 -3.423,2.879 -3.418,2.899c0.054,0.209 0.786,0.646 0.973,0.828c2.526,2.468 1.93,-0.516 4.217,0.123c1.4,0.391 0.287,0.482 1.646,0.926c0.497,0.161 3.004,1.133 2.67,1.949c-1.053,2.569 -3.558,3.922 -6.287,3.922c-0.392,0 -1.063,0.127 -1.423,-0.048c-0.468,-0.229 -0.68,-0.763 -1.222,-0.829c-0.763,-0.093 -1.092,0.443 -0.948,1.146c0.743,3.625 4.603,1.075 7.01,1.437c1.472,0.221 1.803,1.994 3.618,1.218c1.67,-0.713 2.43,-2.511 3.718,-3.655c0.625,-0.555 1.751,-0.087 2.495,-0.39c1.054,-0.428 1.854,-1.395 2.969,-1.73c1.382,-0.415 1.413,1.576 3.593,0.512c2.965,-1.447 5.485,-3.524 8.383,-5.067c0.383,-0.205 1.847,-1.073 1.048,-1.463" style="fill:#c5d83b;fill-rule:nonzero;"/><path id="Tajikistan" d="M197.375,178.416c-0.721,-0.774 -1.781,-0.523 -2.713,-0.168c-1.127,0.431 -4.416,2.233 -5.654,1.562c-0.637,-0.346 -0.312,-1.838 -0.571,-2.426c-0.6,-1.367 -3.969,-4.469 -5.71,-3.542c-1.691,0.901 -2.433,2.99 -3.627,4.35c-0.531,0.605 -1.501,0.396 -2.142,0.754c-0.985,0.55 -1.816,1.696 -2.998,1.812c-1.862,0.182 0.272,-3.415 0.057,-4.043c-0.254,-0.743 -4.106,-4.804 -3.855,-5.661c0.31,-1.061 2.483,-0.478 3.17,-1.283c0.798,-0.935 0.781,-2.38 1.285,-3.486c0.232,-0.509 0.538,-1.535 1.085,-1.84c0.29,-0.162 2.635,-0.421 2.741,-0.112c0.451,1.321 -2.133,2.553 -2.456,3.654c-0.258,0.88 2.169,3.714 3.256,3.82c1.739,0.17 3.383,-1.151 5.111,-0.669c1.545,0.43 2.866,1.883 4.654,1.534c0.788,-0.155 2.225,-1.954 2.827,-1.785c0.941,0.262 2.088,2.421 2.685,3.15c0.77,0.941 2.004,1.293 2.598,2.455c0.318,0.62 0.287,1.279 0.115,1.84" style="fill:#8caa5c;fill-rule:nonzero;"/><path id="Uzbekistan" d="M171.272,179.368c-0.548,-0.48 0.482,-1.242 0.347,-1.67c-0.339,-1.076 -5.635,-6.936 -3.158,-8.319c1.149,-0.641 2.619,-0.708 3.535,-1.782c1.82,-2.134 1.329,-5.271 5.331,-4.782c3.442,0.42 2.289,4.659 6.259,3.367c0.469,-0.153 1.779,-1.049 1.709,-1.528c-0.039,-0.269 -0.444,-0.519 -0.637,-0.707c-1.737,-1.696 -1.997,0.25 -3.796,-0.453c-1.944,-0.76 -2.807,-2.44 -5.302,-1.952c-1.081,0.211 -2.997,2.507 -4.375,3.084c-1.43,0.598 -2.93,-1.224 -4.26,-1.613c-0.653,-0.191 -1.476,-0.076 -2.144,-0.17c-0.451,-0.063 -0.862,-0.806 -1.13,-0.849c-0.397,-0.064 -0.988,0.1 -1.332,-0.17c-1.016,-0.792 -2.292,-1.757 -3.102,-2.744c-1.042,-1.273 -2.878,-4.816 -4.317,-5.518c-2.309,-1.128 -6.567,0.298 -8.489,-0.453c-0.794,-0.31 -1.178,-0.986 -1.913,-1.273c-1.455,-0.569 -3.108,-0.853 -4.491,-1.528c-4.233,-2.067 -8.168,-5.271 -13.097,-4.584c-1.109,0.155 -2.188,-0.018 -3.245,0.424c-0.878,0.369 -2.709,0.653 -3.158,1.529c-0.559,1.092 2.23,9.386 2.55,11.261c0.108,0.631 0.464,1.111 0.464,1.783c0,0.179 -0.182,0.886 -0.058,0.934c1.897,0.741 5.316,-4.335 7.388,-5.093c4.477,-1.64 8.737,2.25 11.59,5.036c1.052,1.027 3.688,0.562 4.781,0.962c0.58,0.212 0.906,0.889 1.362,1.245c0.25,0.196 0.661,0.079 0.898,0.312c0.255,0.248 0.007,0.844 0.145,1.16c0.26,0.592 1.008,1.99 1.333,2.546c0.274,0.467 0.626,1.067 1.072,1.415c0.504,0.394 1.52,-0.157 1.913,0.226c0.934,0.913 4.598,3.644 5.853,3.848c0.844,0.138 4.024,0.625 4.433,1.104c1.218,1.427 2.468,0.706 3.476,2.349c0.401,0.65 0.243,1.434 0.551,2.037c0.05,0.098 3.24,1.98 2.956,0.594" style="fill:#17583e;fill-rule:nonzero;"/><path id="Turkmenistan" d="M166.468,178.269c-0.736,-1.119 -2.374,-1.841 -3.638,-2.403c-1.066,-0.474 -2.303,-0.425 -3.425,-0.837c-1.421,-0.52 -2.468,-1.857 -3.853,-2.534c-1.239,-0.604 -2.444,-0.498 -3.612,-1.411c-2.083,-1.627 -2.653,-4.807 -4.789,-6.297c-1.586,-1.106 -3.881,-0.399 -5.377,-1.594c-2.577,-2.058 -4.988,-5.761 -8.936,-4.99c-3.378,0.659 -3.061,3.023 -5.592,4.259c-2.869,1.401 -4.683,0.86 -6.823,-1.228c-0.417,-0.407 -5.624,-4.483 -5.939,-4.598c-2.077,-0.761 -5.411,3.488 -3.318,2.612c0.885,-0.37 1.518,-0.826 2.489,-1.097c0.888,-0.248 2.68,1.472 3.156,2.404c0.236,0.462 -0.166,1.142 0.161,1.567c0.581,0.756 1.747,1.315 2.461,2.012c0.793,0.774 -3.232,2.546 -3.852,2.613c-0.388,0.042 -2.486,-0.927 -2.569,-0.523c-0.198,0.968 1.277,2.516 1.793,3.188c0.291,0.38 -0.064,0.878 0.347,1.28c0.541,0.528 3.006,2.734 3.211,3.135c0.25,0.489 1.39,4.729 1.391,4.73c0.328,0.24 1.581,-0.534 1.873,-0.705c0.353,-0.207 0.5,-0.65 0.91,-0.81c0.363,-0.143 0.83,0.065 1.204,-0.027c0.371,-0.091 0.6,-0.485 0.963,-0.627c0.448,-0.175 1.02,0.088 1.445,-0.078c1.253,-0.489 2.061,-1.489 3.665,-1.176c0.516,0.101 0.691,0.798 1.204,0.941c0.404,0.113 1.238,-0.222 1.579,0c1.71,1.113 1.783,0.609 2.943,1.175c0.519,0.254 0.975,0.732 1.578,0.968c0.625,0.243 1.527,-0.21 2.167,0c0.36,0.116 0.599,0.622 0.803,0.861c0.44,0.515 0.955,0.153 1.445,0.393c0.304,0.148 0.377,0.576 0.749,0.731c0.556,0.232 1.285,-0.093 1.82,0.13c0.437,0.184 0.345,0.72 0.749,0.889c0.537,0.225 1.125,0.023 1.631,0.418c2.173,1.697 2.109,3.232 3.452,5.199c0.253,0.371 1.108,-0.106 1.445,0.157c0.4,0.312 0.68,0.734 1.07,1.019c0.029,0.021 1.283,-1.259 2.408,-1.829c0.861,-0.436 2.286,-0.346 2.996,-0.94c1.575,-1.319 1.799,-3.879 3.532,-5.148c1.382,-1.012 3.504,-0.845 4.789,-1.724" style="fill:#c5d83b;fill-rule:nonzero;"/><path id="Afganistan" d="M171.176,211.505c1.167,-1.624 1.326,-3.549 2.803,-4.992c1.507,-1.471 3.361,-2.607 5.553,-2.845c0.698,-0.076 1.661,0.688 2.198,0.268c2.151,-1.679 0.734,-5.271 1.87,-7.489c1.576,-3.078 4.537,-3.913 4.644,-4.052c0.807,-1.051 -4.357,-5.685 -0.852,-8.347c3.457,-2.626 2.09,-1.411 5.799,-2.014c0.396,-0.064 0.703,-0.498 1.128,-0.591c0.439,-0.095 3.342,-0.166 3.077,-0.939c-0.058,-0.171 -0.503,-0.257 -0.659,-0.349c-2.683,-1.572 -8.66,2.959 -9.702,1.127c-0.627,-1.101 -0.258,-2.323 -1.21,-3.355c-5.167,-5.606 -3.106,4.27 -10.939,4.966c-3.655,0.324 -6.183,-2.802 -10.252,-2.496c-2.227,0.167 -3.062,3.145 -4.122,4.697c-0.626,0.918 -1.9,1.603 -2.749,2.281c-1.187,0.949 -3.098,2.137 -4.672,2.255c-0.609,0.046 -2.343,-1.199 -2.831,-0.563c-0.546,0.711 -0.802,1.868 -1.182,2.683c-1.415,3.042 0.649,9.476 2.419,12.213c0.785,1.214 2.453,1.06 2.804,2.657c0.39,1.782 -2.109,5.659 -0.385,7.006c0.834,0.651 3.371,-0.482 4.397,-0.215c1.09,0.284 1.669,1.078 2.996,1.154c1.181,0.068 1.876,-0.628 2.996,-0.859c2.703,-0.556 3.498,0.436 5.991,-1.557c0.488,-0.388 1.134,-0.582 1.348,-1.154" style="fill:#4b96c0;fill-rule:nonzero;"/><path id="Pakistan" d="M168.863,214.724c-0.723,0.046 -1.468,-0.083 -2.184,0.043c-1.1,0.196 -2.005,1.107 -3.118,1.263c-1.271,0.177 -8.172,-0.79 -8.332,-0.697c-0.262,0.154 -0.369,1.354 -0.268,1.654c1.109,3.25 6.001,3.975 6.683,7.31c0.558,2.725 -3.463,4.589 -3.252,5.831c0.063,0.37 0.468,2.435 0.58,2.653c0.263,0.516 4.025,0.704 4.633,1.001c0.37,0.18 0.641,0.716 0.98,0.826c0.855,0.279 2.871,0.122 3.743,0c2.479,-0.345 4.287,-2.786 6.995,-1.653c5.467,2.288 4.608,4.79 6.684,6.309c0.297,0.218 1.026,0.204 1.336,0.305c1.432,0.466 2.488,-2.355 4.01,-2.567c1.235,-0.173 2.078,1.044 3.207,1.044c2.244,0 4.434,-3.144 3.476,-3.611c-0.693,-0.339 -1.519,-0.167 -2.183,-0.653c-0.496,-0.364 -4.784,-6.238 -4.812,-6.483c-0.114,-1.004 0.39,-1.762 0.98,-2.567c3.103,-4.244 3.956,-3.737 8.51,-5.961c0.411,-0.201 0.344,-0.9 0.624,-1.219c0.349,-0.397 1.2,-0.63 1.381,-1.044c0.188,-0.429 -0.16,-1.081 0.045,-1.479c0.619,-1.21 2.546,-1.666 3.252,-2.871c0.223,-0.38 -0.041,-0.837 0.09,-1.219c0.409,-1.2 2.249,-1.606 2.494,-3.046c0.092,-0.537 -0.852,-1.193 -0.668,-2.088c0.254,-1.239 1.425,-1.955 1.827,-3.133c0.104,-0.306 -0.901,-0.119 -1.07,-0.174c-0.59,-0.192 -1.206,-0.775 -1.693,-1.131c-0.721,-0.528 -1.858,-0.466 -2.495,-1.088c-0.444,-0.435 -0.085,-0.994 -0.312,-1.436c-0.264,-0.515 -1.159,-0.612 -1.292,-1.262c-0.048,-0.233 -0.313,-4.566 -0.311,-4.568c2.922,-4.282 9.082,1.187 11.628,-3.785c0.381,-0.746 -3.26,-1.755 -3.609,-2.437c-1.082,-2.113 -6.39,-5.389 -9.044,-4.525c-1.267,0.412 -2.451,1.077 -3.743,1.392c-0.608,0.148 -1.347,-0.065 -1.916,0.174c-1.395,0.584 -4.465,2.44 -3.698,4.438c0.51,1.329 2.908,3.168 2.228,4.83c-0.132,0.322 -4.071,2.999 -5.213,5.787c-0.873,2.131 0.123,4.971 -1.649,6.701c-1.15,1.123 -2.302,-1.183 -3.742,-0.48c-1.712,0.836 -3.093,2.25 -4.812,3.09c-1.035,0.505 -0.342,1.523 -0.847,2.262c-1.385,2.03 -3.018,3.225 -5.213,4.178" style="fill:#17583e;fill-rule:nonzero;"/><path id="India" d="M221.545,207.327c-0.948,-0.047 -1.116,-0.783 -1.552,-1.379c-0.624,-0.853 -1.273,-1.459 -1.552,-2.549c-0.09,-0.351 -0.115,-1.251 0,-1.585c0.25,-0.736 0.832,-1.411 1.128,-2.136c0.182,-0.444 0.945,-5.926 0.776,-6.2c-3.031,-4.935 -1.98,-2.391 -5.432,-3.515c-0.583,-0.19 -1.005,-0.844 -1.623,-0.965c-0.961,-0.187 -2.961,3.114 -3.88,3.652c-3.528,2.067 -7.78,-0.444 -9.244,0.413c-1.23,0.722 -0.276,1.272 0.212,2.068c0.473,0.769 -0.17,1.738 0.494,2.549c2.199,2.684 4.084,2.282 5.927,3.721c0.366,0.286 0.366,1.107 0.282,1.516c-0.181,0.881 -1.364,1.63 -1.552,2.549c-0.242,1.178 1.042,2.1 0.565,3.031c-0.58,1.132 -1.855,1.615 -2.541,2.619c-0.28,0.411 -0.163,1.13 -0.423,1.447c-1.202,1.468 -2.066,2.203 -2.822,3.927c-0.72,1.641 -1.757,1.716 -2.893,2.825c-0.553,0.54 -0.647,1.387 -1.2,1.792c-3.491,2.558 -5.251,0.654 -6.772,5.856c-0.557,1.901 2.652,4.843 3.95,5.857c0.44,0.343 1.337,-0.04 1.764,0.483c0.219,0.266 0.119,0.747 0.353,1.033c0.322,0.393 0.927,1.713 0.423,2.205c-0.168,0.164 -0.585,0.126 -0.776,0.276c-0.804,0.628 -1.098,1.669 -2.117,2.066c-2.781,1.087 -4.604,-0.612 -6.42,2.343c-0.197,0.32 -0.439,0.89 -0.353,1.309c0.079,0.383 0.886,0.927 1.199,1.172c3.6,2.812 4.729,-2.113 6.774,0.551c1.029,1.34 -3.421,2.375 -3.951,2.894c-0.289,0.282 0.51,0.489 0.564,0.62c0.603,1.47 0.572,3.827 2.61,4.823c2.351,1.147 4.187,0.651 6.139,-0.62c0.308,-0.201 0.926,-0.393 1.129,-0.689c0.303,-0.444 -0.789,-1.974 -0.353,-2.825c0.365,-0.712 2.624,-1.092 3.316,-0.551c0.48,0.374 0.593,1.392 0.777,1.929c1.604,4.701 0.052,6.022 0.705,9.853c0.15,0.875 0.458,1.752 0.635,2.618c0.187,0.912 -0.115,1.917 0.071,2.825c0.207,1.013 0.742,1.812 1.128,2.757c0.691,1.685 0.862,3.515 1.835,5.098c1.448,2.356 3.595,4.472 4.798,6.822c1.071,2.09 2.063,7.955 3.457,10.679c1.144,2.236 4.051,6.375 4.657,7.855c1.908,4.66 0.111,8.801 6.35,10.542c2.003,0.559 3.039,-2.329 3.809,-3.583c1.678,-2.729 3.363,-5.12 4.022,-8.337c0.556,-2.713 -0.328,-5.474 0.071,-8.2c0.347,-2.371 1.644,-4.126 1.27,-6.683c-0.181,-1.238 -1.486,-1.467 -1.693,-2.48c-0.029,-0.143 -0.335,-0.608 -0.212,-0.758c0.463,-0.565 1.933,-1.733 2.681,-2.756c1.788,-2.444 4.991,-4.004 7.267,-5.857c1.376,-1.12 1.882,-3.137 3.245,-4.203c1.241,-0.969 2.81,-1.779 3.952,-2.894c0.551,-0.538 0.598,-1.789 1.129,-2.411c0.795,-0.932 1.93,-1.816 2.822,-2.688c0.994,-0.971 4.939,-1.52 4.939,-3.169c0,-2.406 -0.618,-4.143 2.187,-5.512c1.148,-0.561 5.037,-0.578 5.786,-1.31c0.897,-0.875 -1.072,-3.068 -1.482,-3.789c-0.963,-1.693 0.485,-5.077 -0.141,-5.995c-1.045,-1.531 -5.06,-4.86 -3.88,-7.165c0.735,-1.435 5.264,-1.894 6.49,-0.896c1.265,1.029 0.871,3.545 3.105,4.272c1.579,0.513 5.947,-1.002 6.844,-0.345c0.131,0.096 0.226,0.621 0.282,0.758c1.268,3.095 -0.927,5.64 1.482,7.993c0.762,0.744 1.116,1.489 2.258,1.86c0.329,0.107 0.996,1.167 1.27,1.034c0.471,-0.231 0.036,-2.725 0.141,-3.239c0.155,-0.756 0.778,-1.107 1.058,-1.791c0.196,-0.477 0.01,-1.091 0.211,-1.585c0.906,-2.208 1.693,-4.476 2.47,-6.752c0.392,-1.146 -0.356,-2.678 0.071,-3.79c1.226,-3.193 4.84,-2.866 6.985,-4.961c0.07,-0.069 1.277,-2.198 1.27,-2.204c-0.342,-0.334 -1.59,0.222 -2.046,0c-0.43,-0.21 -0.576,-1.182 -0.918,-1.516c-1.046,-1.023 -3.35,-2.535 -4.939,-2.757c-5.354,-0.746 -6.386,1.645 -8.677,5.375c-0.687,1.117 -2.298,0.716 -3.246,1.378c-0.598,0.416 -0.181,1.683 -0.635,2.274c-0.958,1.246 -3.477,1.523 -4.869,2.067c-0.86,0.335 -1.66,-0.256 -2.469,-0.414c-0.544,-0.106 -2.574,-0.089 -3.034,-0.689c-0.126,-0.164 -0.007,-0.489 -0.211,-0.689c-0.251,-0.244 -0.709,-0.213 -0.848,-0.62c-0.614,-1.801 0.36,-3.348 -2.963,-3.996c-1.148,-0.225 1.075,4.286 0.635,4.822c-1.378,1.683 -3.922,2.928 -6.208,2.481c-1.216,-0.237 -2.107,-0.938 -3.247,-1.309c-1.047,-0.341 -2.353,-0.079 -3.386,-0.482c-1.979,-0.774 -4.128,-2.13 -6.279,-2.55c-0.685,-0.134 -1.431,0.065 -2.117,-0.069c-0.686,-0.134 -0.855,-0.491 -1.27,-0.896c-0.509,-0.496 -2.058,0.13 -2.751,-0.413c-2.935,-2.292 -7.336,-2.519 -10.373,-4.892c-0.113,-0.088 -0.913,-4.966 -0.705,-5.236c0.194,-0.253 2.216,-1.144 1.623,-1.723c-0.557,-0.544 -1.728,-0.571 -2.399,-0.965c-1.562,-0.914 -3.542,-2.146 -4.939,-3.169" style="fill:#c6d83c;fill-rule:nonzero;"/><path id="Nepal" d="M258.725,227.034c-2.425,-0.823 -4.979,-1.057 -7.488,-1.547c-1.085,-0.212 -1.888,-1.009 -2.921,-1.284c-3.216,-0.856 -6.396,-1.499 -9.575,-2.607c-1.241,-0.434 -5.458,-2.792 -7.155,-3.545c-0.507,-0.225 -1.478,-0.589 -1.877,-0.978c-0.462,-0.451 -0.674,-2.756 -0.313,-3.321c1.512,-2.361 4.003,-2.149 6.425,-1.262c0.689,0.252 1.844,0.292 2.419,0.712c1.027,0.752 1.544,2.013 2.566,2.812c0.701,0.548 1.978,0.763 2.796,1.243c0.532,0.311 1.401,0.011 2.002,0.142c1.817,0.394 3.851,1.409 5.715,1.243c0.85,-0.075 1.414,-0.98 2.295,-0.835c0.516,0.084 1.062,1.31 1.481,1.629c0.622,0.472 1.692,0.693 2.421,0.998c0.629,0.264 1.162,1.24 1.877,1.589c0.982,0.48 3.05,2.511 2.67,3.81c-0.056,0.191 -0.94,0.71 -1.126,0.855c-0.193,0.151 -0.459,0.693 -0.71,0.734c-0.106,0.017 -1.229,-0.444 -1.543,-0.509" style="fill:#4b96c0;fill-rule:nonzero;"/><path id="Bhutan" d="M273.909,226.296c-0.6,0.177 -0.859,0.644 -1.615,0.727c-0.775,0.084 -0.835,-0.694 -1.489,-0.895c-0.712,-0.22 -1.865,0.003 -2.462,-0.47c-2.246,-1.783 -0.398,-5.31 2.291,-4.785c1.415,0.275 1.544,1.079 2.496,1.845c1.471,1.182 4.096,2.82 0.756,3.5" style="fill:#17583e;fill-rule:nonzero;"/><path id="Bangladesh" d="M282.184,250.173c0.079,-3.221 -4.426,-5.291 -7.39,-4.4c-0.872,0.263 -2.035,1.379 -3.027,0.652c-2.722,-1.993 -0.747,-5.094 -2.193,-7.565c-0.558,-0.953 -0.928,-2.171 -1.621,-3.073c-0.836,-1.088 -1.973,-2.109 -2.599,-3.329c-0.129,-0.253 -0.141,-0.785 0.12,-0.954c0.674,-0.439 2.995,-1.053 3.79,-0.536c1.169,0.762 0.446,3.833 2.503,4.586c1.002,0.368 3.32,1.309 4.338,1.024c0.564,-0.157 2.467,-1.287 3.051,-0.907c1.245,0.811 -0.098,4.11 0.286,5.423c0.561,1.918 2.829,4.757 4.673,5.657c0.277,0.136 2.504,0.469 2.526,0.512c0.718,1.404 -3.5,2.583 -4.291,2.794" style="fill:#f5e158;fill-rule:nonzero;"/><path id="China" d="M358.434,258.15c-1.608,-0.337 -2.83,-0.286 -3.988,0.732c-0.72,0.632 -2.177,0.089 -2.633,1.068c-1.085,2.332 0.937,6.041 3.665,5.042c0.231,-0.084 4.971,-6.407 3.139,-6.743l-0.183,-0.099Zm-13.914,-148.455c3.195,0.006 6.138,1.127 9.208,1.794c0.608,0.132 1.133,0.681 1.568,0.765c0.941,0.184 1.684,-0.146 2.525,0.511c1.501,1.173 3.201,2.76 4.354,4.167c0.976,1.19 1.615,2.581 2.525,3.826c0.519,0.709 1.646,1.005 2.091,1.871c0.336,0.658 0.64,1.477 1.218,2.042c1.614,1.576 4.663,2.257 4.964,2.551c0.229,0.223 0.232,0.642 0.61,0.766c1.085,0.352 2.261,0.82 3.396,1.19c0.883,0.287 5.635,0.338 6.705,0.935c0.467,0.26 4.59,3.247 4.79,3.572c0.945,1.538 0.671,2.575 3.135,2.977c1.427,0.231 7.417,-1.986 8.36,-2.722c0.323,-0.252 0.024,-0.782 0.348,-1.021c0.102,-0.074 1.577,-0.234 1.742,-0.17c0.504,0.198 0.827,0.91 1.307,1.191c0.201,0.118 0.797,-0.157 0.957,0c0.555,0.542 -0.174,3.046 -0.174,3.657c0,0.552 -0.494,3.089 -0.087,3.486c0.241,0.236 1.472,-0.267 1.654,0c0.124,0.181 -0.506,1.073 -0.609,1.276c-0.191,0.373 0.144,1.379 -0.262,1.616c-0.585,0.343 -5.569,2.829 -5.66,2.977c-0.275,0.446 0.556,0.405 0.697,0.68c0.512,1 0.664,2.243 1.219,3.146c0.145,0.236 0.561,0.164 0.697,0.34c0.324,0.423 -0.095,1.829 0,2.381c0.043,0.259 1.298,1.453 0.783,1.957c-0.988,0.964 -3.093,0.868 -3.831,1.445c-1.558,1.217 -2.066,3.602 -3.919,4.507c-1.271,0.621 -2.686,-1.119 -3.657,-0.17c-0.984,0.96 -0.714,1.7 -1.132,2.722c-0.362,0.882 -1.966,1.238 -2.613,1.871c-0.348,0.34 0.027,0.693 -0.174,1.02c-0.65,1.056 -2.464,1.802 -3.484,2.466c-0.507,0.33 -0.205,0.882 -0.609,1.275c-2.31,2.256 -5.379,0.708 -6.967,-1.36c-0.547,-0.712 0.724,-1.912 0.436,-2.381c-0.335,-0.544 -1.091,-0.63 -1.481,-1.105c-0.113,-0.139 -0.08,-0.589 -0.174,-0.681c-0.461,-0.45 -1.452,-0.06 -1.742,-0.765c-0.239,-0.586 -3.271,2.522 -3.744,3.061c-0.837,0.955 -1.944,1.822 -2.699,2.806c-0.392,0.51 -0.379,1.192 -0.958,1.616c-0.566,0.414 -1.918,0.542 -2.264,1.106c-0.921,1.499 2.108,2.321 2.264,3.232c0.33,1.934 4.808,4.259 5.399,3.826c0.694,-0.508 1.171,-1.452 2.176,-1.615c1.839,-0.3 10.223,1.805 10.973,2.72c0.249,0.304 -1.615,0.983 -1.915,1.276c-1.036,1.011 -2.057,2.043 -2.961,3.147c-0.286,0.349 -0.82,0.213 -1.133,0.595c-0.611,0.746 -1.11,2.509 -1.828,2.977c-0.402,0.261 -1.524,0.465 -1.306,1.105c0.906,2.658 3.572,2.342 4.528,3.742c0.77,1.129 1.87,2.153 2.09,3.657c0.067,0.461 -0.053,0.832 0.174,1.276c0.746,1.458 2.163,2.45 3.222,3.656c0.414,0.471 0.502,1.081 0.958,1.616c0.738,0.865 3.971,2.317 4.441,2.892c0.307,0.375 0.235,1.053 0.436,1.445c0.175,0.343 0.773,0.711 0.609,1.191c-0.298,0.875 -3.883,1.055 -2.003,2.891c1.274,1.244 4.192,-0.352 5.487,0.595c1.025,0.752 -0.868,4.323 -1.046,5.188c-0.188,0.918 0.092,2.2 -0.261,3.061c-0.687,1.679 -1.693,3.459 -2.003,5.273c-0.62,3.637 -0.909,7.177 -2.874,10.375c-0.875,1.425 -2.777,1.86 -3.831,3.147c-0.499,0.609 -0.408,1.589 -0.958,2.125c-0.903,0.883 -2.522,1.555 -3.657,1.871c-1.463,0.409 -2.411,1.746 -3.919,1.956c-3.341,0.467 -6.612,-0.756 -9.84,0.596c-1.328,0.556 -7.385,4.833 -8.708,5.867c-0.321,0.251 -0.937,1.521 -0.959,1.531c-0.284,0.139 -2.04,0.152 -2.351,0c-0.779,-0.381 0.26,-2.254 -1.045,-2.891c-0.872,-0.426 -2.055,-1.639 -2.96,-1.786c-2.584,-0.42 -2.832,1.126 -5.661,-0.255c-0.757,-0.369 -4.386,-2.598 -4.702,-3.062c-1.66,-2.431 -2.637,-4.035 -6.009,-3.487c-2.161,0.352 -4.193,1.93 -6.444,2.297c-1.934,0.314 -4.039,-0.528 -5.922,0.085c-2.906,0.946 -0.176,4.084 -0.957,4.848c-0.501,0.488 -6.553,-0.324 -7.228,-0.851c-0.512,-0.4 -0.498,-1.569 -0.784,-2.126c-0.821,-1.604 -2.036,-3.331 -3.135,-4.763c-1.503,-1.957 -5.18,-2.076 -5.748,-4.847c-0.465,-2.27 1.202,-4.354 2.351,-6.038c0.458,-0.67 0.188,-2.245 0,-2.976c-0.165,-0.649 0.024,-1.309 -0.087,-1.956c-0.22,-1.293 -3.7,-3.443 -4.702,-4.423c-0.297,-0.29 0.071,-0.95 -0.261,-1.275c-1.012,-0.988 -3.323,-1.142 -4.615,-1.615c-1.907,-0.699 -4.904,-3.588 -6.619,-3.828c-2.551,-0.356 -5.855,1.205 -7.924,2.552c-1.594,1.037 -4.343,5.302 -6.096,5.017c-0.877,-0.142 -3.505,-3.088 -4.093,-3.231c-1.473,-0.36 -4.705,-0.592 -5.747,0.765c-0.123,0.16 0.159,1.479 0,1.53c-0.77,0.251 -1.507,-1.5 -1.742,-1.615c-0.328,-0.16 -2.612,-0.17 -2.874,0.085c-0.236,0.231 -0.157,0.85 -0.609,0.85c-1.381,0 -5.132,-3.926 -6.618,-4.507c-1.064,-0.415 -4.991,0.612 -6.88,0.085c-4.367,-1.218 -4.692,-1.863 -8.186,-4.592c-0.538,-0.42 -1.45,-0.481 -1.829,-0.851c-1.072,-1.047 -4.437,-0.112 -5.834,-0.34c-2.315,-0.376 -5.82,-2.389 -7.838,-3.571c-0.403,-0.237 -0.625,-0.816 -1.044,-1.021c-0.364,-0.178 -0.906,0.111 -1.307,-0.085c-0.611,-0.298 -0.918,-1.723 -0.783,-2.381c0.217,-1.061 1.139,-3.022 1.219,-3.487c0.121,-0.71 -0.436,-1.142 -0.436,-1.87c0,-1.966 0.394,-4.371 0,-6.294c-0.133,-0.648 -0.808,-1.709 -1.219,-2.21c-1.802,-2.201 -6.522,-2.789 -9.231,-3.317c-1.246,-0.244 -1.813,-1.435 -2.525,-1.956c-0.609,-0.447 -1.823,-0.282 -2.525,-0.511c-1.67,-0.543 -2.829,-2.267 -4.18,-3.147c-0.62,-0.403 -1.692,-0.477 -2.264,-0.85c-0.15,-0.097 0.039,-1.423 0,-1.615c-0.147,-0.714 -0.756,-1.467 -1.045,-2.126c-0.847,-1.929 -2.42,-4.234 -3.919,-5.699c-0.298,-0.29 -0.956,-0.422 -1.132,-0.595c-0.291,-0.284 2.041,-1.907 2.352,-2.21c0.407,-0.399 2.597,-1.21 3.134,-0.51c0.565,0.735 -0.048,0.935 1.219,0.935c1.246,0 10.073,-4.734 11.059,-5.698c0.753,-0.735 1.304,-1.781 1.829,-2.637c0.653,-1.061 0.102,-2.374 0.523,-3.401c1.017,-2.483 0.994,-0.67 0.435,-3.402c-0.037,-0.182 -0.017,-0.526 -0.174,-0.68c-0.78,-0.762 -0.78,-1.653 -1.393,-2.552c-0.201,-0.294 -0.706,-0.071 -0.958,-0.169c-0.483,-0.189 -0.803,-2.42 -0.61,-2.891c0.184,-0.449 0.848,-0.635 1.046,-1.021c0.524,-1.024 3.101,-0.674 3.744,-1.616c1.629,-2.387 -0.132,-4.172 3.309,-5.612c0.583,-0.245 0.824,0.199 1.132,0.424c0.095,0.07 4.521,-0.267 5.138,-1.02c1.454,-1.774 0.113,-5.97 1.393,-6.804c0.164,-0.105 0.603,0.047 0.697,0c0.061,-0.029 0.9,-0.743 1.045,-0.85c0.264,-0.193 -0.074,-1.287 0.522,-1.19c0.451,0.073 0.189,0.414 0.436,0.595c0.286,0.209 1.013,-0.077 1.393,0.17c1.173,0.764 2.111,1.892 2.961,2.721c1.435,1.402 6.914,2.33 8.273,3.657c1.231,1.202 1.589,3.175 2.612,4.507c1.161,1.511 2.781,3.516 4.268,4.678c0.518,0.405 1.35,0.323 1.915,0.765c0.278,0.218 0.34,0.64 0.61,0.851c1.798,1.405 7.845,0.199 10.275,0.595c1.363,0.221 2.453,1.811 3.571,2.466c0.73,0.428 1.696,0.333 2.438,0.85c3.804,2.654 3.751,4.174 6.444,6.804c0.544,0.531 4.699,0.043 5.486,-0.085c0.671,-0.109 1.244,-0.571 1.916,-0.68c1.456,-0.238 3.792,-0.195 5.225,0.085c0.337,0.066 0.165,0.436 0.435,0.595c0.644,0.376 2.437,0.212 3.222,0.34c3.804,0.619 7.409,2.69 11.408,2.466l0,-0.17c0.673,1.97 5.128,1.334 7.054,1.02c0.686,-0.111 1.268,-0.44 1.844,-0.782l0.23,-0.137c0.576,-0.341 1.159,-0.67 1.845,-0.781c0.919,-0.15 1.863,-0.126 2.787,-0.256c1.203,-0.168 1.914,-1.176 3.047,-1.36c1.881,-0.306 9.566,-0.052 10.45,-2.211c0.142,-0.348 0.454,-0.639 0.61,-1.021c0.108,-0.266 -0.436,-5.953 -0.61,-6.292c-0.191,-0.375 -1.142,-0.53 -0.871,-1.191c0.131,-0.319 0.855,-0.545 1.132,-0.68c0.54,-0.264 0.276,-0.525 0.523,-0.766c0.695,-0.678 1.661,2.352 2.003,2.296c1.691,-0.275 3.549,-1.478 5.051,-2.211c1.291,-0.631 2.671,-1.317 3.831,-2.126c1.314,-0.917 3.45,-3.84 5.225,-3.147c1.06,0.415 1.907,-0.564 2.786,-0.85c1.221,-0.397 2.018,0.11 3.222,-0.595c0.17,-0.1 1.559,-0.836 1.307,-1.02c-0.374,-0.275 -1.377,-0.485 -1.655,-0.936c-0.266,-0.434 -0.398,-0.737 -0.87,-1.106c-0.412,-0.321 -1.378,-0.314 -1.655,-0.765c-0.159,-0.258 0.205,-0.458 -0.174,-0.68c-0.8,-0.469 -2.493,0.232 -3.396,0.085c-0.576,-0.094 -2.802,-0.588 -3.135,-1.021c-0.114,-0.148 0.154,-0.563 -0.087,-0.68c-1.284,-0.627 -2.58,0.725 -3.658,0.935c-1.048,0.205 -4.993,-3.826 -5.138,-4.677c-0.11,-0.642 1.044,-1.215 1.568,-1.361c3.112,-0.868 4.951,-0.645 6.182,-4.252c0.35,-1.023 -0.435,-1.202 -0.435,-2.211c0,-0.622 0.321,-1.286 0.696,-1.531c0.209,-0.135 -0.249,-3.695 -0.435,-3.996c-0.537,-0.876 -2.398,-4.487 -1.915,-5.273c0.458,-0.747 2.857,-1.008 3.657,-1.106c0.523,-0.063 1.038,-0.093 1.547,-0.093l0.043,0Z" style="fill:#f5e158;fill-rule:nonzero;"/><path id="North-Korea" d="M400.709,174.972c-1.581,0.165 -1.561,2.87 -3.054,3.235c-0.026,0.006 -1.699,-1.192 -2.406,-1.364c-1.055,-0.258 -2.997,0.566 -3.598,-0.607c-0.959,-1.874 3.627,-3.042 -0.751,-5.485c-0.611,-0.341 -3.969,-1.043 -3.416,-2.123c0.071,-0.139 0.424,-0.186 0.544,-0.303c0.257,-0.252 -0.04,-0.745 0.258,-1.037c0.776,-0.756 1.711,-1.366 2.511,-2.148c0.662,-0.646 0.64,-2.201 1.475,-2.527c1.426,-0.557 0.302,1.531 3.908,-0.581c1.119,-0.656 2.77,-3.362 3.08,-3.514c0.558,-0.272 3.388,-1.24 3.804,-0.834c1.053,1.028 -0.592,2.369 -0.957,3.261c-0.657,1.603 2.148,2.932 1.837,4.448c-0.049,0.243 -0.485,0.439 -0.596,0.708c-0.072,0.177 -0.033,0.767 -0.128,0.884c-0.768,0.937 -4.116,1.126 -4.555,2.199c-1.623,3.96 2.592,3.593 4.114,5.08c0.395,0.385 -1.65,0.733 -1.94,0.733" style="fill:#4b96c0;fill-rule:nonzero;"/><path id="South-Korea" d="M407.797,177.446c-0.348,-0.157 -0.834,-0.198 -1.136,-0.434c-0.423,-0.33 -0.792,-1.388 -1.401,-1.507c-0.242,-0.047 -3.858,0.958 -4.134,1.092c-0.407,0.199 -2.006,2.111 -1.792,2.633c0.426,1.041 2.111,1.957 2.892,2.72c0.438,0.428 0.127,1.086 0.444,1.472c0.172,0.211 0.946,0.48 0.993,0.711c0.116,0.564 -0.282,1.625 0.018,2.114c0.973,1.584 0.538,1.144 1.046,2.633c0.142,0.415 0.764,0.539 0.834,0.953c0.122,0.714 -0.149,2.342 0.586,2.772c0.144,0.084 8.623,-3.755 9.119,-4.4c0.235,-0.306 0.371,-0.863 0.283,-1.248c-0.121,-0.534 -1.018,-0.925 -1.294,-1.42c-0.691,-1.237 -1.274,-3.923 -2.058,-4.817c-0.329,-0.374 -1.728,-0.413 -2.271,-0.779c-0.998,-0.676 -1.358,-1.874 -2.236,-2.599" style="fill:#c5d83b;fill-rule:nonzero;"/><path id="Taiwan" d="M399.066,246.215c0.043,-0.369 -0.083,-0.752 0.015,-1.117c0.123,-0.455 0.702,-0.644 0.938,-1.07c0.408,-0.741 1.037,-4.572 0.952,-5.398c-0.066,-0.644 -0.838,-0.871 -0.889,-1.567c-0.028,-0.386 0.244,-2.218 -0.032,-2.42c-0.821,-0.602 -2.389,1.109 -2.811,1.567c-0.883,0.957 -0.586,1.41 -1.048,2.404c-0.313,0.673 -0.864,1.174 -1.192,1.815c-0.636,1.243 0.582,1.668 0.747,2.792c0.073,0.501 -0.008,1.257 0.222,1.706c0.46,0.899 3.428,3.502 3.288,1.04" style="fill:#c5d83b;fill-rule:nonzero;"/><path id="Japan" d="M427.74,206.011c-1.23,-0.134 -2.481,-3.79 -3.018,-5.014c-0.463,-1.056 -2.022,-1.395 -2.639,-2.299c-0.278,-0.407 1.062,-2.182 1.504,-2.135c0.835,0.091 0.646,0.898 1.306,1.22c0.871,0.425 1.89,0.221 2.694,0.693c1.374,0.804 -0.098,2.256 1.93,3.907c1.412,1.149 -2.081,2.449 -1.777,3.628c0.006,0 0.012,0.001 0.018,0.001l0,0.055c-0.007,-0.018 -0.013,-0.037 -0.018,-0.056Zm8.871,-10.389c-0.996,-1.839 -2.688,0.311 -3.32,0.665c-0.282,0.156 -1.195,0.048 -1.334,0.387c-0.307,0.75 0.153,1.198 0.369,1.829c0.128,0.374 -0.053,0.975 0.199,1.303c1.302,1.695 3.972,-2.894 3.972,-4.129l0.114,-0.055Zm6.307,1.211c-1.306,-0.837 -1.168,-2.584 -2.08,-3.622c-2.073,-2.362 -6.63,-1.444 -9.136,-0.554c-1.05,0.373 -2.221,0.142 -3.235,0.637c-0.665,0.325 -3.45,0.773 -3.773,-0.332c-0.016,-0.055 4.192,-3.329 4.596,-3.658c5.215,-4.244 3.037,0.222 7.462,-1.219c3.461,-1.127 5.951,-4.367 8.739,-6.484c0.441,-0.334 1.019,-0.188 1.447,-0.554c0.836,-0.714 0.539,-1.482 0.937,-2.355c0.382,-0.84 1.268,-1.947 1.419,-2.826c0.598,-3.509 -2.826,-6.213 -3.973,-9.2c-0.599,-1.558 0.68,-3.256 2.468,-2.383c0.792,0.387 0.744,1.217 1.391,1.69c0.82,0.601 2.032,0.489 2.78,1.219c0.348,0.34 0.066,0.957 0.313,1.358c0.531,0.866 2.71,4.217 2.837,4.96c0.214,1.257 -1.674,3.339 -0.965,5.071c0.236,0.575 1.017,0.873 1.22,1.468c0.132,0.386 -0.072,0.882 0.028,1.275c0.11,0.425 0.614,0.448 0.795,0.803c0.122,0.237 -0.068,0.569 0.029,0.804c0.771,1.883 1.475,2.072 -0.114,3.935c-0.221,0.258 -0.217,0.711 -0.454,0.941c-1.115,1.09 -4.208,2.923 -5.703,3.215c-1.367,0.267 -4.746,-0.586 -5.703,0.582c-0.061,0.075 -1.047,4.284 -1.325,5.229c0.034,0.021 0.069,0.042 0.105,0.063l-0.142,0.056c0.01,-0.031 0.023,-0.071 0.037,-0.119Zm-0.083,-35.531c-0.759,-0.282 -1.535,-0.843 -1.936,-1.57c-0.319,-0.58 -0.057,-1.294 -0.376,-1.84c-0.523,-0.893 -1.615,-1.42 -1.306,-2.625c0.859,-3.357 3.324,-2.266 1.306,-6.208c-0.115,-0.225 -2.33,-3.527 -1.708,-3.73c0.059,-0.019 1.461,1.042 1.632,1.153c2.93,1.907 3.936,3.59 7.337,5.251c0.69,0.338 2.401,-0.741 5.754,0.663c0.283,0.118 2.659,1.139 2.286,1.595c-0.164,0.2 -0.678,0.061 -0.904,0.171c-0.658,0.322 -0.906,1.057 -1.357,1.497c-0.252,0.246 -0.788,0.192 -0.98,0.442c-0.435,0.566 -0.146,1.701 -0.88,2.11c-0.853,0.476 -3.35,-0.383 -4.296,-0.515c-1.103,-0.154 -2.036,-1.914 -3.392,-1.251c-3.269,1.596 -0.113,3.876 -1.206,4.588l0.026,0.269Z" style="fill:#17583e;fill-rule:nonzero;"/><path id="Mongolia" d="M305.703,159.773c2.456,1.494 5.271,-1.859 7.784,-2.35c1.274,-0.248 2.99,0.38 4.199,-0.091c0.419,-0.164 0.693,-0.707 1.037,-0.876c1.079,-0.526 3.27,0.152 4.482,-0.046c1.293,-0.21 1.706,-1.522 2.878,-1.751c0.512,-0.1 1.767,0.004 2.124,-0.461c0.154,-0.2 0.006,-0.596 0.046,-0.829c0.128,-0.749 0.418,-1.811 0.047,-2.533c-0.204,-0.399 -2.729,-3.263 -2.595,-3.594c0.383,-0.932 4.769,-3.147 5.945,-2.764c0.808,0.263 0.309,1.93 1.699,1.705c1.07,-0.175 2.479,-1.534 3.491,-2.028c1.447,-0.707 2.825,-1.037 4.198,-1.843c0.191,-0.112 0.414,-0.635 0.614,-0.829c1.388,-1.356 2.763,-2.718 4.812,-2.718c0.737,0 2.015,-0.084 1.651,-1.152c-0.517,-1.515 -3.464,-1.641 -4.907,-1.843c-0.689,-0.096 -1.117,-0.481 -1.651,-0.829c-0.17,-0.11 0.101,-1.059 -0.236,-1.059c-0.088,0 -0.129,0.474 -0.33,0.552c-1.207,0.472 -2.796,1.008 -4.104,0.461c-0.531,-0.223 -0.679,-0.748 -1.133,-1.013c-0.638,-0.375 -1.529,0.087 -1.745,-0.968c-0.243,-1.187 -1.409,-2.266 -1.604,-3.409c-0.131,-0.764 0.66,-1.271 0.66,-1.797c0,-0.054 -0.483,-0.104 -0.566,-0.138c-0.487,-0.204 -0.879,-0.637 -1.368,-0.876c-0.929,-0.453 -4.698,0.718 -5.048,-0.138c-0.418,-1.021 -3.201,-1.754 -4.246,-1.244c-0.465,0.227 -0.774,0.793 -1.321,1.06c-1.857,0.906 -8.184,3.133 -10.189,2.35c-1.407,-0.55 -2.277,-1.851 -3.869,-2.074c-1.302,-0.181 -4.398,0.389 -5.425,-0.415c-2.278,-1.779 -3.072,-1.612 -5.897,-2.072c-0.762,-0.124 -1.337,-0.674 -2.124,-0.784c-1.797,-0.25 -5.612,1.798 -7.925,0.83c-1.926,-0.807 -4.187,-2.049 -5.803,-3.364c-0.874,-0.711 -2.167,-0.712 -3.019,-1.336c-0.504,-0.368 -0.628,-1.013 -1.179,-1.335c-1.337,-0.784 -3.862,-0.506 -5.379,-0.692c-1.185,-0.144 -1.869,-1.155 -3.066,-0.921c-0.526,0.103 -0.372,0.238 -0.613,0.553c-0.223,0.29 -1.699,0.378 -1.699,0.875c0,0.391 4.101,3.92 1.652,6.311c-1.365,1.333 -5.862,2.493 -7.879,1.705c-0.711,-0.277 -1.297,-1.094 -2.076,-1.474c-0.832,-0.407 -1.953,-0.256 -2.83,-0.599c-5.062,-1.977 -9.618,-3.018 -14.342,0.277c-0.939,0.655 -7.709,4.569 -7.312,5.344c0.107,0.211 1.047,-0.047 1.274,0.138c1.629,1.326 2.614,2.573 4.434,3.639c1.201,0.704 2.75,-0.308 3.869,0.784c1.373,1.34 2.879,2.673 4.198,3.962c0.716,0.698 1.197,2.103 1.746,2.994c1.105,1.799 4.655,4.301 6.51,5.206c2.096,1.024 3.999,-0.773 4.907,-0.921c0.76,-0.124 4.603,1.638 5.424,2.12c0.867,0.506 1.538,1.239 2.454,1.75c1.03,0.575 2.396,0.72 3.302,1.428c1.732,1.352 3.685,5.116 5.803,5.805c0.867,0.282 3.336,0.453 4.198,0.092c0.613,-0.256 0.918,-0.787 1.604,-0.921c2.912,-0.569 6.547,1.06 7.973,1.06c3.839,0 9.726,2.048 13.445,3.086c0.613,0.171 2.613,0.708 3.02,0.046" style="fill:#c5d83b;fill-rule:nonzero;"/><path id="Myanmar" d="M304.208,270.732c-2.422,1.776 -3.347,5.435 -6.884,4.399c-0.492,-0.144 -1.065,-0.279 -1.417,-0.692c-1.701,-1.993 0.193,-4.733 -0.354,-6.871c-0.478,-1.866 -2.215,-3.48 -2.936,-5.24c-0.403,-0.985 -0.204,-2.165 -0.759,-3.114c-1.884,-3.219 -6.432,-3.019 -7.491,-4.745c-0.243,-0.394 -1.455,-2.332 -1.317,-2.669c0.257,-0.626 4.073,-0.932 4.809,-3.807c0.413,-1.614 -1.265,-2.867 -0.911,-4.596c0.29,-1.418 1.596,-2.934 2.176,-4.35c1.261,-3.078 0.971,-6.87 2.227,-9.936c0.28,-0.682 1.525,-1.849 2.177,-2.274c1.3,-0.846 3.051,-1.349 4.201,-2.471c0.3,-0.294 1.218,-1.447 1.569,-1.533c0.083,-0.02 3.292,1.356 3.594,1.533c1.431,0.838 3.462,5.262 2.531,6.475c-0.79,1.029 -4.158,5.675 -3.24,7.019c1.652,2.42 4.636,3.292 6.732,5.339c2.08,2.03 2.013,5.465 4.404,7.217c0.968,0.709 2.469,0.087 3.341,0.939c0.412,0.402 -1.066,2.759 -1.468,2.917c-1.292,0.504 -2.258,2.245 -3.442,3.114c-1.161,0.851 -2.525,0.915 -3.493,2.174c-0.705,0.919 -1.072,1.908 -1.771,2.817c-0.274,0.358 -0.427,1.504 -0.253,1.929c0.318,0.775 1.076,1.46 1.468,2.224c0.833,1.627 1.345,3.234 2.024,4.893c0.36,0.879 1.396,1.501 1.823,2.472c0.698,1.592 0.418,3.834 0.708,5.537c0.932,5.461 5.04,12.016 2.733,17.646c-0.183,0.45 -0.566,2.499 -1.062,2.62c-0.223,0.055 -0.152,-1.781 -0.152,-2.026c0,-2.479 0.951,-5.046 0.456,-7.464c-0.51,-2.485 -2.59,-3.681 -3.392,-6.031c-0.513,-1.502 -0.392,-3.248 -0.709,-4.795c-0.078,-0.383 -0.489,-0.369 -0.658,-0.643c-0.464,-0.755 -0.763,-2.286 -1.063,-3.163c-0.382,-1.121 0.086,-2.491 -0.708,-3.46c-0.83,-1.013 -2.089,-1.049 -3.291,-1.384" style="fill:#17583e;fill-rule:nonzero;"/><path id="Laos" d="M319.38,251.628c-1.332,-0.201 -0.889,0.413 -1.168,1.14c-0.167,0.436 -0.648,0.72 -0.74,1.167c-0.07,0.342 -0.069,0.971 0.057,1.278c0.13,0.318 0.635,0.253 0.797,0.529c0.478,0.816 0.564,1.812 1.11,2.613c0.554,0.81 1.563,0.655 1.907,2.168c0.384,1.688 -1.171,3.071 -0.768,4.254c0.175,0.514 0.841,0.878 1.053,1.5c0.078,0.227 0.077,1.009 0.341,1.112c1.259,0.492 1.713,-1.792 2.421,-2.252c1.201,-0.782 2.045,0.045 3.102,0.39c0.476,0.155 0.657,-0.421 1.081,-0.473c1.093,-0.133 3.323,-0.447 4.328,-0.166c0.594,0.165 1.845,1.459 2.248,1.918c1.155,1.316 1.009,2.783 1.594,3.641c1.066,1.562 4.06,4.275 4.697,5.726c0.569,1.298 -0.741,2.396 -0.94,3.559c-0.32,1.873 0.513,3.674 2.762,3.307c0.594,-0.097 0.786,-0.725 1.366,-0.806c0.92,-0.128 2.2,0.034 3.075,-0.25c0.958,-0.312 0.943,-3.379 0.313,-3.891c-0.787,-0.64 -0.592,-1.39 -1.139,-2.058c-0.477,-0.582 -1.258,-0.611 -1.737,-1.195c-0.66,-0.807 -0.596,-1.639 -1.025,-2.474c-0.387,-0.758 -1.414,-1.357 -1.878,-2.113c-0.435,-0.708 -0.544,-2.144 -1.11,-2.696c-1.311,-1.28 -3.21,-1.439 -3.644,-3.559c-0.44,-2.15 -4.036,-2.162 -5.379,-3.474c-0.391,-0.381 -0.285,-1.919 -0.399,-2.474c-0.108,-0.527 -0.594,-0.781 -0.683,-1.307c-0.093,-0.54 0.176,-1.233 0,-1.75c-0.263,-0.771 -4.177,-2.565 -5.096,-3.642c-0.716,-0.841 -1.256,-3.963 -2.248,-4.448c-2.773,-1.355 0.52,4.02 -2.163,5.143c-0.738,0.308 -1.703,-0.045 -2.25,-0.445" style="fill:#8caa5c;fill-rule:nonzero;"/><path id="Cambodia" d="M336.993,299.861c0.465,-0.24 0.972,-0.413 1.428,-0.668c0.631,-0.352 1.016,-1.047 1.649,-1.433c0.7,-0.428 1.535,-0.203 2.191,-0.569c0.632,-0.353 0.878,-1.087 1.588,-1.433c2.019,-0.986 4.095,-1.315 5.589,-3.26c1.162,-1.513 1.243,-8.89 -1.508,-9.561c-1.903,-0.464 -3.937,2.072 -5.448,1.825c-0.371,-0.06 -0.841,-0.546 -1.146,-0.725c-0.905,-0.53 -1.862,-0.367 -2.774,-0.589c-2.001,-0.489 -3.469,-2.643 -6.374,-0.374c-4.505,3.519 -1.239,3.668 -0.623,6.676c0.229,1.119 -0.583,2.295 -0.382,3.278c0.016,0.08 2.816,4.38 3.096,4.654c0.983,0.96 1.206,3.279 2.754,2.179" style="fill:#4b96c0;fill-rule:nonzero;"/><path id="Vietnam" d="M342.362,306.578c0.984,-0.676 3.237,-1.289 3.875,-2.38c0.302,-0.514 -0.136,-1.246 0.111,-1.73c0.211,-0.411 0.797,-0.645 1.071,-1.046c0.126,-0.183 0.138,-1.076 0.296,-1.153c1.577,-0.771 3.288,-1.263 4.909,-2.055c0.468,-0.228 0.705,-0.76 1.145,-1.046c0.385,-0.25 1.073,0.114 1.402,-0.144c0.654,-0.511 0.499,-1.573 0.887,-2.235c0.75,-1.281 1.974,-4.397 1.365,-5.984c-0.141,-0.368 -0.629,-0.528 -0.738,-0.902c-0.223,-0.762 -0.124,-2.671 -0.591,-3.28c-0.545,-0.711 -0.432,-1.651 -0.775,-2.488c-1.236,-3.018 -2.723,-7.098 -4.91,-9.589c-1.955,-2.227 -3.125,-1.864 -4.688,-3.173c-0.854,-0.715 -4.714,-5.535 -5.464,-6.633c-0.19,-0.278 -0.086,-0.724 -0.295,-1.009c-0.36,-0.493 -1.105,-0.714 -1.329,-1.37c-0.676,-1.982 0.321,-1.638 0.996,-2.957c1.077,-2.102 -1.191,-1.874 1.994,-4.362c0.532,-0.415 1.132,-1.217 1.809,-1.405c0.293,-0.083 2.689,-0.42 1.624,-0.866c-1.344,-0.563 -4.106,-2.588 -5.316,-3.533c-2.088,-1.631 -1.323,-3.876 -5.315,-3.389c-1.581,0.193 -4.423,1.972 -7.089,2.343c-0.298,0.042 -1.269,0.22 -1.439,0.469c-1.411,2.066 3.579,5.422 4.762,6.345c2.777,2.169 1.643,5.895 2.363,6.597c0.117,0.115 3.399,1.481 4.872,2.92c0.741,0.724 1.084,1.729 1.735,2.524c0.627,0.765 1.616,1.062 2.252,1.839c0.728,0.887 0.978,2.077 1.698,2.956c1.585,1.934 5.478,6.925 6.202,9.049c0.348,1.016 -0.546,3.227 -0.332,3.749c0.221,0.537 0.878,0.888 1.181,1.406c0.434,0.741 0.193,1.84 0.518,2.631c1.035,2.53 0.608,6.419 -1.699,8.221c-0.646,0.505 -1.587,0.612 -2.326,0.973c-0.636,0.311 -6.416,3.564 -6.386,3.713c0.117,0.571 1.317,1.588 0.776,3.173c-0.3,0.877 -2.209,2.436 -0.186,3.425c0.6,0.292 0.945,0.541 1.551,0.288" style="fill:#c5d83b;fill-rule:nonzero;"/><path id="Thailand" d="M329.432,319.024c-0.487,-4.062 -6.437,-3.578 -8.366,-6.718c-0.789,-1.284 0.422,-3.316 -0.633,-4.758c-0.447,-0.611 -1.144,-1.008 -1.673,-1.525c-1.239,-1.209 -1.767,-3.656 -2.008,-5.301c-0.153,-1.048 0.836,-1.819 1.004,-2.797c0.143,-0.842 0.016,-1.753 0.298,-2.578c0.339,-0.996 0.892,-1.185 0.892,-2.397c0,-2.092 -2.719,-5.255 -0.335,-7.118c3.1,-2.422 5.961,4.903 8.887,4.903c0.435,0 1.865,1.085 2.269,0.69c1.526,-1.49 -3.009,-4.775 -0.856,-7.299c1.206,-1.413 4.322,-3.861 6.397,-3.523c0.651,0.106 3.403,1.852 3.793,1.598c0.127,-0.084 -0.244,-2.492 -0.186,-2.833c0.174,-1.02 1.675,-1.464 1.339,-2.615c-0.149,-0.51 -2.894,-3.087 -3.347,-3.885c-0.566,-0.993 -2.556,-5.485 -3.05,-5.846c-0.637,-0.468 -1.31,-1.025 -2.156,-1.163c-1.348,-0.219 -2.639,1.08 -3.905,1.235c-1.623,0.198 -2.268,-1.032 -3.459,0.363c-0.368,0.432 -2.039,2.402 -2.826,1.635c-0.403,-0.395 -0.506,-1.451 -0.855,-1.962c-2.819,-4.13 -0.147,-3.84 -0.669,-6.391c-0.048,-0.232 -0.87,-0.346 -1.078,-0.508c-0.663,-0.519 -0.654,-1.113 -1.041,-1.744c-0.31,-0.503 -1.007,-2.747 -1.6,-2.65c-1.074,0.175 -6.404,4.255 -7.586,5.12c-0.513,0.376 -0.612,1.451 -0.892,1.997c-0.894,1.745 1.378,3.056 1.859,4.467c0.54,1.582 1.243,3.354 2.083,4.83c0.454,0.798 1.636,1.27 1.784,2.287c0.234,1.6 -0.267,3.302 0,4.867c0.285,1.667 0.944,3.333 1.413,4.938c0.222,0.755 0.95,1.31 1.228,2.034c0.258,0.673 0.252,1.546 0.558,2.143c1.204,2.351 -0.272,9.65 -1.227,11.983c-0.316,0.772 -0.996,1.356 -1.265,2.143c-0.16,0.468 -0.172,1.1 -0.409,1.562c-0.492,0.961 -2.007,2.888 -1.153,4.14c0.632,0.925 3.072,0.949 3.347,1.307c0.218,0.283 0.398,0.572 0.707,0.835c1.119,0.957 2.598,1.992 3.532,3.087c0.659,0.772 0.677,1.776 1.525,2.396c0.314,0.231 0.925,-0.053 1.264,0.145c0.36,0.212 0.435,0.647 0.595,0.909c0.406,0.661 4.211,2.955 4.983,2.578c0.26,-0.127 0.586,-0.574 0.855,-0.762" style="fill:#f5e158;fill-rule:nonzero;"/><path id="Malasia" d="M379.81,338.664c-1.037,0.682 -2.363,-0.362 -3.624,0.048c-1.151,0.375 -2.185,1.332 -3.379,1.624c-0.4,0.097 -0.826,-0.077 -1.226,0.08c-0.452,0.177 -0.646,0.736 -1.117,0.851c-0.856,0.209 -1.728,0.146 -2.589,0.425c-0.916,0.299 -1.415,1.318 -2.588,0.745c-0.662,-0.323 -3.842,-3.37 -3.378,-3.671c0.747,-0.487 3.388,2.361 5.285,1.037c1.052,-0.733 1.283,-3.805 2.78,-4.975c0.234,-0.184 5.784,-2.167 6.539,-3.273c0.473,-0.693 2.533,-5.277 2.997,-5.427c1.274,-0.415 3.132,4.16 4.468,2.42c0.979,-1.275 2.001,-2.697 2.861,-4.097c0.321,-0.523 -0.672,-0.724 -0.299,-1.33c0.379,-0.619 4.148,-5.548 4.522,-5.694c1.344,-0.525 7.434,4.981 7.574,5.667c0.159,0.774 0.124,2.224 -0.272,2.9c-1.449,2.477 -5.353,-0.905 -7.738,-0.239c-7.228,2.017 -2.891,9.079 -9.536,12.133c-0.46,0.211 -0.899,0.443 -1.28,0.776Zm-43.025,-0.328l0.108,-0.028c-0.542,0.308 -0.826,0.759 -1.501,0.627c-1.561,-0.305 -6.961,-4.388 -7.525,-5.858c-0.409,-1.065 -0.365,-2.496 -1.018,-3.453c-1.204,-1.764 -2.779,-3.926 -3.053,-6.067c-0.087,-0.679 -1.366,-4.787 -0.563,-5.179c0.088,-0.043 4.051,3.227 5.785,2.85c0.585,-0.126 1.609,-1.516 1.848,-1.516c1.983,0 3.9,5.471 4.286,6.826c0.398,1.401 4.248,10.869 1.633,11.798l-0.188,0.05c0.066,-0.012 0.129,-0.029 0.188,-0.05Zm43.025,0.328c0.027,-0.018 0.054,-0.038 0.081,-0.058l-0.136,0.106c0.018,-0.016 0.036,-0.032 0.055,-0.048Z" style="fill:#17583e;fill-rule:nonzero;"/><path id="Brunai1" d="M381.274,324.844c-0.933,0.165 1.233,2.438 1.769,2.485c0.64,0.057 2.52,-3.081 1.862,-3.455c-0.227,-0.13 -2.683,0.7 -3.517,0.919" style="fill:#c5d83b;fill-rule:nonzero;"/><path id="Singapore1" d="M336.484,339.965c2.988,2.988 2.797,-1.768 1.771,-1.338c-0.629,0.263 -1.083,0.876 -1.687,1.194" style="fill:#c5d83b;fill-rule:nonzero;"/><path id="Phillipines" d="M427.591,303.105c-0.935,-0.808 -1.096,1.197 -1.422,1.835c-1.102,2.154 -2.422,4.181 -4.909,5.092c-2.604,0.953 -4.827,-2.478 -6.619,1.372c-0.205,0.441 -0.785,0.803 -0.694,1.339c0.078,0.46 2.213,0.349 2.505,0.264c1.854,-0.532 2.564,-1.318 3.944,0.48c1.658,2.159 1.008,8.622 5.773,6.761c0.422,-0.165 1.615,0.071 1.845,-0.38c0.533,-1.04 -2.457,-2.511 -0.829,-4.1c1.933,-1.888 4.69,2.954 4.096,-1.107c-0.098,-0.668 -0.56,-1.214 -0.762,-1.868c-0.267,-0.872 -0.205,-1.852 -0.575,-2.695c-1.052,-2.398 -2.285,-4.352 -2.285,-6.96l-0.068,-0.033Zm-26.476,-2.347c-0.403,1.027 -1.167,1.198 -1.927,1.94c-2.311,2.258 0.214,2.271 -4.61,4.626c-0.294,0.144 -0.268,0.745 -0.525,0.954c-0.368,0.3 -1.388,-0.407 -1.464,-0.777c-0.024,-0.119 10.674,-15.299 8.479,-6.55l0.047,-0.193Zm14.238,-0.331c-1.021,-0.398 -0.67,0.765 -0.841,1.323c-0.107,0.348 -0.632,0.582 -0.67,0.918c-0.056,0.491 0.549,2.983 1.126,3.063c1.188,0.166 1.074,-1.477 1.312,-2.116c0.092,-0.249 0.423,-0.274 0.598,-0.445c0.817,-0.798 -1.042,-2.308 -1.597,-2.715l0.072,-0.028Zm5.117,-3.173c-1.598,-0.208 0.378,4.913 1.468,4.677c0.504,-0.109 -0.537,-4.215 -1.454,-4.733l-0.014,0.056Zm-19.355,3.504c0.003,-0.006 0.005,-0.012 0.008,-0.019l-0.055,0.212c2.195,-8.749 -8.503,6.431 -8.479,6.55l8.526,-6.743Zm11.075,-2.457c0.202,-0.168 0.374,-0.38 0.46,-0.629c0.223,-0.655 0.272,-1.432 0.717,-2.011c0.142,-0.186 1.163,-0.732 0.827,-1.059c-0.404,-0.395 -2.685,-0.395 -3.015,-0.073c-0.238,0.233 -1.26,1.901 -1.325,2.155c-0.282,1.102 1.364,2.683 2.225,1.689l0.111,-0.072Zm12.334,-4.888c-0.293,-0.78 -0.859,-0.675 -1.501,-0.869c-0.459,-0.137 -1.081,-1.17 -1.586,-0.973c-0.732,0.287 2.077,5.766 3.435,5.887c0.355,0.031 2.594,0.072 2.137,-0.821c-0.634,-1.239 -2.029,-2.038 -2.485,-3.377l0,0.153Zm-9.08,-1.757c-0.277,0.397 -0.489,0.902 0.111,1.006c2.232,0.389 1.789,-1.929 0.313,-1.042l-0.424,0.036Zm-7.568,0.233c-0.668,-0.001 -1.842,-0.066 -2.317,-0.531c-0.223,-0.217 -0.087,-1.33 -0.126,-1.633c-0.072,-0.563 -1.254,-1.179 -0.739,-1.851c0.283,-0.368 1.662,0.979 1.812,1.089c0.604,0.442 1.001,1.015 1.408,1.633c0.284,0.431 0.979,1.742 -0.038,1.293Zm0,0c0.008,0 0.016,0 0.023,0l-0.111,-0.041c0.031,0.015 0.06,0.029 0.088,0.041Zm10.633,-4.333c0.151,-1.493 -0.247,-3.008 -1.93,-3.44c-1.737,-0.447 -3.382,0.658 -5.004,0.262c-0.996,-0.243 -4.151,-4.051 -4.666,-4.995c-0.454,-0.83 -0.347,-2.135 -0.023,-2.98c0.544,-1.415 1.83,-2.957 2.154,-4.382c0.288,-1.262 -2.987,-9.887 -6.865,-7.362c-1.497,0.975 -0.501,4.852 -0.584,6.31c-0.128,2.272 -1.897,3.223 -1.256,5.939c0.66,2.792 2.152,2.21 3.657,3.68c1.445,1.411 3.468,8.864 6.417,6.464c3.284,-2.674 7.798,3.259 8.032,0.285l0.068,0.219Z" style="fill:#8caa5c;fill-rule:nonzero;"/><path id="Indonisia" d="M423.321,389.816c-1.508,0.402 -2.528,2.18 -4.197,2.588c-3.895,0.951 -0.702,-2.265 -0.021,-3.062c0.822,-0.965 1.67,-4.169 3.706,-2.678c0.765,0.561 0.839,1.243 0.746,2.163c-0.041,0.391 -0.028,0.691 -0.234,0.989Zm-17.765,1.361c1.26,-1.491 -4.005,-2.467 -4.54,-1.945c-0.53,0.517 3.34,2.291 4.433,1.97l0.107,-0.025Zm17.718,-1.298c-0.033,0.042 -0.071,0.084 -0.115,0.127l0.115,-0.127c0.017,-0.021 0.033,-0.042 0.047,-0.063c0.005,-0.001 0.01,-0.002 0.014,-0.004l-0.061,0.067Zm-25.842,-3.887c1.915,-0.639 -0.712,-1.628 -1.54,-1.79c-0.724,-0.141 -6.462,-0.069 -6.159,1.115c0.201,0.786 2.866,1.76 3.584,1.66c0.521,-0.073 0.852,-0.791 1.38,-0.856c0.884,-0.108 2.011,0.189 2.762,-0.104l-0.027,-0.025Zm11.761,0.777c-0.637,-0.117 -1.495,0.362 -2.098,0.026c-2.554,-1.426 -3.321,-4.182 0.638,-3.63c1.276,0.178 2.318,1.305 3.743,1.504c0.308,0.043 2.344,0.563 1.965,0.933c-0.629,0.615 -1.965,0.415 -2.762,0.57c-0.533,0.105 -0.947,0.433 -1.433,0.52l-0.053,0.077Zm81.252,-0.965c-0.371,-5.588 2.381,-22.587 -0.483,-27.249c-0.51,-0.829 -2.988,-1.526 -3.868,-1.956c-5.115,-2.497 -5.237,-3.177 -10.222,-0.135c-0.856,0.523 -2.197,0.728 -2.901,1.417c-1.249,1.219 -4.63,4.001 -6.423,3.709c-0.491,-0.08 -0.613,-0.728 -0.829,-1.079c-0.564,-0.919 -1.181,-1.865 -1.796,-2.765c-1.803,-2.641 1.046,-6.052 -4.282,-7.353c-1.424,-0.347 -2.794,-0.241 -4.074,0.54c-0.74,0.451 -1.19,1.076 -2.004,1.417c-0.395,0.165 -1.107,-0.062 -1.243,0.337c-0.049,0.142 1.228,0.642 1.381,0.742c0.667,0.434 1.256,1.043 1.934,1.483c1.08,0.704 4.406,1.186 4.973,2.294c0.714,1.395 -3.994,0.976 -2.625,4.991c0.284,0.831 0.492,1.546 1.243,2.159c1.319,1.072 4.559,-0.511 6.148,-0.068c2.067,0.577 3.332,2.755 5.11,3.103c1.816,0.354 3.007,1.742 4.697,2.293c2.861,0.931 5.212,0.497 6.354,3.844c0.316,0.924 1.949,3.614 1.52,4.452c-0.574,1.122 -5.224,3.054 -4.282,4.587c1.632,2.657 4.927,-0.504 6.906,0.27c1.766,0.689 2.932,2.46 4.697,3.035l0.069,-0.068Zm-107.779,-0.852c0.285,0.003 2.303,-0.702 1.978,-1.232c-0.289,-0.471 -2.201,-0.568 -2.728,-0.633c-1.236,-0.15 -2.177,-1.507 -3.307,-1.997c-1.187,-0.516 -2.555,-0.292 -3.648,-0.766c-1.955,-0.849 -2.839,-3.269 -5.184,-3.597c-2.181,-0.304 -7.165,1.722 -9.308,1.2c-1.03,-0.252 -1.491,-1.467 -2.523,-1.899c-1.612,-0.675 -3.057,-0.892 -4.774,-1.131c-0.279,-0.04 -0.453,-0.525 -0.784,-0.634c-1.865,-0.606 -4.126,0.215 -5.761,0.899c-0.416,0.175 -1.012,0.255 -1.331,0.567c-2.52,2.461 2.389,2.848 3.581,3.429c0.729,0.356 1.152,0.779 2.011,0.899c1.701,0.238 2.829,1.203 4.705,1c1.25,-0.136 1.77,-1.575 3.99,-1.266c0.682,0.095 1.245,1.056 1.807,1.398c0.307,0.188 3.662,1.36 4.16,1.499c2.366,0.66 7.29,-0.378 8.353,0.066c0.626,0.262 1.134,0.902 1.808,1.066c1.44,0.352 5.746,1.292 7.058,1.132l-0.103,0Zm-41.36,-13.945c0.892,-1.008 2.295,-0.922 3.359,-1.701c1.234,-0.904 2.452,-4.095 1.824,-5.629c-0.233,-0.569 -0.796,-1.033 -1.037,-1.62c-0.27,-0.66 0.289,-1.933 -0.124,-2.469c-0.743,-0.968 -2.25,-0.968 -3.152,-1.701c-1.972,-1.605 -2.005,-2.8 -2.777,-5.062c-0.665,-1.947 -3.232,-2.072 -4.355,-3.442c-1.038,-1.269 -0.093,-4.94 -1.7,-6.195c-0.3,-0.235 -0.852,-0.219 -1.202,-0.365c-0.425,-0.178 -0.751,-0.69 -1.161,-0.85c-1.74,-0.68 -2.926,-0.813 -4.271,-2.39c-0.657,-0.77 -1.043,-1.867 -1.866,-2.51c-0.845,-0.661 -3.773,-1.965 -4.188,-2.47c-0.763,-0.931 -1.027,-2.308 -1.824,-3.28c-0.306,-0.373 -0.514,-1.052 -0.789,-1.499c-0.398,-0.65 -4.609,-4.184 -5.431,-4.414c-0.823,-0.229 -1.883,-0.433 -2.654,-0.809c-0.731,-0.358 -1.402,-0.998 -2.239,-1.134c-0.519,-0.084 -3.558,-2.212 -4.023,-0.851c-0.108,0.319 3.001,5.964 3.442,6.682c0.224,0.365 1.087,0.775 1.493,1.012c4.122,2.416 6.274,6.508 8.127,10.731c0.378,0.862 1.581,1.121 2.115,1.903c0.643,0.943 0.421,2.221 1.244,3.159c0.749,0.853 1.886,1.315 2.696,2.105c0.737,0.721 1.497,2.019 2.155,2.875c0.415,0.54 0.173,1.373 0.581,1.904c2.381,3.101 2.18,5.698 5.474,9.718c2.399,2.93 3.933,6.388 7.587,7.816c0.759,0.296 1.757,1.282 2.53,0.527l0.166,-0.041Zm62.458,-0.636c2.995,-0.192 3.034,-2.024 2.4,-4.293c-0.181,-0.65 -0.077,-1.457 -0.454,-2.047c-0.605,-0.945 -1.293,-1.068 -1.163,-2.343c0.058,-0.566 1.058,-1.32 1.44,-1.728c0.707,-0.753 1.326,-1.605 2.451,-1.727c3.086,-0.335 0.177,7.19 6.189,8.364c2.446,0.477 0.567,-4.96 0.177,-5.724c-0.964,-1.882 -2.634,-3.301 -2.375,-5.575c0.239,-2.098 5.947,-4.046 5.659,-4.515c-0.407,-0.662 -2.201,-0.284 -2.703,-0.074c-1.304,0.545 -2.594,0.804 -3.916,1.234c-0.499,0.162 -0.99,0.636 -1.415,0.912c-1.698,1.106 -3.454,-1.988 -4.092,-2.985c-0.38,-0.593 -0.564,-1.95 -0.328,-2.639c0.894,-2.621 6.9,-4.443 9.397,-3.528c2.219,0.812 3.553,2.922 6.088,2.097c0.491,-0.16 1.169,-0.156 1.567,-0.543c0.385,-0.376 1.566,-0.888 1.768,-1.283c0.178,-0.348 -0.16,-0.922 0.025,-1.283c0.303,-0.59 0.717,-0.874 0.985,-1.529c0.04,-0.098 0.574,-0.797 0.531,-0.839c-1.095,-1.069 -5.428,2.59 -7.351,2.59c-0.879,0 -1.171,-0.693 -1.92,-0.937c-0.878,-0.286 -1.99,0.207 -2.855,-0.074c-2.832,-0.922 -4.02,-1.556 -6.417,0.395c-0.866,0.705 -1.939,1.35 -2.627,2.245c-1.687,2.196 -0.876,8.586 -1.414,10.953c-0.348,1.523 -3.531,4.49 -3.234,5.649c0.474,1.851 2.299,3.36 2.299,5.23c0,1.404 -2.361,5.364 1.49,3.997l-0.202,0Zm-18.512,-8.107c0.686,-0.399 1.685,-0.498 2.353,-0.964c2.047,-1.427 3.433,-7.23 4.329,-9.561c0.604,-1.576 2.175,-2.68 2.527,-4.397c0.209,-1.021 -0.195,-2.149 0.146,-3.149c0.489,-1.435 3.354,-1.641 3.835,-2.895c0.748,-1.948 -2.788,-4.364 -3.371,-6.07c-0.555,-1.627 -1.062,-3.512 -0.9,-5.25c0.072,-0.777 0.943,-1.186 0.697,-1.787c-0.545,-1.332 -4.005,-0.753 -5.026,-0.255c-4.663,2.277 -0.369,7.088 -7.524,10.582c-0.89,0.435 -1.409,1.595 -2.527,1.73c-1.329,0.163 -2.02,-0.677 -3.167,-0.453c-0.708,0.138 -1.417,1.018 -2.063,1.333c-0.748,0.365 -1.796,0.21 -2.527,0.568c-1.937,0.945 -4.024,2.071 -6.276,2.071c-1.415,0 -4.632,-3.962 -5.345,-3.404c-0.065,0.05 0.196,1.458 0.145,1.758c-0.133,0.781 -1.026,1.507 -0.726,2.383c0.401,1.176 1.075,1.513 1.075,2.894c0,1.867 1.25,4.039 1.452,5.618c0.094,0.733 -0.092,1.604 0.175,2.297c0.277,0.724 1.471,1.11 1.772,1.845c0.248,0.606 0.383,1.365 0.9,1.787c0.6,0.488 1.295,0.678 2.034,0.823c0.672,0.131 1.118,0.74 1.83,0.88c1.262,0.245 2.88,-0.463 4.039,-0.085c0.736,0.239 1.249,0.987 2.149,1.134c1.556,0.253 2.576,-1.355 4.358,-1.106c1.775,0.247 3.82,2.968 5.781,1.532l-0.145,0.141Zm61.914,-1.351c-1.053,0.015 -2.176,-0.279 -2.978,0.505c-0.834,0.815 -6.315,0.208 -5.907,-1.185c0.602,-2.06 4.299,0.033 5.259,0.19c1.132,0.184 2.504,-0.547 3.399,0.395l0.227,0.095Zm-10.522,-18.631c-1.156,0.398 -1.095,1.613 -1.095,2.592c0,0.861 2.526,4.398 3.186,2.788c0.461,-1.127 1.761,-2.745 1.426,-4.052c-0.331,-1.293 -1.7,-2.392 -1.891,-3.694c-0.111,-0.763 3.567,-4.658 0.929,-3.921c-0.787,0.219 -2.268,2.636 -2.555,3.338c-0.357,0.871 1.247,1.614 0.763,2.56c-0.038,0.075 -0.656,0.316 -0.763,0.421l0,-0.032Z" style="fill:#4b96c0;fill-rule:nonzero;"/><path id="East-Timor1" d="M422.684,385.212c1.603,-0.169 1.175,2.696 2.116,3.041c0.612,0.224 3.05,-1.284 3.727,-1.65c1.119,-0.608 3.407,0.142 4.245,-0.676c0.86,-0.839 -1.636,-1.145 -2.076,-1.3c-0.529,-0.189 -0.662,-0.729 -1.237,-0.832c-1.06,-0.188 -5.832,0.603 -6.655,1.313" style="fill:#f5e158;fill-rule:nonzero;"/><path id="Sri-Lanka" d="M240.3,304.823c0.057,-0.071 -0.75,-0.877 -0.876,-0.712c-0.407,0.53 -0.172,1.87 -0.312,2.523c-0.332,1.537 -1.509,0.442 -1.105,5.17c0.075,0.878 1.114,1.548 1.229,2.503c0.127,1.057 -0.202,2.328 0.272,3.318c1.057,2.213 1.43,0.307 3.001,0c0.779,-0.152 2.119,0.521 2.626,-0.468c0.957,-1.87 -0.137,-5.665 -1.292,-7.245c-0.634,-0.868 -1.63,-1.472 -2.189,-2.382c-0.493,-0.802 -0.799,-1.922 -1.354,-2.585" style="fill:#8caa5c;fill-rule:nonzero;"/><path id="Maldives1" d="M204.462,327.579c-0.304,0.12 -0.558,0.538 -0.558,0.873c0,1.471 2.708,-0.151 0.826,-0.764l-0.268,-0.109Zm-0.938,-2.355c0.031,0.28 0.227,0.55 0.536,0.611c1.162,0.227 -0.312,-1.653 -0.312,-0.567l-0.224,-0.044Zm0.826,-3.249c-0.528,0.222 -0.022,0.478 -0.022,0.916c0,0.485 1.023,1.587 1.496,0.894c0.357,-0.522 -0.695,-1.646 -1.138,-1.679l-0.336,-0.131Zm0.536,-5.56c-3.266,0.906 -0.466,4.918 0.849,4.405c0.746,-0.292 -0.291,-3.621 -0.693,-4.1l-0.156,-0.305Z" style="fill:#17583e;fill-rule:nonzero;"/><path id="Turkey" d="M80.667,178.774c-0.218,-0.265 -1.745,-5.471 -1.95,-5.87c-0.384,-0.751 -1.076,-1.297 -1.177,-2.181c-0.081,-0.712 0.519,-1.773 0.325,-2.34c-0.231,-0.679 -1.772,-1.162 -2.316,-1.587c-1.283,-1.003 -0.823,-2.525 -3.534,-3.055c-0.855,-0.167 -4.334,-2.312 -4.711,-1.943c-0.404,0.394 -0.037,1.607 -0.772,2.181c-1.226,0.958 -2.706,0.33 -3.899,0.913c-0.463,0.226 -0.875,0.516 -1.381,0.714c-0.973,0.38 -3.234,0.282 -4.225,-0.04c-0.518,-0.169 -0.785,-0.705 -1.299,-0.873c-0.751,-0.245 -1.797,-0.024 -2.599,-0.198c-0.884,-0.192 -3.853,-1.248 -4.509,-1.706c-0.462,-0.321 -0.666,-0.681 -1.219,-0.952c-1.274,-0.622 -7.844,-1.746 -9.545,-1.983c-1.569,-0.219 -3.555,0.075 -4.753,0.952c-0.296,0.217 -0.468,1.019 -0.974,1.348c-0.143,0.093 -3.623,1.413 -3.818,1.468c-1.208,0.337 -2.291,-0.684 -3.331,-0.278c-0.958,0.374 -1.112,1.062 -2.356,0.714c-1.307,-0.364 -5.317,-2.176 -6.052,-3.133c-0.226,-0.294 0.222,-0.765 0.041,-1.032c-0.532,-0.779 -4.941,-0.227 -5.484,0.834c-0.168,0.328 0.609,1.078 0.609,1.666c0,0.47 -0.662,1.712 -0.446,2.062c0.122,0.199 1.528,0.04 1.787,0.04c2.573,0 5.201,-1.584 7.352,0.516c0.33,0.322 0.652,0.846 0.447,1.348c-1.217,2.97 -6.075,0.356 -7.88,1.825c-0.206,0.167 -2.004,1.471 -1.747,1.784c0.702,0.859 2.671,0.734 3.291,1.945c0.748,1.462 0.006,3.295 0.446,4.799c0.157,0.536 0.869,1.058 1.219,1.468c0.461,0.541 0.256,1.291 0.609,1.864c0.042,0.069 3.736,2.784 4.062,2.975c0.572,0.335 1.275,0.107 1.868,0.397c4.986,2.434 1.89,-2.608 8.408,-1.548c1.734,0.283 3.797,3.026 5.889,3.253c1.686,0.183 2.099,-0.567 3.494,-1.15c0.468,-0.196 0.973,0.027 1.421,-0.119c0.715,-0.233 1.19,-1.277 3.412,-1.587c1.163,-0.162 2.722,-0.555 3.737,0.238c0.333,0.26 1.648,1.73 1.747,1.666c0.294,-0.191 0.996,-1.924 1.99,-2.34c0.818,-0.342 7.627,-1.234 8.529,-0.793c0.388,0.189 0.174,0.912 1.341,0.912c1.384,0 2.451,-1.212 3.778,-1.428c1.697,-0.277 3.555,-0.107 5.239,-0.437c0.761,-0.148 1.648,-0.63 2.478,-0.832c0.961,-0.235 7.027,0.933 7.027,0c0,-0.007 -0.477,0.009 -0.488,0c-0.186,-0.182 -0.206,-0.578 -0.243,-0.833" style="fill:#17583e;fill-rule:nonzero;"/><path id="Maldives" d="M201.852,312.095c3.893,-1.089 8.469,2.848 10.211,8.787c1.742,5.94 -0.004,11.646 -3.897,12.735c-3.893,1.089 -8.469,-2.849 -10.211,-8.788c-1.742,-5.939 0.004,-11.645 3.897,-12.734Zm0.221,0.753c3.621,-1.013 7.876,2.649 9.496,8.172c1.62,5.524 -0.004,10.831 -3.624,11.844c-3.621,1.012 -7.876,-2.649 -9.496,-8.173c-1.621,-5.523 0.003,-10.83 3.624,-11.843Z" style="fill:#d91d28;stroke:#000;stroke-opacity:0;stroke-width:0.84px;"/><path id="East-Timor" d="M425.674,378.276c3.893,-1.089 7.993,1.23 9.151,5.176c1.157,3.945 -1.064,8.033 -4.957,9.122c-3.893,1.089 -7.993,-1.23 -9.151,-5.176c-1.157,-3.945 1.064,-8.033 4.957,-9.122Zm0.147,0.5c3.62,-1.013 7.434,1.144 8.51,4.814c1.077,3.669 -0.989,7.471 -4.61,8.484c-3.62,1.013 -7.434,-1.144 -8.51,-4.814c-1.077,-3.669 0.989,-7.471 4.61,-8.484Z" style="fill:#d91d28;stroke:#000;stroke-opacity:0;stroke-width:0.84px;"/><path id="Singapore" d="M336.86,335.245c2.475,-0.692 5.034,0.619 5.711,2.927c0.676,2.308 -0.783,4.743 -3.258,5.436c-2.474,0.692 -5.033,-0.62 -5.71,-2.927c-0.677,-2.308 0.783,-4.744 3.257,-5.436Zm0.086,0.293c2.301,-0.644 4.681,0.576 5.311,2.722c0.629,2.146 -0.728,4.411 -3.029,5.055c-2.302,0.644 -4.681,-0.576 -5.311,-2.722c-0.63,-2.146 0.728,-4.411 3.029,-5.055Z" style="fill:#d91d28;stroke:#000;stroke-opacity:0;stroke-width:0.84px;"/><path id="Singapore2" serif:id="Singapore" d="M381.658,319.773c3.115,-0.871 6.335,0.779 7.187,3.684c0.853,2.905 -0.985,5.971 -4.099,6.842c-3.115,0.872 -6.336,-0.779 -7.188,-3.684c-0.852,-2.905 0.985,-5.97 4.1,-6.842Zm0.108,0.369c2.897,-0.811 5.892,0.724 6.684,3.426c0.793,2.701 -0.916,5.552 -3.812,6.363c-2.897,0.81 -5.893,-0.725 -6.685,-3.426c-0.793,-2.702 0.916,-5.553 3.813,-6.363Z" style="fill:#d91d28;stroke:#d91b23;stroke-opacity:0;stroke-width:0.84px;"/><path id="Qatar" d="M115.001,230.977c2.217,-0.62 4.473,0.428 5.034,2.339c0.561,1.912 -0.785,3.967 -3.002,4.588c-2.218,0.62 -4.474,-0.428 -5.034,-2.339c-0.561,-1.912 0.784,-3.967 3.002,-4.588Zm0.071,0.243c2.062,-0.577 4.16,0.397 4.682,2.175c0.521,1.778 -0.73,3.689 -2.792,4.266c-2.063,0.577 -4.161,-0.397 -4.682,-2.175c-0.522,-1.778 0.729,-3.689 2.792,-4.266Z" style="fill:#d91d28;stroke:#000;stroke-opacity:0;stroke-width:0.84px;"/><path id="Bahrain" d="M110.685,226.371c2.13,-0.596 4.254,0.265 4.74,1.921c0.486,1.656 -0.849,3.485 -2.98,4.081c-2.13,0.596 -4.254,-0.265 -4.74,-1.921c-0.486,-1.656 0.849,-3.485 2.98,-4.081Zm0.061,0.21c1.982,-0.554 3.957,0.247 4.409,1.787c0.452,1.54 -0.79,3.241 -2.771,3.795c-1.982,0.554 -3.957,-0.246 -4.409,-1.786c-0.452,-1.541 0.79,-3.241 2.771,-3.796Z" style="fill:#d91d28;stroke:#000;stroke-opacity:0;stroke-width:0.84px;"/><path id="Kuwait" d="M100.117,211.622c2.9,1.312 4.479,4.014 3.522,6.03c-0.956,2.016 -4.087,2.589 -6.987,1.277c-2.9,-1.312 -4.479,-4.014 -3.522,-6.03c0.956,-2.017 4.087,-2.589 6.987,-1.277Zm-0.121,0.256c2.697,1.219 4.165,3.732 3.275,5.608c-0.889,1.875 -3.801,2.407 -6.498,1.187c-2.697,-1.22 -4.165,-3.733 -3.275,-5.608c0.889,-1.875 3.801,-2.407 6.498,-1.187Z" style="fill:#d91d28;stroke:#000;stroke-opacity:0;stroke-width:0.84px;"/><path id="Lebanon" d="M51.345,189.883c1.89,0.526 2.799,3.1 2.029,5.745c-0.771,2.645 -2.932,4.367 -4.822,3.841c-1.89,-0.525 -2.799,-3.099 -2.029,-5.744c0.771,-2.646 2.932,-4.367 4.822,-3.842Zm-0.098,0.336c1.758,0.488 2.604,2.882 1.887,5.342c-0.717,2.461 -2.726,4.061 -4.484,3.573c-1.758,-0.489 -2.604,-2.883 -1.887,-5.343c0.717,-2.46 2.726,-4.061 4.484,-3.572Z" style="fill:#d91d28;stroke:#000;stroke-opacity:0;stroke-width:0.84px;"/><path id="Israel" d="M48.278,197.495c1.674,0.011 3.003,4.25 2.967,9.46c-0.036,5.21 -1.423,9.432 -3.096,9.421c-1.673,-0.011 -3.003,-4.25 -2.967,-9.461c0.036,-5.21 1.423,-9.431 3.096,-9.42Zm-0.004,0.661c1.556,0.01 2.792,3.952 2.759,8.798c-0.033,4.845 -1.324,8.771 -2.88,8.761c-1.556,-0.01 -2.792,-3.953 -2.759,-8.798c0.034,-4.846 1.324,-8.772 2.88,-8.761Z" style="fill:#d91d28;stroke:#000;stroke-opacity:0;stroke-width:0.84px;"/></svg>