<svg
	xmlns="http://www.w3.org/2000/svg" 
	viewBox="6.5 4.8 273 252.8" 
	aria-label="Map of Australia"
    class="game-map"
>
    <g id="nsw" name="New South Wales">
	    <path
		d="M 113.85,33.81875 L 113.85,117.35 L 173.4125,117.35 L 173.4125,44.19375 L 172.6625,43.19375 L 170.5375,42.5375 L 167.75625,40.63125 L 167.13125,40.85 L 167.35,41.2875 L 166.2875,40.85 L 165.63125,41.06875 L 165.63125,40.19375 L 163.2875,39.13125 L 162.44375,37.44375 L 159.0375,35.31875 L 158.81875,35.5375 L 158.81875,35.1 L 158.19375,35.31875 L 157.13125,34.25625 L 156.69375,32.75625 L 157.975,32.31875 L 159.0375,29.7875 L 160.31875,29.13125 L 160.5375,27.85 L 161.6,25.50625 L 160.725,26.1625 L 160.31875,25.94375 L 160.1,24.0375 L 160.5375,24.225 L 160.94375,23.81875 L 160.31875,23.6 L 160.5375,22.975 L 161.1625,22.5375 L 161.38125,23.1625 L 162.00625,21.9125 L 162.225,22.975 L 162.44375,21.9125 L 163.06875,22.1 L 163.2875,21.475 L 163.725,22.5375 L 163.2875,23.1625 L 164.13125,22.75625 L 164.7875,21.475 L 164.13125,20.81875 L 165.4125,21.0375 L 164.13125,19.56875 L 164.56875,19.75625 L 164.7875,19.35 L 165.225,19.975 L 165.00625,19.13125 L 165.63125,19.13125 L 166.06875,18.06875 L 165.85,17.4125 L 166.2875,17.4125 L 166.2875,18.06875 L 167.56875,16.56875 L 166.2875,15.2875 L 165.63125,15.725 L 166.06875,16.13125 L 165.4125,16.13125 L 164.56875,14.225 L 164.13125,14.225 L 164.7875,13.38125 L 162.225,15.2875 L 163.725,15.725 L 163.06875,17.00625 L 162.44375,17.4125 L 161.6,17.225 L 161.1625,17.63125 L 161.1625,17.00625 L 160.725,17.00625 L 161.38125,15.94375 L 160.725,16.13125 L 160.5375,15.725 L 161.38125,14.6625 L 159.6625,15.50625 L 159.44375,16.1625 L 158.81875,15.725 L 160.5375,13.81875 L 158.19375,15.06875 L 157.975,14.6625 L 156.9125,14.88125 L 155.85,15.50625 L 156.69375,15.94375 L 155.4125,15.725 L 155.85,16.35 L 153.2875,15.2875 L 152.63125,13.81875 L 151.7875,14.88125 L 149.225,14.225 L 148.6,15.50625 L 149.0375,14.44375 L 148.6,13.6 L 148.1625,13.81875 L 147.94375,13.1625 L 147.1,13.81875 L 146.475,13.1625 L 147.1,12.5375 L 146.25625,12.31875 L 144.35,13.38125 L 144.5375,12.5375 L 144.13125,12.94375 L 143.69375,12.31875 L 143.06875,12.725 L 143.25625,12.1 L 142.00625,12.31875 L 140.50625,9.75625 L 140.06875,9.75625 L 140.2875,10.4125 L 139.85,10.19375 L 138.7875,11.0375 L 137.31875,8.9125 L 136.88125,9.5375 L 136.6625,8.25625 L 136.0375,8.69375 L 136.25625,9.31875 L 135.1625,8.25625 L 135.38125,9.5375 L 135.81875,9.75625 L 135.38125,10.4125 L 134.975,8.9125 L 134.1,8.25625 L 134.1,9.13125 L 133.0375,8.9125 L 133.25625,9.31875 L 132.85,9.75625 L 133.9125,9.5375 L 134.1,9.975 L 133.9125,10.19375 L 134.75625,10.4125 L 134.975,11.0375 L 135.81875,10.6 L 137.725,10.4125 L 137.725,10.81875 L 138.1625,10.81875 L 137.725,11.0375 L 138.38125,11.25625 L 137.94375,11.25625 L 138.38125,11.475 L 137.94375,11.6625 L 139.00625,11.6625 L 139.225,11.6625 L 138.1625,12.725 L 139.00625,13.38125 L 138.6,13.6 L 138.38125,14.88125 L 139.44375,15.2875 L 137.975,14.88125 L 137.31875,15.2875 L 137.1,16.56875 L 136.69375,15.50625 L 136.0375,15.94375 L 135.81875,15.2875 L 134.75625,16.35 L 133.69375,15.725 L 130.725,16.13125 L 129.88125,15.50625 L 129.6625,14.44375 L 129.225,15.725 L 127.5375,15.2875 L 127.94375,16.7875 L 126.88125,16.56875 L 126.475,17.00625 L 127.5375,17.85 L 126.6625,17.63125 L 127.06875,18.2875 L 126.6625,18.69375 L 126.25625,17.85 L 126.25625,18.06875 L 125.81875,18.2875 L 126.0375,17.19375 L 124.75625,17.00625 L 124.975,18.475 L 124.5375,18.475 L 125.81875,19.13125 L 125.19375,19.13125 L 125.19375,19.5375 L 124.13125,18.475 L 123.475,18.69375 L 123.69375,19.13125 L 123.25625,18.69375 L 123.25625,20.19375 L 121.7875,20.6 L 121.7875,22.1 L 123.0375,23.6 L 122.63125,23.38125 L 120.9125,24.6625 L 120.2875,24.44375 L 120.2875,24.0375 L 119.63125,24.44375 L 119.44375,26.35 L 119.85,26.1625 L 119.00625,26.7875 L 119.225,27.85 L 118.56875,28.2875 L 118.1625,27.85 L 118.56875,28.9125 L 118.1625,28.50625 L 117.725,29.35 L 117.50625,28.69375 L 116.6625,30.19375 L 116.6625,30.85 L 117.2875,31.475 L 117.725,31.0375 L 117.725,31.69375 L 118.56875,31.475 L 118.7875,31.9125 L 119.63125,31.475 L 119.44375,31.9125 L 118.38125,32.5375 L 119.00625,32.5375 L 119.00625,32.975 L 118.7875,32.975 L 118.94375,33.25625 L 119.1,33.31875 L 119.63125,32.975 L 119.44375,33.6 L 120.9125,32.75625 L 120.9125,33.38125 L 120.06875,33.38125 L 120.50625,33.81875 L 119.85,33.6 L 119.44375,33.6 L 118.56875,33.6 L 119.00625,34.44375 L 118.56875,34.0375 L 118.7875,35.5375 L 118.1625,35.725 L 117.50625,34.25625 L 116.88125,34.0375 L 117.1,35.1 L 116.225,33.81875 L 116.44375,34.25625 L 116.0375,34.25625 L 115.81875,34.25625 L 116.225,34.88125 L 115.81875,35.31875 L 116.44375,35.5375 L 115.81875,35.5375 L 115.6,36.38125 L 115.6,35.725 L 115.1625,36.6 L 115.6,35.5375 L 115.38125,35.31875 L 114.94375,34.88125 L 114.94375,34.0375 L 114.5375,34.6625 L 114.5375,33.81875 L 113.85,33.81875 z "
	    />
        <path
		d="M 271.2875,129.6 L 270.4125,130.225 L 269.75625,130.85 L 268.6625,130.94375 L 267.75625,131.0375 L 267.6625,131.7875 L 267.94375,132.85 L 268.6625,132.7875 L 268.00625,133.56875 L 267.88125,134.13125 L 266.85,134.6 L 266.06875,134.31875 L 265.6625,133.63125 L 265.00625,134.4125 L 264.35,135.225 L 264.0375,135.7875 L 263.35,136.225 L 262.88125,135.1625 L 262.81875,134.44375 L 262.38125,133.75625 L 261.975,133.25625 L 261.31875,132.4125 L 260.19375,132.1625 L 258.56875,132.13125 L 257.975,131.81875 L 257.225,131.5375 L 256.50625,131.6 L 256.2875,131.06875 L 255.38125,131.1625 L 253.94375,131.6625 L 252.6625,131.44375 L 251.35,131.0375 L 250.7875,131.06875 L 250.00625,132.25625 L 248.9125,132.1625 L 248.81875,133.2875 L 248.1,133.35 L 248.1625,133.88125 L 247.2875,134.35 L 194.1625,134.2875 L 194.1625,179.35 L 194.1625,179.38125 L 194.225,179.6 L 195.35,179.4125 L 197.19375,180.2875 L 198.225,179.56875 L 199.975,179.85 L 202.1,180.1 L 203.81875,181.5375 L 204.31875,183.56875 L 205.4125,184.5375 L 205.44375,183.56875 L 206.50625,183.0375 L 207.475,183.25625 L 209.19375,183.38125 L 210.19375,183.7875 L 210.81875,186.5375 L 212.25625,188.6 L 213.38125,188.63125 L 215.00625,189.31875 L 216.975,191.1 L 217.35,192.38125 L 218.63125,193.31875 L 220.25625,194.00625 L 221.56875,193.81875 L 221.31875,192.35 L 221.81875,191.69375 L 222.5375,191.6 L 223.38125,192.0375 L 225.225,191.75625 L 226.6625,192.475 L 227.56875,192.35 L 228.7875,192.9125 L 229.975,193.13125 L 230.63125,192.44375 L 231.50625,192.13125 L 232.56875,192.725 L 234.50625,193.19375 L 235.975,192.7875 L 237.0375,192.44375 L 237.7875,192.31875 L 238.50625,192.0375 L 239.4125,191.69375 L 240.81875,192.44375 L 240.63125,193.6 L 241.19375,194.81875 L 241.9125,195.85 L 242.25625,196.94375 L 242.1,198.2875 L 250.2875,202.35 L 252.00625,202.475 L 252.725,203.13125 L 253.38125,203.13125 L 253.225,203.56875 L 253.35,203.6625 L 254.44375,203.13125 L 254.225,201.4125 L 254.6625,201.19375 L 255.1,201.19375 L 254.6625,200.13125 L 253.81875,199.9125 L 254.225,199.06875 L 253.81875,198.00625 L 254.225,198.225 L 254.6625,196.725 L 255.50625,193.31875 L 255.2875,191.19375 L 255.725,189.9125 L 255.2875,189.9125 L 256.35,189.06875 L 255.725,188.225 L 256.56875,188.4125 L 258.2875,184.38125 L 259.75625,183.94375 L 259.13125,182.6625 L 259.75625,182.475 L 259.75625,183.31875 L 260.19375,183.1 L 259.75625,181.81875 L 259.35,182.0375 L 259.56875,181.6 L 258.69375,181.4125 L 260.19375,180.75625 L 260.63125,179.25625 L 260.19375,178.63125 L 260.85,178.4125 L 260.85,176.9125 L 262.5375,175.225 L 261.9125,175.00625 L 262.975,174.7875 L 261.69375,174.38125 L 263.1625,174.1625 L 263.38125,173.1 L 262.75625,173.50625 L 262.31875,173.1 L 262.975,173.31875 L 262.75625,172.6625 L 263.38125,173.1 L 263.6,171.38125 L 263.6,171.1625 L 263.1625,171.6 L 263.1625,170.975 L 262.975,171.1625 L 262.75625,170.5375 L 263.38125,170.975 L 263.6,169.9125 L 263.6,170.75625 L 264.44375,170.31875 L 264.6625,169.25625 L 264.25625,168.85 L 265.1,168.85 L 265.725,167.13125 L 265.1,167.975 L 264.88125,167.13125 L 265.50625,167.13125 L 265.50625,166.2875 L 265.725,167.13125 L 266.6,165.63125 L 266.38125,165.225 L 266.7875,165.225 L 266.7875,165.85 L 269.35,164.35 L 268.50625,164.1625 L 267.6625,164.7875 L 267.44375,164.56875 L 267.85,164.1625 L 267.6625,163.725 L 268.50625,164.1625 L 269.13125,163.725 L 269.35,164.1625 L 270.19375,162.88125 L 271.69375,162.00625 L 271.9125,160.31875 L 271.25625,160.1 L 271.25625,160.5375 L 270.4125,160.1 L 271.25625,160.1 L 271.475,160.1 L 271.69375,158.6 L 273.19375,157.35 L 275.1,151.1625 L 274.88125,146.9125 L 276.38125,143.06875 L 276.6,142.4125 L 277.225,138.81875 L 276.6,138.38125 L 277.225,138.6 L 277.0375,137.75625 L 278.725,134.5375 L 278.2875,134.5375 L 278.725,134.35 L 278.94375,132.63125 L 278.2875,131.7875 L 278.475,129.88125 L 277.50625,129.9125 L 276.6,129.81875 L 276.06875,130.225 L 275.56875,130.44375 L 275.00625,130.50625 L 274.06875,130.225 L 273.0375,130.69375 L 272.225,129.88125 L 271.2875,129.6 z M 245.94375,185.85 C 246.4011,185.83171 246.88755,185.9021 247.31875,186.1 C 247.68859,186.26974 247.81087,186.51964 247.7875,186.7875 C 247.76413,187.05536 247.56333,187.33774 247.35,187.6625 C 246.92333,188.312 246.34845,189.03293 246.38125,189.6625 C 246.30457,190.00785 245.94393,190.75511 245.44375,190.85 C 245.19366,190.89744 244.89487,190.78185 244.6,190.38125 C 244.30512,189.98065 243.99269,189.29934 243.69375,188.19375 C 243.51125,187.5188 243.72572,186.9458 244.1625,186.5375 C 244.59927,186.1292 245.25772,185.87745 245.94375,185.85 z "
	    />
    </g>
</svg>
