<?xml version="1.0" encoding="UTF-8" standalone="no"?><!DOCTYPE svg PUBLIC "-//W3C//DTD SVG 1.1//EN" "http://www.w3.org/Graphics/SVG/1.1/DTD/svg11.dtd"><svg width="100%" height="100%" viewBox="0 0 600 360" version="1.1" xmlns="http://www.w3.org/2000/svg" xmlns:xlink="http://www.w3.org/1999/xlink" xml:space="preserve" xmlns:serif="http://www.serif.com/" style="fill-rule:evenodd;clip-rule:evenodd;stroke-linejoin:round;stroke-miterlimit:2;"><path id="Washington" d="M172.343,248.545c-3.711,-0.224 1.585,-0.492 1.912,-0.546l-1.913,0.546Zm-63.405,-188.239c-0.159,0.079 -0.515,-0.496 -0.59,-0.589c-0.235,-0.295 -0.772,-0.448 -1.124,-0.535c-0.911,-0.228 -1.918,-0.008 -2.839,-0.162c-3.145,-0.524 -6.066,-1.956 -9.265,-2.356c-2.679,-0.335 -5.513,0.268 -8.141,-0.107c-0.628,-0.09 -3.392,-0.703 -3.696,-0.642c-1.036,0.207 -2.284,1.145 -3.374,0.963c-1.065,-0.177 -2.027,-0.855 -3.106,-1.071c-1.171,-0.234 -2.457,0.185 -3.589,-0.267c-1.816,-0.727 -3.79,-1.811 -5.784,-2.143c-1.938,-0.323 -5.226,1.262 -6.695,0.16c-2.994,-2.245 0.331,-7.035 -2.57,-9.211c-0.472,-0.353 -1.358,-0.179 -1.768,-0.59c-0.234,-0.234 -0.272,-0.699 -0.535,-0.91c-1.38,-1.103 -5.121,0.088 -6.106,-1.553c-1.041,-1.735 2.398,-1.858 2.785,-3.213c0.392,-1.372 -1.966,-2.777 -1.017,-3.535c0.724,-0.58 3.29,0.275 3.052,-0.911c-0.193,-0.965 -1.683,-1.678 -2.089,-2.624c-0.767,-1.79 -0.176,-5.052 -0.428,-7.07c-0.245,-1.96 -1.747,-7.037 -0.214,-8.569c0.956,-0.956 2.529,1.519 3.213,2.089c0.476,0.396 8.712,4.655 9.373,4.82c0.89,0.223 2.281,-0.041 3.053,0.268c1.204,0.481 1.225,2.74 2.517,2.999c0.629,0.125 1.77,-0.231 1.875,-0.964c0.177,-1.245 -0.99,-2.444 -0.804,-3.749c0.166,-1.161 0.03,-1.903 0.108,-2.518c0.141,-1.128 1.124,-1.287 0.749,-3.909c-0.098,-0.69 -1.346,-1.578 -1.178,-2.25c0.078,-0.309 2.987,1.401 3.481,1.446c38.694,8.815 42.179,9.616 42.686,10.123l-7.98,36.58Z" style="fill:#2c4267;fill-rule:nonzero;"/><path id="Idaho" d="M13.107,271.316c2.114,-0.237 2.317,0.722 3.408,2.359l-3.408,-2.359Zm97.412,-210.559c0.522,3.136 4.502,4.742 3.572,7.068c-0.762,1.905 -5.194,5.841 -5.533,7.536c-0.086,0.428 0.16,1.029 0,1.431c-0.134,0.336 -3.96,2.747 -4.579,4.293c-1.479,3.698 1.535,1.728 2.29,2.862c-5.928,22.929 -7.38,26.624 -7.155,27.186c51.994,10.146 52.433,11.13 53.707,10.875c3.783,-19.778 3.972,-21.074 4.388,-22.322c0.898,-2.692 2.059,-8.434 -0.191,-10.684c-0.102,-0.102 -2.483,2.25 -3.339,1.908c-0.652,-0.261 -1.342,-0.785 -2.003,-1.049c-0.882,-0.353 -1.54,0.741 -2.385,0.572c-1.27,-0.254 -2.485,-0.707 -3.72,-0.954c-1.607,-0.321 -3.367,1.326 -4.579,-0.19c-0.745,-0.932 -0.156,-2.506 -0.668,-3.53c-0.961,-1.923 -3.166,-3.733 -3.529,-5.914c-0.384,-2.299 -0.275,-4.502 -1.145,-6.678c-3.344,1.129 -5.905,-0.611 -6.201,-2.385c-0.59,-3.541 6.137,-8.724 4.388,-11.638c-6.624,-7.21 -6.432,-8.818 -7.154,-9.539c-0.656,-0.656 -1.563,-0.908 -1.813,-1.908c-0.257,-1.028 -0.724,-2.372 -0.572,-3.434c0.062,-0.433 0.379,-0.873 0.286,-1.336c-0.392,-1.958 -1.592,-3.516 -1.24,-5.628c0.303,-1.82 -0.073,-3.739 0.287,-5.533c0.383,-1.92 1.56,-3.875 1.184,-5.755c-0.144,-0.718 -6.263,-1.935 -6.554,-1.717l-7.743,36.463Z" style="fill:#2c4267;fill-rule:nonzero;"/><path id="Oregon" d="M103.727,85.807c0,-0.84 -1.111,-1.53 -1.615,-1.951c-1.09,-0.908 0.489,-4.704 0.975,-5.678c0.354,-0.705 3.517,-2.113 3.637,-3.192c0.178,-1.597 4.421,-5.071 4.944,-6.116c0.397,-0.794 0.147,-1.551 -0.141,-2.319c-1.666,-2.169 -1.794,-3.991 -2.319,-4.427c-7.631,-1.841 -11.371,-3.362 -14.281,-3.726c-9.562,0.091 -10.382,-0.561 -11.088,-0.561c-1.477,0 -2.692,1.042 -4.287,0.843c-0.815,-0.102 -1.483,-0.716 -2.249,-0.843c-1.142,-0.191 -2.401,0.31 -3.584,0.14c-0.959,-0.136 -1.886,-0.969 -2.74,-1.335c-1.395,-0.598 -3.418,-0.866 -4.92,-1.054c-1.722,-0.216 -2.681,0.43 -4.218,0.237c-1,-0.124 -1.79,-0.654 -2.572,-1.241c-3.027,-2.27 -0.493,-4.063 -1.643,-6.937c-0.586,-1.467 -1.5,-0.788 -2.529,-1.406c-0.423,-0.253 -0.368,-0.862 -0.633,-1.195c-0.469,-0.586 -2.592,-0.66 -3.162,-0.28c-3.829,2.551 -6.774,15.283 -8.645,19.958c-1.663,4.159 -2.941,7.116 -5.741,10.616c-1.028,1.284 -3.872,6.058 -4.613,7.54c-0.388,3.142 -1.534,9.198 -1.064,9.668c0.808,0.809 2.45,1.447 3.459,1.952c1.073,0.536 2.335,0.765 3.462,1.216c38.827,10.65 40.89,11.223 42.938,11.736c13.925,2.951 15.249,4.533 16.234,3.795" style="fill:#2c4267;fill-rule:nonzero;"/><path id="California" d="M97.382,234.841c0.794,-0.794 -1.005,-2.136 -1.341,-2.585c-0.906,-1.207 0.323,-3.127 0.567,-4.347c0.072,-0.361 -0.089,-0.779 0,-1.135c0.211,-0.845 1.874,-0.591 2.363,-1.323c0.979,-1.469 0.623,-3.704 1.418,-5.294c0.898,-1.797 3.073,-1.561 4.349,-2.836c1.074,-1.075 -0.966,-2.915 -1.229,-3.97c-0.123,-0.49 0.004,-1.016 -0.095,-1.513c-0.128,-0.641 -1.077,-1.188 -1.229,-1.796c-0.278,-1.113 0.046,-2.932 -0.661,-3.875c-0.558,-0.744 -1.522,-0.863 -2.08,-1.607c-0.395,-0.525 -0.503,-1.539 -0.756,-2.175c-0.446,-1.113 -1.313,-1.683 -1.891,-2.646c-0.476,-0.795 -0.57,-1.8 -1.135,-2.553c-0.31,-0.414 -0.804,-0.426 -1.134,-0.756c-27.272,-40.725 -31.677,-44.845 -32.99,-50.1c-0.301,-1.203 -2.023,-1.38 -2.269,-2.363c-0.234,-0.938 0.564,-1.13 0.945,-1.702c0.456,-0.681 -0.465,-1.638 -0.283,-2.363c0.502,-2.005 1.384,-3.932 1.891,-5.955c0.311,-1.245 0.254,-2.623 0.567,-3.876c4.887,-17.278 7.506,-22.888 6.568,-24.296c-31.774,-8.45 -36.649,-10.205 -36.801,-10.091c-1.31,0.983 -1.318,8.103 -2.002,9.81c-0.911,2.279 -4.701,5.503 -5.199,6.995c-1.614,4.844 1.149,7.192 1.797,11.722c0.647,4.532 -1.884,6.461 -1.135,10.209c2.609,6.977 3.391,7.816 3.781,8.791c0.549,1.371 0.133,2.702 0.473,4.064c0.395,1.581 2.038,2.307 2.351,3.874c0.645,3.227 -1.593,5.813 -0.528,9.009c0.992,2.974 4.12,3.641 4.485,5.83c0.525,3.147 -3.155,3.574 -2.716,5.77c6.356,14.934 6.689,15.126 6.901,15.408c0.317,0.425 0.076,1.022 0.472,1.419c0.443,0.442 1.274,0.604 1.418,1.323c0.4,2 -1.525,8.293 -1.513,8.319c0.327,0.652 0.996,0.478 1.513,0.85c5.796,4.173 6.77,1.042 8.507,3.308c1.708,2.228 4.035,4.623 5.389,6.429c1.017,1.356 2.466,0.101 3.592,0.945c1.439,1.08 1.03,3.29 1.702,4.632c0.072,0.144 2.443,0.458 3.213,1.229c1.501,1.499 5.012,6.527 5.672,8.507c0.72,2.159 -0.692,5.427 -0.317,7.68" style="fill:#2c4267;fill-rule:nonzero;"/><path id="Nevada" d="M102.555,203.311c0.403,-3.035 -1.493,-13.397 4.318,-12.235c0.655,0.131 2.874,2.638 3.329,2.069c14.206,-72.937 14.834,-74.406 14.573,-74.667c-47.836,-10.696 -53.212,-12.046 -53.742,-11.833c-8.025,31.859 -10.301,32.508 -9.701,36.711c39.596,59.328 39.825,60.112 40.049,60.561c0.033,0.065 0.736,0.742 0.919,0.696" style="fill:#2c4267;fill-rule:nonzero;"/><path id="Arizona" d="M153.375,261.235c0.903,-4.21 0.806,-8.538 1.282,-12.822c0.238,-2.139 0.936,-4.173 1.282,-6.25c0.483,-2.897 0.722,-5.849 1.202,-8.735c0.199,-1.191 0.894,-2.262 1.042,-3.445c0.527,-4.214 0.599,-8.519 1.202,-12.741c0.757,-5.3 2.004,-10.63 2.004,-16.027c0,-2.693 0.207,-5.362 0.72,-7.933c0.035,-0.172 0.431,-1.574 0.321,-1.683c-0.406,-0.407 -4.983,-0.93 -5.862,-1.181c-1.018,-0.291 -1.952,-0.189 -3.008,-0.321c-2.151,-0.269 -4.632,-1.254 -6.844,-1.5c-3.906,-0.433 -7.941,-1.159 -11.781,-1.927c-3.24,-0.648 -6.582,-1.074 -9.847,-1.482c-1.943,-0.243 -3.784,-0.741 -5.689,-1.122c-0.815,-0.162 -1.771,-0.042 -2.565,-0.24c-0.403,-0.101 -2.244,-0.774 -2.564,-0.561c-0.185,0.123 -0.168,10.9 -3.365,11.7c-0.619,0.154 -1.273,0.42 -1.923,0.16c-0.246,-0.098 -2.799,-3.132 -3.767,-1.843c-1.381,1.84 0.02,9.095 -0.4,11.619c-0.183,1.093 -1.166,2.229 -0.882,3.366c0.482,1.926 3.41,6.918 2.805,8.734c-0.606,1.817 -2.996,2.071 -4.087,3.526c-1.542,2.056 -0.644,4.171 -1.603,5.77c-0.775,1.292 -2.644,1.362 -3.366,2.805c-0.29,0.58 0.076,2.347 0.641,2.724c0.843,0.561 3.358,0.013 1.683,2.805c-0.253,0.423 -0.25,0.928 -0.721,1.281c-1.031,0.774 -2.579,0.919 -3.606,1.603c-0.179,0.119 -0.016,0.449 0.08,0.641c0.932,1.863 5.712,3.29 7.373,4.328c2.796,1.747 5.596,3.433 7.933,5.769c0.561,0.562 0.979,1.184 1.602,1.683c0.831,0.664 1.971,0.974 2.885,1.522c1.161,0.696 2.182,1.568 3.366,2.244c3.111,1.779 14.092,6.308 17.709,7.212c2.701,0.675 5.478,1.206 8.254,1.603c1.127,0.161 8.071,0.527 8.654,-0.641c0.156,-0.312 0.081,-1.244 0.081,-1.603" style="fill:#2c4267;fill-rule:nonzero;"/><path id="New-Mexico" d="M225.683,202.652c-0.332,0.332 -1.618,0.234 -1.651,0.743c-3.554,54.637 -3.634,56.806 -4.01,57.183c-28.2,-1.911 -36.809,-3.133 -38.582,-3.133c-1.826,0 0.349,3.039 -0.718,3.394c-11.08,-1.146 -14.035,-2.023 -16.386,-2.089c-1.464,-0.041 -0.006,5.726 -1.109,5.614c-3.104,-0.313 -7.568,-0.366 -8.095,-0.717c9.089,-68.64 8.946,-71.288 9.879,-72.222c59.105,5.779 60.233,5.753 60.259,5.779" style="fill:#2c4267;fill-rule:nonzero;"/><path id="Texas" d="M282.629,342.804c0.425,-0.075 0.884,-0.931 1.008,-0.807c0.354,0.355 -2.374,1.887 -2.117,2.016c0.751,0.376 1.825,-1.664 1.916,-2.117c0.17,-0.852 -0.772,-2.079 -1.109,-2.922c-0.486,-1.215 -2.149,-7.911 -2.016,-8.971c0.152,-1.221 2.585,-6.135 2.822,-7.56c0.283,-1.696 -2.246,-2.28 -1.31,-3.528c0.717,-0.956 2.397,-0.636 3.326,-1.008c0.933,-0.373 0.923,-2.089 1.713,-2.721c0.389,-0.31 3.526,-1.046 4.738,-2.016c2.747,-2.198 7.839,-4.155 10.079,-5.947c3.82,-3.056 7.79,-5.742 11.693,-8.668c0.657,-0.494 1.12,-1.298 1.814,-1.714c1.588,-0.952 5.617,-1.888 6.753,-3.024c0.532,-0.532 0.105,-1.845 0.202,-2.519c0.281,-1.968 1.359,-4.145 1.108,-6.149c-0.082,-0.657 -0.691,-1.223 -0.806,-1.915c-0.041,-0.25 2.017,-3.112 1.612,-5.947c-0.282,-1.974 -0.921,-4.162 -1.814,-5.947c-0.566,-1.133 -0.849,-2.399 -1.246,-3.59c-0.154,-0.463 -1.755,-4.943 -1.878,-5.683c-0.192,-3.366 -0.565,-8.507 -0.504,-8.87c0.207,-1.246 0.768,-6.695 -0.504,-7.459c-0.487,-0.292 -3.184,-0.087 -4.133,-0.403c-1.877,-0.626 -4.162,-2.938 -6.148,-3.931c-1.093,-0.546 -1.212,0.506 -2.016,0.907c-0.493,0.247 -2.268,0.111 -2.822,0c-0.461,-0.092 -0.858,-0.796 -1.311,-0.705c-0.61,0.121 -1.019,1.308 -1.512,1.209c-0.673,-0.134 -1.275,-1.266 -2.116,-0.705c-1.318,0.878 -1.383,1.612 -3.125,1.612c-1.161,0 -6.161,-2.192 -6.35,-2.116c-1.002,0.4 -0.593,2.243 -2.899,1.782c-1.672,-0.335 -2.13,-1.559 -3.754,-1.883c-2.009,-0.402 -3.442,0.737 -5.342,-0.403c-1.514,-0.909 -0.045,-1.913 -2.318,-2.822c-1.452,-0.582 -2.126,0.876 -3.664,0.492c-0.46,-0.115 -0.821,-0.585 -1.282,-0.769c-1.656,-0.662 -2.975,-0.718 -4.923,-1.231c-0.696,-0.183 0.08,-1.702 -0.714,-2.02c-0.665,-0.266 -2.214,0.027 -3.184,-0.134c-1.485,-0.247 -2.615,-1.308 -3.898,-1.949c-1.549,-0.774 -1.158,-2.196 -1.385,-3.562c0.45,-18.013 1.551,-23.434 1.484,-23.467c-11.837,-0.684 -15.085,-0.665 -17.228,-0.665c-1.675,0 -12.963,-0.531 -13.334,-0.308c-1.286,0.772 -0.756,4.975 -0.959,6.196c-2.621,35.538 -2.429,39.875 -3.125,44.048c-0.178,1.069 -0.397,7.213 -0.604,7.559c-0.135,0.225 -0.387,0.65 -0.605,0.504c-0.218,-0.145 0.386,-0.37 0.504,-0.604c0.242,-0.485 -1.932,-0.011 -2.016,0c-30.842,-1.754 -31.454,-2.42 -32.758,-2.42c-0.598,0 -3.705,-0.028 -3.327,1.109c0.276,0.827 1.534,1.394 2.016,2.117c0.478,0.717 0.185,1.596 0.807,2.218c0.736,0.735 2.047,-0.07 2.922,0.806c0.393,0.391 0.192,1.283 0.404,1.814c0.457,1.145 1.628,2.19 2.318,3.225c0.19,0.285 3.579,3.495 3.931,3.73c0.895,0.596 2.23,0.516 3.024,1.31c0.866,0.866 0.82,2.503 1.008,3.628c0.243,1.459 2.008,2.18 2.318,3.73c0.338,1.689 -0.629,3.307 -0.302,4.939c0.522,2.611 3.345,4.212 5.342,5.544c0.715,0.476 1.217,1.214 2.016,1.613c0.553,0.276 1.21,0.447 1.713,0.806c1.663,1.188 2.963,3.467 5.141,3.83c0.47,0.078 1.482,-0.172 1.814,-0.504c0.304,-0.304 0.517,-1.025 0.807,-1.411c0.493,-0.658 1.167,-0.669 1.612,-1.411c0.74,-1.233 0.405,-2.849 1.512,-4.233c0.505,-0.632 1.527,-0.563 2.217,-0.908c4.748,-2.373 4.139,-0.947 8.568,-0.504c2.054,0.206 3.861,-0.337 5.745,0.605c1.525,0.763 0.959,2.168 1.815,3.024c1.507,1.507 3.717,2.581 5.039,4.234c0.307,0.383 -0.03,0.894 0.303,1.31c0.22,0.275 0.6,0.297 0.806,0.504c0.353,0.353 0.215,1.374 0.303,1.814c0.084,0.42 2.924,8.603 3.023,8.769c0.568,0.946 1.722,0.613 2.42,1.31c0.86,0.861 0.811,2.628 1.612,3.629c1.095,1.368 2.229,2.912 3.629,4.032c0.395,0.316 1.063,0.256 1.411,0.604c0.864,0.864 -0.493,2.749 -0.101,3.73c0.299,0.746 0.054,-0.047 0.504,0.404c0.585,0.585 0.079,2.185 0.202,2.922c0.214,1.282 0.933,1.469 1.612,2.319c0.447,0.557 0.394,1.583 0.606,2.217c0.205,0.616 1.518,2.638 2.116,4.133c0.796,1.989 3.001,1.071 4.435,1.31c2.704,0.451 2.331,2.867 4.233,3.629c1.038,0.414 2.339,-1.057 3.225,-1.411c1.113,-0.446 1.947,1.047 2.722,1.511c1.181,0.709 2.611,0.282 3.326,1.714" style="fill:#2c4267;fill-rule:nonzero;"/><path id="Louisiana" d="M376.621,299.268c0.394,-0.29 0.385,-0.682 0,-0.99c-1.976,-1.58 -7.673,-1.216 -7.092,-4.7c0.438,-2.628 3.539,-1.938 3.216,-3.876c-0.491,-2.943 -2.55,2.331 -4.948,0.412c-1.5,-1.2 0.989,-2.307 1.154,-3.628c0.227,-1.818 -1.877,-2.931 -2.638,-4.454c-0.573,-1.144 -0.34,-2.653 -0.165,-3.875c0.012,-0.09 0.252,-0.781 0.165,-0.825c-16.527,0.33 -19.13,0.909 -19.957,0.412c-1.089,-0.653 0.562,-7.212 0.907,-8.247c0.324,-0.971 1.164,-1.7 1.566,-2.638c0.267,-0.623 0.841,-0.989 1.238,-1.484c0.998,-1.248 0.911,-3.239 1.154,-4.701c0.077,-0.461 0.959,-0.504 0.825,-0.907c-0.166,-0.498 -0.773,-0.616 -1.072,-0.99c-0.17,-0.212 -0.998,-3.26 -1.072,-3.629c-0.085,-0.424 -0.115,-3.165 -0.33,-3.381c-28.193,0.123 -29.261,-0.066 -29.254,0.174c0.308,9.35 -0.048,9.972 0.309,11.042c2.044,4.006 2.085,6.247 3.133,8.081c0.595,1.041 2.319,1.607 2.392,2.969c0.133,2.514 -0.025,5.352 -0.743,7.505c-0.171,0.513 -1.302,1.835 -1.236,2.226c0.045,0.276 0.669,0.562 0.659,0.825c-0.058,1.582 -0.374,3.132 -0.444,4.413c-0.047,0.856 -1.026,3.772 -0.545,4.493c5.914,-0.911 7.575,-0.256 8.973,0.268c1.487,0.557 2.856,1.109 4.386,1.546c0.714,0.204 1.505,-0.061 2.227,0.083c0.554,0.111 1.403,0.725 1.978,0.495c1.33,-0.532 -0.159,-2.233 0.496,-3.052c5.076,0.158 5.825,-0.385 6.515,-0.247c1.624,0.325 0.217,2.076 0.824,2.887c0.584,0.777 2.339,-0.136 3.134,0.659c0.95,0.95 -0.213,2.187 0.412,2.969c0.238,0.297 0.842,0.368 1.155,0.577c4.742,3.162 3.919,0.519 6.02,-0.742c0.851,-0.511 1.249,-0.342 2.226,-1.319c0.768,-0.767 0.769,0.67 0.33,0.494c-0.282,-0.113 0.778,-1.625 1.485,0.495c0.115,0.347 0.246,1.981 0.742,1.484c1.185,-1.185 -0.133,-2.598 0.577,-3.546c0.517,-0.688 1.586,-0.501 2.062,-1.071c0.075,-0.09 0.15,-0.183 0.247,-0.248c0.8,-0.533 0.13,0.153 0.165,0.33c0.063,0.314 1.055,1.394 1.402,1.567c0.87,0.435 1.732,0.297 2.639,0.66c1.316,0.526 4.477,3.473 5.36,0.824" style="fill:#2c4267;fill-rule:nonzero;"/><path id="Montana" d="M227.587,42.252c-3.992,40.736 -3.555,47.623 -4.534,48.601c-55.185,-6.21 -61.909,-8.147 -62.963,-7.936c-0.599,0.12 -0.211,4.746 -0.831,5.367c-0.28,0.28 -1.633,-1.517 -1.89,-1.663c-1.467,-0.838 -2.256,0.701 -3.175,1.436c-0.827,0.661 -1.58,-0.234 -2.494,-0.151c-1.473,0.133 -3.394,0.832 -4.913,0.529c-0.87,-0.174 -1.662,-0.453 -2.57,-0.453c-0.221,0 -1.734,0.231 -1.814,0.15c-0.898,-0.897 -0.337,-3.411 -0.68,-4.61c-0.345,-1.206 -2.373,-4.231 -3.099,-5.443c-1.136,-1.892 -0.758,-4.694 -1.058,-6.802c-0.543,-3.802 -3.683,1.231 -5.065,-0.151c-1.949,-1.95 2.416,-8.759 3.175,-11.035c0.756,-2.268 -1.376,-2.513 -2.495,-3.855c-1.926,-2.313 -2.995,-5.16 -4.308,-7.786c-0.457,-0.913 -1.761,-0.859 -2.268,-2.041c-0.566,-1.321 0.37,-2.544 0.152,-3.855c-0.288,-1.723 -1.599,-3.318 -1.89,-5.064c1.604,-5.996 2.08,-10.832 2.796,-11.262c95.14,14.522 99.808,14.494 100.227,15.193c0.271,0.451 -0.151,2.026 -0.151,2.569" style="fill:#2c4267;fill-rule:nonzero;"/><path id="North-Dakota" d="M291.283,81.628c-63.076,-2.424 -64.224,-2.383 -64.536,-2.57c2.553,-34.022 2.603,-36.601 2.844,-36.892c48.037,2.067 57.08,1.734 57.634,2.176c0.422,0.338 0.251,1.493 0.176,1.941c-0.645,3.869 -0.999,9.263 1,12.761c0.995,1.743 1.647,7.053 1.353,9.116c0.732,6.976 2.076,13.747 2.058,13.762c-0.127,0.095 -0.661,-0.059 -0.823,-0.059" style="fill:#2c4267;fill-rule:nonzero;"/><path id="South-Dakota" d="M291.452,83.228c-61.16,-1.769 -65.094,-3.364 -65.197,-2.26c-2.947,31.749 -3.167,35.989 -2.947,36.12c40.019,2.789 51.832,2.566 52.76,2.831c0.863,0.247 1.911,1.301 2.693,1.769c2.073,1.245 4.143,-0.819 6.384,0.078c0.765,0.305 6.275,2.877 6.615,2.537c0.572,-0.571 0.187,-2.425 0.308,-3.153c0.087,-0.525 1.25,-2.333 0.923,-2.769c-1.013,-1.35 -1.692,-1.183 -1.692,-3.231c0,-1.049 0.825,-0.94 1.23,-1.615c0.496,-0.827 0.618,-1.7 0.846,-2.615c-0.843,-12.439 0.223,-15.357 -0.23,-18.077c-0.287,-1.722 -2.795,-2.258 -3.077,-4.231c-0.281,-1.962 2.28,-3.391 1.692,-5.153" style="fill:#2c4267;fill-rule:nonzero;"/><path id="Mississippi" d="M371.17,284.461c0.246,-0.555 0.504,-1.281 1.077,-1.567c0.695,-0.347 2.102,0.161 2.889,0.049c1.391,-0.199 2.816,-1.13 4.308,-0.833c0.435,0.087 2.059,1.338 3.036,0.686c0.144,-0.096 -0.352,-2.06 -0.392,-2.301c-1.832,-27.07 -1.861,-28.895 -1.861,-30.796c0,-5.521 0.735,-11.115 0.735,-16.647c0,-0.91 -0.084,-9.357 -0.343,-9.351c-17.147,0.398 -20.646,0.64 -20.729,0.689c-0.363,0.218 -0.023,1.311 -0.324,1.612c-1.128,1.129 -2.7,1.613 -2.987,3.329c-0.104,0.628 0.899,1.832 0.588,2.35c-0.635,1.059 -2.151,1.089 -2.84,2.008c-1.782,2.377 -0.322,2.162 -0.881,3.28c-0.42,0.84 -1.287,1.321 -1.812,2.056c-0.286,0.402 -0.636,3.228 -0.734,3.819c-0.086,0.515 0.808,0.761 0.881,1.274c0.095,0.663 -0.63,1.02 -0.538,1.664c0.131,0.921 0.84,1.654 0.93,2.644c0.159,1.745 -1.139,2.96 -0.833,4.798c0.223,1.335 1.47,2.863 1.47,4.162c0,0.082 -0.057,0.925 -0.049,0.93c0.43,0.287 1.351,0.487 1.174,1.371c-3.247,8.159 -5.427,10.003 -5.924,12.484c0.11,2.686 -0.187,3.244 -0.049,3.428c17.119,0.196 18.648,-0.469 19.683,0.049c0.857,0.429 0.499,3.303 0.636,4.26c0.211,1.478 2.063,1.893 2.595,4.553" style="fill:#2c4267;fill-rule:nonzero;"/><path id="Oklahoma" d="M313.125,241.745c-0.635,-11.356 -0.276,-22.898 -1.688,-34.193c-0.171,-1.373 0.008,-6.09 -0.925,-7.023c-0.258,-0.258 -1.022,-0.114 -1.307,0c-1.958,0.783 -6.168,0.323 -8.33,0.49c-4.352,0.334 -12.994,-0.777 -17.362,-1.401c-2.906,-0.415 -4.81,1.282 -7.733,1.098c-45.219,-2.859 -48.143,-3.066 -48.463,-2.746c-0.58,0.579 -0.701,3.941 -0.436,4.736c29.57,1.253 31.003,1.003 31.361,1.361c-1.146,21.474 -2.696,25.91 0.654,28.422c1.138,0.853 1.062,-1.541 1.524,-1.633c0.661,-0.132 0.797,1.514 1.253,1.742c0.454,0.228 0.49,-1.452 1.252,-1.197c1.953,0.65 2.346,3.388 2.723,3.538c1.576,0.631 3.312,0.842 4.954,1.253c0.375,0.093 0.598,0.503 0.98,0.599c0.204,0.051 2.755,-0.673 4.03,-0.164c1.575,0.63 1.363,2.478 2.721,3.158c0.402,0.201 2.738,-0.618 3.648,-0.435c1.413,0.282 1.878,1.823 3.376,2.123c1.689,0.338 0.767,-2.373 2.831,-1.96c1.219,0.243 6.577,2.864 7.405,2.45c0.635,-0.317 -0.21,-1.796 0.817,-1.796c0.906,0 3.48,0.874 4.138,0.381c0.264,-0.198 0.137,-0.702 0.435,-0.926c0.96,-0.72 2.402,0.513 3.376,0.707c1.215,0.243 1.219,-0.956 2.015,-1.089c0.442,-0.073 3.942,1.727 4.628,2.07c0.364,0.182 1.842,1.258 2.178,1.034c0.147,-0.098 -0.384,-1.207 -0.436,-1.361" style="fill:#2c4267;fill-rule:nonzero;"/><path id="Florida" d="M474.771,336.727c-0.146,0.668 0.19,4.191 1.415,3.702c0.886,-0.355 0.997,-1.775 1.851,-2.287c1.509,-0.905 3.4,0.547 5.117,-1.742c0.933,-1.244 -0.197,-4.135 0.108,-5.661c0.198,-0.987 1.015,-1.952 1.198,-3.048c0.532,-3.192 -0.041,-9.738 -1.197,-12.629c-0.581,-1.45 -2.373,-3.454 -3.375,-4.79c-1.053,-1.404 -1.503,-4.1 -2.504,-5.77c-0.923,-1.538 -3.411,-4.716 -3.811,-6.314c-0.286,-1.145 1.199,-1.936 0.218,-3.049c-8.594,-9.74 -13.629,-24.228 -14.262,-24.386c-2.88,0.274 -4.768,0.065 -4.899,0.327c-0.147,0.294 2.799,4.187 -0.762,4.899c-2.39,0.478 -1.884,-2.68 -4.245,-2.286c-24.272,2.286 -27.108,2.286 -27.98,1.415c-1.387,-1.387 -0.913,-2.773 -3.374,-3.266c-24.61,2.939 -26.455,2.804 -26.455,3.157c0,0.861 2.157,2.005 2.613,2.613c0.765,1.021 -0.876,4.108 0.544,4.464c1.616,0.403 3.803,-1.196 5.443,-1.524c1.168,-0.234 5.747,-0.714 6.859,-0.436c1.798,0.449 3.305,1.447 5.008,2.177c2.439,1.046 5.129,1.658 6.423,4.246c1.057,2.114 1.148,0.634 3.375,-0.109c1.235,-0.411 2.89,-0.193 4.028,-0.762c0.413,-0.206 0.168,-0.831 0.762,-0.98c0.257,-0.064 0.754,0.005 0.98,-0.109c0.772,-0.386 0.529,-2.161 1.198,-2.83c0.844,-0.845 7.203,0.126 8.056,0.98c0.416,0.416 0.991,0.773 1.415,1.197c0.446,0.445 0.285,1.276 0.762,1.633c0.401,0.301 1.101,0.012 1.416,0.327c0.038,0.038 1.181,2.161 2.177,3.157c1.155,1.155 2.941,1.062 4.354,1.416c1.394,0.348 0.903,1.664 1.634,2.394c0.48,0.48 2.815,3.209 2.939,3.702c0.169,0.678 -1.53,6.836 -0.98,9.036c0.363,1.454 3.925,-0.85 4.464,1.306c0.102,0.41 -1.346,4.203 -1.634,4.681c-0.163,0.274 -0.462,0.221 -0.543,0.545c-0.201,0.805 0.41,1.493 0.87,2.069c1.296,1.62 3.322,4.085 4.137,5.987c0.398,0.927 1.953,4.495 2.722,5.008c0.051,0.034 1.291,-1.903 2.286,-1.306c1.118,0.67 1.594,4.75 2.831,5.987c0.44,0.44 0.828,-0.122 1.306,-0.218c0.679,-0.135 1.454,0.19 2.069,0.436c2.042,0.817 3.658,4.421 5.226,5.988c0.33,0.33 0.326,1.197 0.326,1.633l-0.109,-0.98Zm-23.516,-27.434c0.061,0.531 0.334,0.87 0.871,0.87c1.789,0 -0.87,-3.789 -0.87,-1.088l0,0.218Z" style="fill:#2c4267;fill-rule:nonzero;"/><path id="South-Carolina" d="M462.374,249.784c-0.224,-0.681 -0.733,-1.112 -1.167,-1.634c-0.529,-0.634 -0.834,-1.533 -1.401,-2.101c-0.808,-0.808 -2.202,-0.536 -2.957,-1.478c-1.326,-1.658 -0.565,-4.021 -1.868,-5.758c-0.739,-0.986 -2.191,-1.286 -3.112,-2.023c-1.786,-1.429 -2.804,-3.932 -4.824,-5.447c-1.34,-1.005 -3.61,-1.53 -4.67,-2.802c-1.36,-1.633 -2.025,-4.127 -3.501,-5.602c-1.281,-1.282 -4.607,-1.079 -5.369,-2.413c-0.171,-0.3 -0.431,-0.885 -0.312,-1.245c0.006,-0.017 1.94,-2.561 2.024,-2.645c0.57,-0.57 6.89,-3.262 7.704,-3.424c1.62,-0.324 3.338,0.214 5.004,0.029c2.076,-0.23 7.017,-0.739 8.924,-0.263c1.996,0.499 3.112,2.12 5.231,2.473c2.262,0.377 4.572,-1.39 6.788,-0.947c2.612,0.523 4.51,2.617 6.865,3.794c1.157,0.578 8.082,5.369 7.884,6.353c-0.279,1.396 -2.896,1.824 -3.502,3.035c-1.176,2.353 -0.54,5.595 -1.167,6.847c-0.732,1.465 -2.321,1.388 -3.345,2.412c-1.545,1.544 -2.827,4.383 -4.825,6.381c-1.367,1.367 -3.091,1.01 -3.58,1.401c-1.06,0.848 1.079,3.117 -0.544,3.813c-1.192,0.511 -2.664,2.028 -3.891,2.334c-0.261,0.066 -0.474,-0.132 -0.622,-0.311c-0.364,-0.436 -0.15,-1 -0.389,-1.478c-0.454,-0.907 -1.713,-1.684 -1.713,-2.724" style="fill:#2c4267;fill-rule:nonzero;"/><path id="North-Carolina" d="M423.28,216.964c1.098,-0.18 2.183,-0.346 3.268,-0.528c1.618,-0.269 3.533,0.623 4.533,0.423c3.548,-0.71 7.531,-4.775 10.543,-5.377c1.304,-0.261 2.126,-0.039 3.374,0.211c0.258,0.052 7.556,-0.056 7.801,-0.106c1.195,-0.239 5.108,-0.884 6.115,-0.632c1.35,0.337 0.084,2.357 2.529,2.846c3.272,0.655 6.459,-2.303 9.594,-0.422c0.358,0.215 0.676,0.676 0.949,0.949c0.629,0.63 1.997,0.707 2.741,1.265c0.668,0.501 1.063,1.038 1.792,1.476c2.042,1.225 7.029,2.366 8.329,4.534c0.37,0.616 0.253,1.436 0.421,2.108c0.106,0.42 2.059,0.816 2.425,0.633c0.198,-0.099 0.576,-0.407 0.633,-0.633c0.324,-1.296 -4.245,0.24 -2.952,-1.054c1.035,-1.035 4.513,-0.55 4.85,-1.054c0.225,-0.34 -0.518,-1.602 -0.211,-2.215c0.366,-0.732 0.8,-1.042 1.159,-1.581c0.272,-0.407 -0.105,-0.693 -0.105,-1.054c0,-0.119 1.63,-2.528 1.792,-2.636c0.669,-0.446 1.422,-0.96 2.108,-1.476c0.377,-0.281 0.421,-0.841 0.844,-1.159c2.211,-1.658 4.58,-2.516 7.169,-3.163c0.294,-0.073 2.109,-0.964 2.109,-1.159c0,-0.204 -4.117,-0.639 -4.428,-0.95c-0.152,-0.151 1.04,-2.58 1.159,-3.057c0.34,-1.357 -1.98,-1.988 -1.686,-3.163c0.866,-3.465 1.989,0.847 4.533,0.211c1.184,-0.295 0.459,-1.786 1.054,-2.53c0.287,-0.359 0.7,-0.999 1.055,-1.265c0.274,-0.206 1.374,-0.328 1.476,-0.633c0.074,-0.223 -0.843,-1.906 -0.738,-2.425c0.1,-0.502 1.581,-0.82 1.581,-1.264c0,-0.666 -0.999,-0.367 -1.266,-0.633c-0.477,-0.478 -1.174,-1.296 -1.475,-1.898c-0.296,-0.591 -0.853,-5.025 -1.111,-4.955c-30.162,8.174 -57.164,9.584 -58.243,10.016c-0.898,2.273 -0.662,3.041 -2.109,4.849c-1.731,2.165 -2.069,1.563 -4.006,2.531c-0.893,0.447 -1.017,1.835 -2.108,2.108c-0.633,0.158 -1.655,-0.124 -2.214,0.211c-1.265,0.759 -0.797,2.273 -1.371,2.847c-0.96,0.96 -2.513,1.911 -3.795,2.424c-0.555,0.222 -4.37,1.749 -4.428,1.792c-1.559,1.17 -1.397,2.648 -2.003,3.374c-0.399,0.479 -4.611,2.741 -1.582,2.741" style="fill:#2c4267;fill-rule:nonzero;"/><path id="Virginia" d="M503.044,181.4c-0.744,-0.264 -0.674,-2.061 -1.49,-1.789c-0.52,0.173 -4.383,1.109 -4.101,-0.299c0.269,-1.345 1.902,-0.689 0.522,-2.758c-0.399,-0.6 -1.968,-2.477 -1.566,-3.281c0.231,-0.463 0.929,-0.69 1.043,-1.267c0.238,-1.183 -0.773,-2.484 -0.969,-3.654c-0.034,-0.207 0.121,-0.674 -0.075,-0.819c-2.485,-1.865 -9.082,-2.413 -10.661,-4.623c-1.056,-1.479 0.602,-5.511 0.596,-5.517c-0.363,-0.455 -1.035,-0.324 -1.49,-0.597c-0.701,-0.42 -1.416,-1.252 -2.089,-1.789c-0.236,-0.19 -1.557,-1.645 -1.714,-1.566c-1.187,0.593 -0.692,1.936 -2.759,1.64c-0.626,-0.089 -2.96,-1.123 -3.28,-1.044c-0.08,0.02 -0.205,0.474 -0.224,0.522c-0.231,0.578 -0.783,1.38 -0.895,1.939c-0.059,0.295 0.119,0.711 -0.074,0.969c-0.405,0.54 -1.156,0.913 -1.417,1.566c-0.074,0.183 0.059,0.467 -0.149,0.746c-0.368,0.49 -1.034,1.707 -1.491,2.013c-0.618,0.412 -1.58,0.765 -2.013,1.416c-0.844,1.266 -0.616,2.703 -1.79,3.877c-1.542,1.542 -3.471,-0.812 -4.026,0.298c-0.706,1.413 -0.52,3.276 -1.118,4.772c-0.584,1.459 -1.751,2.977 -2.013,4.548c-0.429,2.573 0.797,3.869 -2.088,5.518c-0.719,0.411 -2.394,1.714 -3.206,1.714c-0.313,0 -0.754,-0.346 -1.043,-0.298c-0.374,0.062 -1.646,2.139 -2.611,2.46c-0.389,0.13 -0.916,-0.135 -1.341,-0.075c-1.549,0.222 -3.02,0.901 -4.548,1.119c-0.926,0.132 -2.341,-0.507 -3.057,-1.044c-0.207,-0.155 -0.638,-1.645 -0.895,-1.491c-0.54,0.325 -0.644,1.038 -1.118,1.417c-2.219,1.775 -4.084,3.679 -5.517,6.189c-0.515,0.899 -2.76,2.197 -2.76,2.46c0,0.166 4.153,-0.297 4.518,-0.312c9.03,-0.377 5.924,-1.224 8.937,-1.506c45.72,-4.283 48.021,-7.326 48.727,-7.428c1.188,-0.169 12.039,-1.821 9.469,-3.876" style="fill:#2c4267;fill-rule:nonzero;"/><path id="West-Virginia" d="M478.016,153.043c0.166,-1.431 0.005,-2.172 -1.5,-2.548c-3.132,-0.784 -2.196,-0.4 -5.196,1.099c-0.647,0.324 -1.68,-0.024 -2.248,0.45c-0.56,0.466 -0.983,1.174 -1.549,1.599c-1.109,0.832 -2.506,1.335 -3.648,2.248c-0.437,0.349 -1.331,1.965 -1.748,2.049c-0.972,0.194 -1.002,-6.199 -1.25,-6.696c-0.701,-1.402 -8.076,2.033 -9.543,0.2c-0.447,-0.56 -1.499,-6.658 -1.499,-7.595c0,-0.212 -0.43,-1.998 -0.449,-1.998c-0.109,0 -0.3,2.463 -0.3,2.698c0,1.721 0.397,8.139 -0.55,9.243c-1.049,1.224 -2.16,3.065 -3.547,3.898c-2.396,1.437 -1.08,-1.174 -4.497,3.097c-1.164,1.455 1.392,2.756 -0.1,4.248c-0.893,0.893 -2.654,-1.137 -2.998,-0.45c-0.588,1.176 0.08,2.887 -0.1,4.147c-0.136,0.955 -0.789,2.018 -1.099,2.948c-0.38,1.14 -2.685,1.492 -2.498,2.798c0.168,1.176 1.987,2.137 2.748,2.898c0.799,0.799 1.185,2.035 1.998,2.848c1.472,1.471 5.097,5.513 7.295,5.146c1.273,-0.211 1.921,-1.713 2.599,-1.849c0.519,-0.103 0.906,1.149 1.648,1c1.563,-0.313 1.293,-2.456 2.348,-3.248c0.769,-0.576 1.341,0.302 2.099,0.15c1.09,-0.218 2.361,-1.649 2.998,-2.499c0.616,-0.821 0.414,-2.649 0.699,-3.647c0.797,-2.788 2.229,-5.524 3.248,-8.244c0.331,-0.88 -0.095,-1.992 0.55,-2.798c1.71,-2.138 2.745,2.317 3.747,1.649c1.426,-0.951 0.576,-3.032 1.299,-4.297c0.432,-0.755 1.272,-0.489 1.849,-0.95c0.566,-0.453 1.316,-1.395 1.799,-1.998c0.488,-0.61 1.103,-1.257 1.449,-1.949c0.805,-1.61 -0.039,-4.479 2.298,-4.946c1.254,-0.251 2.431,1.104 3.597,1.299" style="fill:#2c4267;fill-rule:nonzero;"/><path id="Utah" d="M170.089,139.616c-16.739,-2.359 -18.504,-2.151 -18.915,-2.7c-0.678,-0.903 2.779,-10.285 1.692,-13.183c-22.956,-3.961 -25.789,-5.097 -26.344,-4.681c-11.627,57.995 -12.34,61.028 -11.992,61.898c40.927,7.469 48.89,8.754 49.351,8.292" style="fill:#2c4267;fill-rule:nonzero;"/><path id="Wyoming" d="M219.359,143.559c3.458,-42.256 4.433,-50.546 3.739,-50.893c-56.006,-6.81 -61.564,-8.23 -62.165,-7.778c-6.974,46.622 -8.072,51.16 -8.06,51.175c60.011,7.131 63.455,7.293 66.168,7.293" style="fill:#2c4267;fill-rule:nonzero;"/><path id="Colorado" d="M238.454,146.987c-63.522,-6.748 -66.177,-7.375 -66.577,-6.976c-2.332,20.075 -3.177,25.665 -3.804,30.061c-1.912,18.474 -2.829,18.867 -2.537,19.233c20.673,2.91 24.195,3.033 26.958,3.494c41.146,3.653 43.472,3.708 43.582,3.436" style="fill:#2c4267;fill-rule:nonzero;"/><path id="Kansas" d="M310.411,184.62c0.215,-1.935 1.572,-9.047 0.87,-10.45c-1.196,-2.394 -4.016,-4.018 -4.838,-6.484c-0.421,-1.262 0.915,-4.176 -0.068,-4.962c-65.421,-3.387 -66.223,-2.662 -66.503,-2.101c-2.42,30.127 -2.904,35.26 -2.323,35.608c32.161,2.006 34.331,2.448 36.479,2.806c3.374,0.563 6.513,-1.205 9.967,-0.774c3.692,0.462 7.34,0.893 11.03,1.355c6.983,-0.194 14.841,-0.029 15.773,-0.774c0.834,-0.667 -0.227,-2.807 -0.484,-3.58" style="fill:#2c4267;fill-rule:nonzero;"/><path id="Arkansas" d="M315.287,243.15c0.739,1.85 3.391,-1.277 4.508,1.516c0.444,1.111 0.187,4.794 0.582,5.32c18.308,-0.084 28.03,0.392 28.588,-0.167c2.855,-2.855 0.562,-2.326 0.083,-4.238c-0.136,-0.546 0.957,-0.996 0.666,-1.58c-0.243,-0.483 -0.778,-0.783 -0.915,-1.329c-0.329,-1.315 0.887,-3.81 1.247,-5.07c0.248,-0.869 0.757,-0.621 1.163,-1.163c0.379,-0.505 0.002,-1.334 0.499,-2.161c0.887,-1.479 2.233,-2.091 3.158,-3.324c0.554,-0.738 0.188,-2.982 1.247,-4.571c0.797,-1.196 2.557,-1.836 2.908,-3.241c0.221,-0.882 0.511,-2.518 0.332,-3.408c-0.144,-0.723 -1.056,-1.413 -0.581,-2.244c0.866,-1.514 1.924,-1.194 3.075,-4.071c0.083,-0.208 0.512,-0.728 0.332,-0.998c-0.447,-0.671 -3.949,0.162 -4.82,-1.579c-0.853,-1.707 3.19,-3.675 1.165,-5.194c-40.439,-0.083 -43.757,0.498 -44.381,1.122" style="fill:#2c4267;fill-rule:nonzero;"/><path id="Nebraska" d="M297.251,141.223c-2.968,-7.699 -2.753,-9.616 -3.341,-11.086c-2.674,-2.537 -3.462,-3.689 -4.253,-4.48c-0.849,-0.849 -6.756,-1.822 -8.124,-1.67c-0.783,0.087 -1.724,0.955 -2.505,0.76c-0.756,-0.19 -1.308,-1.502 -1.898,-1.974c-0.858,-0.687 -2.877,-1.077 -3.948,-1.291c-47.423,-2.43 -49.491,-2.425 -49.731,-1.823c-1.854,21.716 -3.042,23.629 -1.747,24.6c14.023,0.768 16.524,0.278 18.298,0.987c2.293,0.918 -1.14,11.008 0.683,12.376c60.178,2.43 60.659,2.026 61.425,1.898c0.102,-0.017 0.643,0.084 0.683,-0.075" style="fill:#2c4267;fill-rule:nonzero;"/><path id="Minnesota" d="M341.549,112.878c0.122,-0.556 0.295,-2.579 0.029,-3.112c-0.305,-0.61 -8.235,-8.297 -8.955,-8.585c-1.848,-0.739 -3.938,-0.029 -4.985,-2.123c-1.526,-3.052 -0.002,-6.662 -0.462,-9.879c-0.286,-2.003 -2.094,-2.252 -0.923,-4.985c0.831,-1.939 4.396,-4.032 4.524,-4.8c0.341,-2.051 -1.348,-5.085 0.184,-6.924c0.906,-1.087 2.17,-1.608 3.231,-2.493c2.354,-1.961 4.864,-3.823 6.832,-6.185c2.822,-3.387 4.842,-4.463 8.863,-6.185c0.468,-0.201 5.104,-1.701 4.8,-2.308c-0.32,-0.64 -2.389,0.513 -3.047,0.184c-1.101,-0.551 -0.384,-1.058 -2.492,-1.292c-0.775,-0.086 -4.653,0.618 -4.985,0.369c-0.38,-0.284 -0.695,-1.614 -1.385,-1.384c-3.123,1.041 -2.513,2.484 -7.272,1.691c-1.336,-0.223 -1.94,-1.583 -2.883,-2.338c-1.098,-0.878 -2.618,-0.423 -3.877,-0.738c-1.335,-0.334 -3.193,-1.975 -4.616,-2.585c-1.287,-0.551 -2.865,0.369 -4.155,0.554c-0.631,0.089 -2.31,0.238 -2.862,-0.093c-0.506,-0.303 -0.091,-1.107 -0.645,-1.2c-2.24,-0.373 -1.688,1.188 -5.355,-0.646c-0.342,-0.17 -0.81,-0.131 -1.108,-0.369c-1.481,-1.184 -1.715,-7.359 -3.231,-7.663c-3.117,-0.623 -0.093,4.709 -2.123,4.709c-2.828,0 -13.683,-1.279 -15.51,0.092c-0.544,0.408 0.387,3.215 0.277,3.877c-0.106,0.633 -0.369,1.295 -0.369,1.939c0,1.443 -0.422,3.008 -0.185,4.431c0.293,1.759 1.64,2.826 1.939,4.616c0.657,3.939 0.52,7.946 1.015,11.909c0.44,3.512 1.591,6.91 2.031,10.432c0.314,2.512 -1.238,6.18 -1.108,6.832c0.18,0.899 1.889,1.826 1.939,2.769c1.004,18.793 -0.003,21.467 0.83,21.8c32.67,0.736 40.665,-0.027 43.668,0.08" style="fill:#2c4267;fill-rule:nonzero;"/><path id="Iowa" d="M342.793,152.021c-0.032,-0.576 0.24,-1.129 0.726,-1.454c1.126,-0.751 1.125,-1.362 1.695,-2.503c0.225,-0.448 0.73,-0.736 0.889,-1.211c0.561,-1.685 -2.098,-4.603 -0.082,-6.62c0.778,-0.777 1.882,-0.618 2.826,-0.807c2.528,-0.506 2.99,-2.106 3.714,-4.279c0.252,-0.758 0.713,-2.207 0.323,-2.987c-0.6,-1.2 -2.15,-1.498 -2.987,-2.503c-0.899,-1.079 -1.332,-3.504 -2.664,-4.037c-1.392,-0.556 -2.845,-1.101 -3.709,-2.541c-1.237,-2.061 0.262,-4.059 -0.166,-5.128c-0.868,-1.726 -1.18,-3.18 -1.678,-3.322c-44.33,0.556 -47.016,0.278 -48.305,0.922c-0.909,0.454 1.721,2.516 1.865,2.803c0.542,1.083 -0.518,2.673 -0.726,3.714c-0.18,0.901 -1.42,2.545 -1.05,3.471c3.361,7.266 3.481,10.168 4.522,12.595c2.804,6.538 2.753,12.317 3.365,13.846c32.32,-0.135 37.266,-2.134 39.484,-1.247c0.771,0.309 1.113,0.765 1.716,1.368" style="fill:#2c4267;fill-rule:nonzero;"/><path id="Wisconsin" d="M375.941,122.641c0.067,-2.871 -1.259,-5.584 -1.513,-8.371c-0.179,-1.968 0.843,-3.507 1.211,-5.345c0.226,-1.133 -0.548,-2.119 -0.404,-3.279c0.171,-1.362 1.031,-2.32 1.21,-3.579c0.303,-2.12 0.128,-3.509 0.857,-5.699c0.216,-0.646 3.289,-6.481 3.027,-6.657c-0.387,-0.258 -1.676,1.692 -1.816,1.916c-0.849,1.359 -2.243,2.243 -3.329,3.329c-0.459,0.46 -1.123,3.696 -2.722,3.429c-1.37,-0.228 -1.408,-1.292 -0.656,-2.42c1.552,-2.328 0.663,-1.556 1.412,-3.429c0.291,-0.727 1.063,-0.427 0.908,-1.362c-0.139,-0.831 -1.312,-1.131 -1.312,-2.169c0,-1.42 0.185,-4.202 -0.907,-5.295c-0.335,-0.335 -0.977,-0.335 -1.361,-0.655c-0.604,-0.503 -1.02,-1.416 -1.816,-1.715c-0.77,-0.288 -4.887,-0.932 -5.9,-1.059c-2.465,-0.308 -4.782,-1.612 -7.212,-2.016c-1.26,-0.211 -2.788,-0.006 -3.983,-0.455c-1.096,-0.41 -2.045,-1.666 -2.925,-2.37c-0.491,-0.392 -1.267,-0.383 -1.714,-0.756c-0.299,-0.249 -0.151,-0.706 -0.404,-0.958c-0.748,-0.749 -2.09,0.612 -3.025,0.05c-1.128,-0.677 1.049,-3.649 0.554,-3.731c-2.1,-0.351 -4.061,2.191 -6.001,2.622c-1.054,0.234 -2.156,0.25 -3.227,0.403c-3.551,0.507 -1.439,5.175 -2.219,7.514c-0.76,2.281 -4.482,2.721 -4.791,5.194c-0.153,1.225 1.05,1.732 1.362,2.824c0.754,2.64 -2.158,6.519 0.101,9.531c0.996,1.328 3.13,0.347 4.286,1.311c2.072,1.727 3.311,4.187 5.295,5.95c1.319,1.173 3.104,1.786 4.185,3.228c1.277,1.701 0.927,3.676 1.312,5.598c0.218,1.091 1.783,1.971 1.563,3.075c-0.229,1.145 -1.538,3.216 -0.757,4.388c0.534,0.8 3.962,2.809 4.892,2.925c1.197,0.149 2.375,-0.122 3.58,0.05c7.496,1.071 15.386,0.452 22.491,-1.916" style="fill:#2c4267;fill-rule:nonzero;"/><path id="Michigan" d="M414.387,130.18c0.698,-0.087 4.225,-0.375 4.525,-0.734c0.379,-0.455 0.433,-1.456 0.673,-2.017c0.283,-0.661 1.182,-0.776 1.406,-1.224c0.576,-1.151 0.013,-2.859 0.366,-4.096c0.157,-0.547 0.76,-0.539 0.979,-0.979c0.51,-1.017 0.06,-3.341 1.101,-4.035c0.428,-0.285 1.092,-0.411 1.59,-0.245c0.104,0.035 0.631,0.442 0.733,0.306c0.252,-0.335 -0.119,-1.635 -0.183,-2.017c-0.176,-1.059 -0.039,-3.419 -0.306,-4.22c-0.415,-1.244 -1.107,-2.468 -1.467,-3.73c-0.553,-1.934 -0.333,-4.336 -1.712,-5.992c-1.298,-1.558 -4.262,-0.904 -5.198,0.733c-0.261,0.457 0.178,0.941 0.061,1.407c-0.301,1.208 -1.889,3.18 -3.241,3.18c-0.838,-0.001 -1.915,0.458 -2.506,-0.429c-0.312,-0.468 -0.665,-5.083 -0.489,-5.258c0.745,-0.746 1.878,-0.346 2.628,-1.346c0.524,-0.697 0.026,-1.697 0.429,-2.261c0.375,-0.526 1.12,-0.507 1.223,-1.224c0.099,-0.694 0.519,-5.076 0.305,-5.502c-0.749,-1.499 -1.843,0.318 -2.446,-2.692c-0.188,-0.944 2.062,-1.035 1.407,-2.017c-0.292,-0.438 -0.999,-0.44 -1.345,-0.856c-0.235,-0.282 -0.163,-0.868 -0.55,-0.979c-0.779,-0.222 -1.731,0.321 -2.508,0.062c-2.006,-0.669 -3.828,-1.786 -5.808,-2.446c-0.506,-0.169 -1.122,0.143 -1.529,-0.061c-0.587,-0.294 -1.486,-1.566 -2.079,-1.468c-0.687,0.115 -2.287,1.42 -2.507,2.079c-0.149,0.447 2.368,1.052 2.629,1.835c0.65,1.948 -3.717,1.588 -4.035,2.385c-0.402,1.004 0.887,4.554 -0.489,5.93c-3.979,3.979 -2.666,-1.08 -2.997,-1.345c-0.261,-0.209 -0.597,0.121 -0.795,0.245c-2.274,1.421 -0.702,1.403 -1.528,3.057c-0.342,0.684 -1.468,0.536 -1.468,1.59c0,5.099 0.414,2.633 -1.467,7.337c-0.356,0.89 1.146,2.035 0.917,3.18c-0.233,1.163 -1.287,1.95 -0.856,3.24c1.383,4.15 4.219,7.299 4.219,11.863c0,2.456 -0.973,5.468 -1.834,7.766c-0.187,0.497 -1.319,2.097 -1.162,2.568l25.314,-1.59Zm-8.466,-55.307c-2.328,-1.033 -0.698,-4.194 -1.207,-4.957c-0.043,-0.064 -3.523,1.164 -5.259,1.164c-0.798,0 -2.244,0.178 -2.715,-0.646c-0.245,-0.428 -0.194,-2.969 -0.69,-2.846c-1.206,0.302 -2.115,1.372 -3.449,1.638c-1.931,0.387 -4.094,0.164 -5.948,0.906c-1.84,0.735 -3.337,2.581 -5.302,2.974c-0.681,0.136 -0.919,-0.809 -1.465,-0.991c-0.966,-0.322 -3.204,1.754 -4.785,0.172c-1.221,-1.221 -0.696,-3.184 -3.319,-3.621c-1.016,-0.169 -2.03,-0.636 -3.104,-0.517c-0.708,0.078 -2.894,2.663 -3.75,1.164c-0.957,-1.674 2.142,-5.116 3.189,-6.164c0.335,-0.334 2.364,-2.116 2.113,-2.242c-1.351,-0.675 -2.982,1.106 -3.837,1.854c-1.052,0.921 -2.608,1.724 -3.448,2.845c-0.388,0.518 -0.361,1.059 -0.69,1.552c-0.726,1.09 -2.735,1.951 -3.793,2.586c-1.055,0.633 -2.231,0.211 -3.19,0.69c-0.754,0.376 -1.332,1.003 -2.026,1.465c-0.836,0.558 -2.034,0.529 -2.672,1.38c-0.349,0.464 1.153,1.623 1.466,1.81c1.76,1.056 3.717,0.679 5.56,1.293c0.86,0.287 6.65,2.387 6.811,2.414c2.098,0.35 4.708,0.387 6.595,1.466c0.246,0.14 2.916,2.24 2.974,2.413c0.348,1.046 0.311,5.418 1.422,5.862c0.711,0.285 0.906,-0.819 1.121,-1.206c0.729,-1.311 2.214,-6.982 2.888,-7.544c0.99,-0.825 0.966,1.311 1.897,1.208c0.868,-0.097 1.376,-1 2.198,-1.164c0.553,-0.111 0.895,0.66 1.423,0.345c0.949,-0.57 0.75,-1.913 1.896,-2.371c2.022,-0.809 4.427,0.285 5.862,-1.509c0.212,-0.264 4.836,-1.151 5.13,-1.078c2.976,0.744 4.002,1.015 7.026,0.259c0.598,-0.149 1.131,0.091 1.293,-0.56l-0.215,-0.044Zm3.448,0.13c0.296,0.656 0.811,0.872 1.509,0.819c2.824,-0.218 0.174,-2.257 -1.466,-1.164l-0.043,0.345Z" style="fill:#2c4267;fill-rule:nonzero;"/><path id="Missouri" d="M359.875,203.937c3.657,2.596 -0.998,5.464 -1.029,5.614c-0.087,0.435 0.993,0.791 1.266,0.791c0.482,0 0.673,-0.351 1.107,-0.475c0.593,-0.169 1.71,0.425 2.214,-0.079c0.672,-0.672 -0.147,-4.296 0.316,-5.377c0.772,-1.801 3.882,-2.656 4.191,-4.507c0.431,-2.585 -2.743,-1.367 -3.717,-3.638c-1.056,-2.465 0.468,-5.383 -1.739,-7.591c-0.695,-0.695 -3.591,-0.744 -5.931,-3.084c-0.77,-0.769 -1.766,-1.264 -2.135,-2.372c-0.859,-2.578 0.365,-4.912 1.344,-7.196c0.205,-0.479 0.956,-1.417 0.475,-1.898c-2.46,-2.459 -3.63,-0.296 -4.982,-1.107c-1.214,-0.729 -1.007,-2.247 -1.739,-3.163c-1.368,-1.709 -3.951,-2.446 -5.141,-4.428c-0.792,-1.321 -2.552,-4.302 -2.846,-5.773c-0.445,-2.221 1.023,-6.305 -1.977,-7.591c-30.86,2.079 -36.877,1.063 -37.126,1.375c0.802,3.44 2.147,6.321 3.36,6.928c0.868,0.434 3.508,0.508 3.796,1.66c0.373,1.49 -1.21,3.278 -0.949,4.191c0.678,2.374 3.446,3.223 4.191,5.457c0.636,1.908 0.701,10.065 0.381,11.98c-0.662,3.973 0,18.213 0,14.142c0,5.035 -0.161,6.413 0,6.817c45.785,-1.248 46.564,-0.55 47.144,-0.202" style="fill:#2c4267;fill-rule:nonzero;"/><path id="Illinois" d="M367.904,195.243c2.46,-4.076 5.865,-0.385 5.975,-0.44c0.11,-0.055 0.147,-3.486 0.878,-4.218c0.541,-0.54 2.855,-1.668 2.899,-1.757c0.254,-0.506 -0.345,-1.357 -0.263,-1.933c0.075,-0.523 0.493,-1.031 0.615,-1.581c0.331,-1.489 0.065,-3.135 0.703,-4.569c0.91,-2.047 3.954,-6.274 3.954,-8.26c0,-1.553 -1.455,-2.632 -1.67,-4.13c-0.394,-2.76 0.804,-10.151 0.264,-12.038c-0.867,-3.034 -1.242,-6.223 -1.757,-9.314c-0.413,-2.48 0.405,-7.497 0.088,-9.402c-0.327,-1.963 -1.106,-4.763 -2.285,-6.414c-0.299,-0.419 -0.691,-0.818 -0.879,-1.318c-0.542,-1.449 0.79,-5.059 -0.95,-4.704c-13.253,2.706 -23.539,0.85 -24.443,1.453c-1.526,1.017 2.582,3.442 2.899,3.866c1.281,1.708 1.253,4.216 0.528,6.151c-0.619,1.65 -1.474,3.597 -3.339,4.129c-1.188,0.34 -2.743,-0.126 -3.779,0.703c-1.657,1.326 1.094,3.63 0.703,5.975c-0.099,0.596 -1.506,3.859 -1.845,4.13c-0.41,0.328 -1.048,0.433 -1.406,0.791c-0.618,0.618 -0.297,1.155 -0.527,1.845c-0.246,0.737 -1.365,0.861 -1.494,1.757c-0.219,1.532 0.463,2.691 0.703,4.131c0.995,5.967 5.051,5.764 7.82,9.225c0.416,0.52 0.42,1.175 0.791,1.67c1.358,1.81 4.727,0.252 6.239,3.778c1.195,2.788 -2.772,4.547 -2.373,6.942c0.668,4.008 7.031,4.218 7.293,4.569c0.593,0.791 0.656,1.873 1.143,2.724c0.52,0.91 1.446,1.53 1.845,2.46c0.511,1.192 -0.631,4.071 1.055,4.745c0.579,0.232 1.092,-1.18 1.405,-1.493" style="fill:#2c4267;fill-rule:nonzero;"/><path id="Indiana" d="M381.048,183.389c3.993,-2.929 7.153,0.269 7.433,0.199c0.64,-0.16 0.777,-2.191 2.522,-2.191c0.352,0 1.134,-0.03 1.461,0.133c0.105,0.052 1.082,0.666 1.128,0.598c0.11,-0.165 0.025,-0.657 0.067,-0.864c0.218,-1.093 2.37,-2.208 3.318,-2.588c0.585,-0.234 1.529,2.054 2.589,0.995c0.477,-0.477 -0.985,-2.726 1.659,-4.048c3.639,-1.82 1.424,-3.216 2.721,-4.514c1.142,-1.14 4.876,-0.674 5.509,-2.256c0.214,-0.534 -0.757,-2.151 -0.863,-2.788c-0.178,-1.073 0.196,-2.336 -0.066,-3.385c-2.367,-26.902 -2.633,-29.396 -3.186,-30.133c-0.174,-0.233 -0.965,0.294 -1.194,0.332c-1.061,0.176 -2.174,0 -3.253,0c-1.868,0 -3.898,0.362 -5.774,0.597c-1.206,0.151 -2.488,-0.365 -3.651,-0.133c-0.957,0.192 -1.752,0.802 -2.721,0.996c-0.725,0.145 -1.485,-0.208 -2.19,-0.067c-0.822,0.165 -1.094,1.179 -1.991,1.328c-0.503,0.084 -2.716,-0.339 -2.921,-0.066c-0.448,0.596 -0.398,4.672 -0.398,5.575c0,4.099 0.347,8.233 0.796,12.279c0.314,2.82 1.485,5.407 1.062,8.363c-0.32,2.243 -0.878,2.697 -0.465,5.177c0.418,2.507 2.049,4.624 1.527,7.235c-0.442,2.208 -5.209,7.335 -3.053,9.491" style="fill:#2c4267;fill-rule:nonzero;"/><path id="Ohio" d="M445.247,124.208c1.227,5.375 1.985,9.672 2.671,14.478c0.113,0.785 -1.245,1.058 -1.078,2.061c0.089,0.528 0.473,0.965 0.563,1.499c0.179,1.078 -0.623,9.559 -0.984,10.402c-0.637,1.487 -1.947,3.042 -3.28,3.842c-0.627,0.376 -1.275,-0.285 -1.968,0.234c-1.071,0.804 -2.923,3.159 -3.139,4.452c-0.031,0.186 0.7,0.986 0.609,1.077c-0.445,0.446 -1.247,-0.284 -1.78,0.516c-0.564,0.844 -1.185,2.172 -1.312,3.186c-0.101,0.807 0.572,2.157 0.046,2.858c-0.176,0.235 -0.389,0.163 -0.561,0.421c-0.197,0.294 -0.161,0.684 -0.609,0.797c-1.994,0.498 -3.129,-3.689 -4.92,-3.092c-0.589,0.196 -0.872,1.01 -1.359,1.358c-0.191,0.136 -0.486,-0.087 -0.703,0c-0.599,0.24 -1.091,0.699 -1.687,0.937c-0.304,0.122 -1.155,-0.945 -1.452,-1.124c-0.948,-0.569 -1.482,0.718 -2.343,0.89c-0.8,0.16 -0.76,-0.999 -1.452,-1.171c-0.843,-0.211 -2.242,0.426 -2.952,0c-0.508,-0.305 -1.195,-2.527 -1.874,-3.092c-1.273,-1.061 -4.706,0.524 -5.252,-0.023c-3.059,-28.661 -3.249,-31.561 -2.901,-32.026c0.48,-0.638 2.604,-0.461 3.327,-0.702c0.482,-0.161 0.941,-0.571 1.452,-0.656c2.523,-0.421 8.416,-0.36 10.917,0.141c1.956,0.39 3.754,2.084 5.857,1.733c0.689,-0.115 1.166,-0.758 1.827,-0.89c0.695,-0.139 1.398,0.119 2.062,-0.047c2.941,-0.735 4.344,-3.014 6.793,-4.545c1.701,-1.063 3.982,-2.06 5.342,-3.42" style="fill:#2c4267;fill-rule:nonzero;"/><path id="Kentucky" d="M369.045,202.544c3.016,0.072 6.154,0.375 9.183,-0.057c3.52,-0.503 -0.272,-2.389 3.501,-2.928c0.779,-0.111 1.541,0.404 2.353,0.287c32.086,-3.51 33.165,-3.473 34.273,-3.612c2.773,-0.346 6.267,0.048 8.83,-1.553c1.318,-0.823 3.004,-0.721 4.247,-1.549c1.437,-0.959 1.701,-3.144 2.813,-4.477c0.847,-1.018 1.961,-1.792 2.811,-2.813c0.361,-0.431 2.392,-2.168 1.952,-2.754c-0.326,-0.436 -2.052,-0.724 -2.582,-1.149c-0.666,-0.532 -2.42,-3.324 -3.157,-4.247c-0.219,-0.273 -0.079,-0.733 -0.23,-1.033c-0.261,-0.522 -0.913,-0.904 -1.09,-1.434c-0.158,-0.472 0.161,-1.024 0.057,-1.493c-0.257,-1.155 -1.55,-3.558 -2.698,-4.018c-0.943,-0.377 -1.837,1.764 -2.755,1.895c-0.927,0.132 -1.36,-0.485 -2.238,-0.632c-1.42,-0.237 -2.675,0.294 -4.075,-0.172c-0.641,-0.214 -1.088,-0.884 -1.836,-1.033c-0.53,-0.106 -1.028,0.209 -1.55,0c-2.025,-0.81 -1.896,-3.909 -4.764,-3.271c-0.118,0.026 -0.606,0.002 -0.689,0.057c-1.015,0.677 1.088,1.857 -0.401,3.558c-1.636,1.869 -5.689,2.061 -5.74,2.124c-0.57,0.714 0.385,1.872 0,2.64c-0.288,0.576 -3.387,2.469 -3.96,3.329c-0.492,0.738 0.227,2.436 -0.459,2.984c-0.487,0.391 -2.459,0.695 -3.042,0.344c-0.224,-0.134 -0.96,-0.961 -1.09,-0.918c-1.366,0.456 -1.447,3.35 -2.067,3.846c-0.217,0.174 -1.863,0.26 -2.066,0.057c-0.349,-0.348 -0.031,-1.5 -1.09,-1.148c-1.023,0.341 -1.846,3.097 -3.042,2.698c-0.577,-0.193 -1.043,-1.01 -1.55,-1.263c-2.415,-1.207 -6.697,0.703 -7.748,3.157c-0.335,0.783 0.71,1.518 0.229,2.238c-0.732,1.098 -2.878,0.56 -3.156,1.952c-0.27,1.348 1.68,2.96 0,4.304c-2.305,1.844 -4.325,-3.671 -6.658,-0.172c-1.042,1.563 0.574,1.461 0.574,2.353c0,1.175 -2.251,3.518 -0.459,4.19" style="fill:#2c4267;fill-rule:nonzero;"/><path id="Tennessee" d="M365.968,204.906c0.084,3.662 -1.239,7.224 -2.862,10.471c-0.267,0.534 -0.196,1.22 -0.452,1.733c-1.11,2.218 -1.958,0.162 -1.507,3.767c0.034,0.275 -0.095,1.444 0.124,1.663c38.509,-2.564 43.107,-2.227 45.603,-2.643c1.496,-0.249 2.895,-0.884 4.369,-1.13c2.207,-0.368 6.778,0.554 8.89,-0.15c0.901,-0.301 -0.02,-2.909 0.451,-3.616c0.515,-0.773 1.493,-0.78 2.185,-1.356c0.745,-0.621 0.555,-1.812 1.055,-2.562c0.643,-0.964 2.711,-1.314 3.616,-1.808c0.91,-0.497 2.024,-1.114 2.863,-1.732c0.606,-0.447 2.481,-1.019 1.807,-1.356c-0.043,-0.022 -0.566,-0.037 -0.678,0.075c-0.076,0.076 1.333,-0.515 1.658,-0.678c1.182,-0.591 0.699,-2.274 1.808,-3.014c2.917,-1.944 2.759,-0.542 4.068,-0.979c0.579,-0.193 0.649,-1.094 0.979,-1.506c0.65,-0.813 3.397,0.56 4.068,-3.466c0.053,-0.315 0.662,-1.006 0.452,-1.356c-52.007,5.456 -56.92,5.316 -61.959,6.036c-1.129,0.161 -0.55,1.341 -0.794,1.95c-0.226,0.567 -1.567,0.226 -1.958,0.226c-0.709,0 -1.436,0.581 -2.11,0.678c-2.278,0.326 -4.603,-0.547 -6.779,0.075c-1.353,0.387 -3.046,0.459 -4.445,0.226c-0.115,-0.019 -0.641,-0.188 -0.753,-0.075c-0.239,0.239 0.112,1.45 0.226,1.732" style="fill:#2c4267;fill-rule:nonzero;"/><path id="Alabama" d="M418.573,270.172c0.501,-0.547 -1.083,-0.956 -1.18,-1.54c-0.272,-1.63 0.289,-3.422 0.042,-5.156c-0.118,-0.83 -0.546,-1.455 -0.662,-2.265c-0.219,-1.538 1.363,-6.368 1.08,-6.84c-0.186,-0.311 -0.71,-0.438 -0.919,-0.752c-6.526,-19.924 -6.897,-23.361 -7.519,-24.811c-0.367,-0.857 -0.915,-1.784 -1.169,-2.673c-0.208,-0.728 -0.67,-4.612 -0.834,-4.831c-20.438,1.765 -23.48,0.88 -24.906,2.02c0.178,12.209 -0.062,14.254 -0.324,16.344c0.017,10.328 -0.133,12.035 -0.167,13.115c-0.137,4.333 -0.225,6.076 0.044,7.965c0.637,4.459 0.877,9.1 1.376,13.588c0.177,1.592 -0.048,6.985 1.253,7.852c2.11,1.406 0.964,-3.956 2.506,-4.176c5.191,-0.742 1.464,6.536 5.347,4.594c0.722,-0.361 0.76,-2.983 0.501,-3.759c-0.278,-0.836 -1.434,-1.486 -2.005,-2.172c-0.281,-0.337 -0.801,-3.202 -0.417,-3.508" style="fill:#2c4267;fill-rule:nonzero;"/><path id="Georgia" d="M430.835,218.625c-17.19,2.632 -20.889,2.054 -21.177,2.284c-0.721,0.578 0.026,2.707 0.264,3.339c5.981,21.988 5.951,22.167 6.63,23.977c0.308,0.822 1.635,3.709 2.157,4.406c0.5,0.667 1.356,0.972 1.494,1.933c0.235,1.643 -1.026,3.373 -1.231,5.01c-0.324,2.594 1.101,3.54 0.744,5.933c-0.436,2.922 0.234,4.973 2.772,7.511c0.184,0.184 0.627,0.619 0.878,0.703c26.976,-1.67 28.186,-1.469 28.552,-0.98c0.108,0.143 0.82,0.957 1.237,0.54c0.72,-0.72 -2.145,-4.256 0.176,-5.185c1.264,-0.505 5.676,1.541 5.975,1.144c1.844,-10.573 2.587,-13.316 3.866,-15.554c0.14,-0.245 0.595,-0.806 0.527,-1.142c-0.138,-0.69 -1.194,0.298 -1.406,0.351c-0.539,0.135 -1.719,-0.957 -1.996,-1.419c-0.796,-1.326 -1.301,-2.713 -2.221,-3.942c-0.582,-0.775 -1.918,-0.236 -2.461,-1.142c-1.063,-1.771 -0.871,-4.117 -1.933,-5.887c-0.478,-0.796 -3.494,-1.939 -4.745,-3.69c-8.898,-6.489 -10.126,-10.83 -11.95,-12.654c-0.996,-0.996 -2.818,-0.033 -3.955,-0.791c-2.774,-1.849 -0.114,-6.31 -2.46,-4.745" style="fill:#2c4267;fill-rule:nonzero;"/><path id="Pennsylvania" d="M452.639,118.898c-0.039,-0.119 0.078,-0.373 -0.047,-0.373c-0.08,0 -4.892,3.808 -5.074,4.05c4.804,22.801 5.079,27.555 5.227,27.665c37.52,-6.805 42.463,-7.869 44.352,-8.624c1.779,-0.712 3.644,-0.938 4.702,-2.701c0.331,-0.55 0.127,-1.148 0.558,-1.722c0.251,-0.334 0.664,-0.295 0.932,-0.652c0.143,-0.191 1.512,-1.189 1.49,-1.257c-0.039,-0.114 -0.558,-0.403 -0.652,-0.465c-1.115,-0.744 -2.675,-2.688 -3.632,-3.166c-0.407,-0.204 -0.851,0.045 -1.256,-0.279c-0.323,-0.258 -0.585,-0.743 -0.745,-1.118c-0.758,-1.767 0.684,-1.653 0.977,-3.119c0.118,-0.584 -0.415,-1.096 -0.326,-1.722c0.15,-1.049 0.91,-1.517 1.211,-2.421c0.202,-0.607 0.081,-1.252 0.233,-1.862c0.091,-0.365 0.401,-0.554 0.512,-0.885c0.119,-0.356 -0.876,-0.91 -1.117,-1.117c-1.884,-1.614 -2.264,-3.916 -4.796,-4.423c-0.35,-0.07 -0.549,-0.474 -0.884,-0.558c-35.517,7.442 -40.492,9.06 -40.967,8.426c-0.251,-0.335 -0.059,-1.043 -0.14,-1.443" style="fill:#2c4267;fill-rule:nonzero;"/><path id="New-York" d="M512.793,125.093c0.437,-0.068 0.863,-0.099 1.249,-0.319c0.886,-0.507 1.436,-1.544 2.332,-1.962c1.967,-0.918 3.224,-0.217 5.632,-1.823c0.485,-0.323 5.072,-3.296 5.276,-2.689c0.211,0.637 -1.088,1.576 -1.517,1.963c-2.23,2.007 -4.744,4.166 -7.518,5.39c-0.922,0.407 -2.016,0.54 -2.982,0.943c-1.252,0.522 -3.313,0.311 -2.459,-1.504l-0.013,0.001Zm-0.835,-4.404c-1.39,-21.604 -1.026,-26.06 -2.196,-30.154c-0.356,-1.248 -2.444,-1.347 -2.634,-2.489c-0.143,-0.853 0.363,-1.696 0.219,-2.561c-0.226,-1.358 -0.798,-2.665 -1.024,-4.025c-0.248,-1.489 0.451,-3.348 -0.44,-4.685c-1.662,-2.494 -0.058,-4.918 -1.756,-5.343c-1.07,-0.267 -3.033,1.281 -4.319,1.538c-1.382,0.276 -4.781,-0.407 -5.781,0.219c-6.405,4.01 -12.306,13.37 -12.662,14.199c-0.958,2.236 1.944,0.717 2.195,1.976c0.416,2.076 -0.888,1.808 -0.585,2.415c0.399,0.797 1.425,2.261 0.805,3.294c-0.563,0.939 -1.74,-0.13 -2.488,0.805c-0.883,1.104 -1.071,2.754 -2.049,3.733c-1.54,1.539 -2.925,0.491 -4.611,0.731c-0.756,0.109 -5.124,2.818 -5.27,2.708c-0.829,-0.621 -0.612,-2.06 -1.684,-2.489c-3.345,0.94 -6.681,0.746 -8.123,1.611c-3.728,2.237 2.974,5.536 1.244,7.611c-3.857,5.012 -5.856,6.151 -6.221,7.246c-0.195,0.585 -0.396,1.932 0.219,2.343c30.747,-5.228 32.699,-4.945 34.253,-5.636c2.334,-1.037 5.303,-2.426 7.977,-1.757c2.861,0.715 2.916,4.985 4.245,5.782c0.397,0.238 0.903,-0.138 1.318,0c0.334,0.112 0.651,0.436 0.951,0.586c0.488,0.244 1.222,0.041 1.757,0.22c1.26,0.42 2.268,1.462 3.44,2.049c1.48,0.74 2.047,-0.441 3.733,1.244l-0.513,-1.171Z" style="fill:#2c4267;fill-rule:nonzero;"/><path id="Vermont" d="M510.97,87.979c-0.329,-0.33 -0.969,-0.358 -1.23,-0.749c-0.26,-0.391 -0.582,-2.386 -0.802,-3.049c-0.268,-0.801 -1.191,-1.573 -1.284,-2.406c-0.167,-1.511 1.525,-2.672 0.695,-4.332c-0.375,-0.75 -2.737,-5.888 -2.299,-6.472c12.532,-3.362 14.05,-4.089 14.172,-3.905c0.285,0.428 0.076,1.526 0.161,2.033c0.222,1.333 1.307,2.29 1.016,3.744c-0.438,2.193 -3.033,2.386 -3.423,4.332c-0.032,0.161 0.519,3.391 0.375,4.546c-0.257,2.055 -0.697,8.278 -0.375,10.215c0.158,0.943 1.14,3.722 0.482,4.599c-0.179,0.238 -4.773,0.93 -5.135,0.749" style="fill:#2c4267;fill-rule:nonzero;"/><path id="New-Hampshire" d="M523.592,63.109c-0.382,0.146 -0.912,-0.105 -1.231,0.214c-0.515,0.515 -0.231,5.245 -0.053,6.044c0.262,1.179 1.431,1.556 1.016,3.423c-0.429,1.934 -2.649,3.042 -3.155,4.812c-0.565,1.979 0.69,10.254 0.267,13.638c-0.063,0.51 0.045,4.734 0.268,4.868c0.514,0.308 1.986,-0.492 2.567,-0.589c2.405,-0.4 5.255,-1.002 7.327,-2.246c0.38,-0.228 1.022,0.052 1.444,-0.053c0.976,-0.244 1.962,-2.087 2.247,-2.942c0.405,-1.216 -0.811,-1.247 -1.231,-2.086c-0.427,-0.854 0.247,-1.86 -1.604,-1.551c-1.038,0.174 -1.483,-3.305 -1.765,-4.011c-4.986,-17.004 -5.677,-18.155 -6.097,-19.414" style="fill:#2c4267;fill-rule:nonzero;"/><path id="Maine" d="M534.609,85.895c-0.614,-1.05 -1.844,-1.273 -2.495,-2.576c-4.64,-16.276 -6.774,-19.502 -6.521,-20.77c0.955,-0.788 0.748,-1.944 0.886,-2.495c0.135,-0.542 1.531,-4.715 1.771,-5.313c0.387,-0.968 2.012,-2.088 2.012,-3.14c0,-0.795 -1.449,-0.89 -1.449,-1.69c0,-2.625 1.403,-5.85 1.207,-7.406c-0.365,-2.928 -0.284,-5.294 1.289,-7.809c0.345,-0.552 1.048,-1.011 1.288,-1.61c0.135,-0.338 0.412,-1.757 0.885,-1.852c0.264,-0.052 1.234,2.643 3.14,1.691c0.816,-0.408 3.776,-3.41 4.427,-3.301c0.355,0.059 4.029,0.729 4.106,0.806c1.456,1.455 1.055,2.949 1.369,4.83c1.206,6.512 3.026,8.492 4.346,10.143c0.288,0.359 -0.352,0.294 -0.402,0.644c-0.07,0.488 -0.053,1.224 0.081,1.69c0.888,3.11 4.438,0.974 4.75,1.208c0.179,0.134 0.356,3.937 0.966,4.75c1.258,1.677 1.89,-0.732 2.575,-0.242c1.113,0.794 2.703,3.611 2.013,4.991c-0.723,1.446 -2.501,3.366 -3.945,3.945c-0.581,0.231 -1.278,0.354 -1.771,0.724c-0.537,0.402 -0.789,1.358 -1.288,1.691c-0.19,0.126 -1.216,-0.899 -1.851,-0.644c-1.334,0.533 -2.345,2.403 -3.381,2.817c-1.335,0.533 -2.108,-2.739 -3.462,-0.483c-0.795,1.326 1.525,4.165 0,6.199c-0.605,0.806 -1.491,0.064 -2.576,1.691c-0.354,0.53 0.307,1.754 -0.483,2.092c-3.317,1.422 -3.108,-0.206 -4.025,0.161c-0.726,0.29 -0.7,1.523 -1.127,2.094c-0.297,0.395 -0.865,0.782 -0.966,1.287c-0.083,0.413 0.413,0.903 0.322,1.449c-0.269,1.612 -0.957,5.312 -0.966,5.313c-0.436,0.088 -0.859,-1.45 -0.967,-1.77" style="fill:#2c4267;fill-rule:nonzero;"/><path id="Maryland" d="M505.876,164.73l0.021,-0.016c-0.007,0.006 -0.014,0.011 -0.021,0.016l-0.351,0.254c0.216,-0.123 0.821,-0.39 1.014,-0.067c0.268,0.447 -0.68,0.715 -0.844,0.912c-0.366,0.439 -0.428,1.228 -0.71,1.79c-0.937,1.874 -0.486,3.717 -0.878,5.675c-0.09,0.448 -0.364,1.619 -0.878,1.791c-0.413,0.138 -0.507,-1.963 -0.507,-2.196c0,-0.85 -0.155,-1.785 -0.034,-2.635c0.089,-0.622 1.271,-4.98 1.554,-5.168c0.439,-0.293 1.185,-0.043 1.634,-0.356Zm1.508,-5.758c0.859,1.032 -0.293,3.233 -1.149,3.918c-3.487,2.79 -3.447,0.148 -5.878,-1.588c-0.682,-0.487 -2.395,0.976 -3.715,-0.608c-1.435,-1.722 1.039,-2.312 1.182,-3.31c0.081,-0.572 -1.554,-0.812 -1.554,-1.487c0,-1.145 0.612,-1.864 0.237,-4.121c-0.117,-0.7 -1.318,-0.541 -1.217,-1.148c0.177,-1.064 1.435,-2.543 0.743,-3.581c-0.834,-1.251 -2.404,1.061 -2.871,1.621c-2.922,3.507 -0.161,3.059 -0.473,4.932c-0.19,1.137 -0.944,1.905 -0.811,3.108c0.141,1.267 4.223,6.953 3.176,7.128c-0.86,0.142 -2.023,-0.071 -2.804,-0.406c-1.337,-0.573 -3.937,-0.361 -4.864,-1.52c-1.355,-1.694 3.276,-5.861 0.54,-8.141c-0.997,-0.831 -1.568,1.147 -2.567,0.98c-3.046,-0.508 -1.965,-1.897 -2.736,-2.669c-0.141,-0.14 -5.288,-1.859 -6.486,-4.256c-0.264,-0.526 6.036,-1.736 6.418,-1.791c1.356,-0.193 2.763,-0.168 13.883,-1.992c0.481,0.359 0.427,1.49 0.642,1.992c0.663,1.548 1.745,3.008 1.96,4.73c0.179,1.435 0.689,6.521 1.418,7.398c1.57,1.883 4.864,1.146 6.858,0.811l0.068,0Zm-34.625,-10.304c-1.347,0.545 -2.799,0.49 -4.223,0.608c-0.161,0.014 -5.581,1.446 -5.608,1.487c-0.227,0.341 -0.009,3.817 0.44,3.817c0.278,0 4.288,-3.348 4.897,-3.783c0.527,-0.377 1,0.12 1.521,0.033c0.555,-0.092 1.049,-0.391 1.554,-0.608c0.655,-0.28 1.585,-0.52 1.689,-1.351l-0.27,-0.203Z" style="fill:#2c4267;fill-rule:nonzero;"/><path id="Delaware" d="M502.587,157.688c1.216,0.005 5.777,0.846 4.493,-1.723c-0.721,-1.442 -2.258,-2.115 -3.21,-3.446c-0.753,-1.054 -0.939,-2.434 -1.723,-3.479c-0.872,-1.164 -1.742,-1.742 -2.363,-3.142c-0.243,-0.543 -0.558,-1.092 -0.642,-1.689c0.039,-1.68 -0.186,-1.74 -0.339,-1.689c-0.852,0.285 -0.741,2.032 -0.472,2.635c1.497,3.37 2.965,7.167 3.378,10.877" style="fill:#2c4267;fill-rule:nonzero;"/><path id="New-Jersey" d="M501.595,141.789c-0.933,1.202 -0.369,2.902 0.772,3.717c1.046,0.748 2.994,2.011 4.249,2.221c0.383,0.063 0.898,-0.13 1.255,0.048c0.453,0.227 0.207,1.834 0.531,1.834c0.31,0 0.855,-1.768 0.917,-2.075c0.414,-2.068 4.335,-7.885 4.152,-8.98c-0.173,-1.035 -0.341,-1.99 -0.628,-2.993c-0.394,-1.378 0.188,-3.07 -0.096,-4.49c-0.162,-0.81 -3.218,0.738 -2.993,-1.062c0.099,-0.795 1.108,-1.467 1.352,-2.317c0.235,-0.824 0.663,-3.923 0,-4.586c-0.3,-0.301 -1.008,0 -1.352,0c-1.199,0 -5.66,-2.63 -6.421,-2.173c-0.616,0.37 -0.467,1.609 -0.579,2.173c-0.102,0.511 -0.93,0.635 -1.014,1.303c-0.17,1.361 0.307,2.324 -0.096,3.669c-0.109,0.361 -0.854,1.013 -0.628,1.352c0.507,0.76 1.217,0.686 1.738,1.206c1.026,1.026 1.832,2.219 2.848,3.235c0.439,0.439 1.466,0.203 1.593,0.966c0.065,0.392 -0.388,0.792 -0.628,1.062c-0.945,1.064 -2.102,1.91 -3.089,2.897c-0.812,0.811 -1.111,2.136 -1.835,3.041" style="fill:#2c4267;fill-rule:nonzero;"/><path id="Connecticut" d="M514.446,120.276c1.039,-1.457 -1.523,-10.472 -1.13,-11.127c0.356,-0.593 1.733,-0.549 2.334,-0.729c2.268,-0.68 4.416,-1.292 6.712,-1.751c0.352,-0.071 0.651,-0.396 0.986,-0.438c0.942,-0.118 2.06,0.3 2.881,0.182c0.31,-0.044 1.032,-0.336 1.35,-0.145c0.394,0.236 0.565,5.103 0.766,5.909c0.073,0.29 0.434,1.064 0.219,1.35c-0.346,0.461 -6.184,2.916 -7.077,3.064c-0.431,0.072 -0.916,-0.364 -1.24,-0.255c-0.152,0.05 -5.368,3.998 -5.509,4.195" style="fill:#2c4267;fill-rule:nonzero;"/><path id="Rhode-Island" d="M529.732,105.83c0.788,0.856 0.793,6.523 1.24,6.822c0.671,0.447 1.872,-1.532 2.116,-1.897c0.648,-0.973 1.622,-0.163 2.116,-0.657c0.312,-0.312 -1.963,-5.584 -3.794,-5.034c-0.552,0.165 -2.029,0.28 -1.715,0.984" style="fill:#2c4267;fill-rule:nonzero;"/><path id="Massachusetts" d="M513.652,106.837c3.776,0.147 15.326,-4.758 17.785,-4.406c0.534,0.076 1.022,0.428 1.532,0.531c1.404,0.281 1.909,3.775 3.157,4.844c0.553,0.474 0.995,1.386 1.031,1.314c0.091,-0.18 0,-0.942 0,-1.188c0,-1.632 1.863,-2.909 3.282,-1.845c0.386,0.289 0.321,1.132 0.844,0.782c0.576,-0.384 1.092,-0.905 1.72,-1.219c0.444,-0.223 1.694,-0.591 1.25,-0.813c-0.904,-0.452 -2.184,0.848 -3.501,-0.469c-1.265,-1.266 -1.849,-3.058 -3.407,-4.032c-1.063,-0.664 -2.381,0.636 -3.501,-1.157c-1.064,-1.702 1.663,-5.35 0.781,-5.938c-0.414,-0.276 -1.419,0.51 -1.719,0.75c-2.117,1.694 -4.007,2.072 -6.626,2.688c-2.452,0.576 -5.099,0.872 -7.471,1.719c-4.602,1.812 -5.535,-0.054 -5.535,1.453c0,1.153 -0.858,6.932 0.628,7.08" style="fill:#2c4267;fill-rule:nonzero;"/><path id="Alaska" d="M140.618,351.868c4.532,-5.791 -4.006,-6.15 -5.826,-8.577c-1.002,-1.336 -1.402,-3.083 -2.427,-4.449c-0.655,-0.874 -1.428,-1.616 -2.023,-2.508c-0.598,-0.898 -0.746,-2.156 -1.375,-2.994c-0.664,-0.884 -2.066,-1.013 -2.832,-1.78c-0.637,-0.637 -2.327,-3.313 -2.993,-3.479c-1.117,-0.279 -2.901,0.655 -3.318,1.699c-0.102,0.257 0.088,0.626 0,0.89c-0.195,0.585 -1.476,1.401 -2.022,1.537c-0.435,0.109 -0.73,-1.108 -0.891,-1.375c-0.747,-1.246 -2.022,-1.801 -2.912,-2.913c-0.581,-0.726 -0.701,-2.328 -1.456,-2.832c-0.851,-0.566 -3.146,1.389 -4.369,-0.243c-0.85,-1.133 -0.122,-2.67 -0.324,-3.883c-0.74,-4.444 0.081,-9.071 0.081,-13.592c0,-5.152 -1.383,-18.57 -0.566,-22.655c0.211,-1.057 0.811,-9.868 0.404,-10.275c-0.4,-0.4 -1.504,-0.841 -2.023,-0.971c-0.911,-0.228 -1.6,-0.905 -2.508,-1.133c-1.261,-0.315 -2.513,0.687 -3.64,0.405c-0.661,-0.165 -1.171,-0.727 -1.781,-0.971c-0.512,-0.205 -1.205,0.035 -1.699,-0.162c-1.001,-0.4 -1.633,-1.582 -2.751,-1.861c-1.623,-0.405 -3.561,-0.041 -5.097,-0.809c-1.432,-0.716 -0.688,-1.982 -1.537,-2.832c-0.769,-0.769 -2.239,0.707 -2.993,0.405c-0.693,-0.277 -0.547,-1.403 -0.891,-1.861c-0.234,-0.313 -3.286,-2.556 -3.479,-2.427c-0.288,0.192 -0.214,2.076 -1.942,2.508c-1.23,0.308 -2.395,-0.473 -3.64,-0.162c-0.665,0.167 -1.354,0.513 -2.023,0.648c-1.252,0.25 -2.287,0.008 -3.479,0.485c-1.412,0.565 -0.92,3.702 -4.207,5.016c-1.195,0.478 -5.617,-0.659 -6.392,0.89c-0.647,1.295 2.373,4.799 2.913,6.149c0.342,0.855 -0.083,2.019 0.323,2.832c0.337,0.673 1.409,0.876 1.862,1.78c0.266,0.533 0.264,1.229 0.485,1.78c0.187,0.469 1.202,2.335 0.647,2.751c-0.279,0.209 -4.702,-1.01 -4.855,-1.214c-0.588,-0.783 1.668,-2.86 0.162,-3.236c-0.939,-0.235 -2.55,0.137 -3.479,0.323c-0.517,0.104 -0.578,0.731 -1.051,0.81c-1.32,0.219 -4.51,-0.83 -5.583,0.243c-0.335,0.334 0.27,1.412 0.486,1.699c0.443,0.591 1.059,0.986 1.375,1.617c0.59,1.18 -0.535,2.504 -0.324,3.56c0.175,0.874 1.791,2.171 2.67,2.347c0.874,0.175 1.561,-0.497 2.427,-0.324c0.761,0.153 1.189,1.074 1.942,1.376c0.557,0.223 4.273,-1.52 4.855,-0.647c0.297,0.446 -0.381,2.125 -0.567,2.589c-0.213,0.534 -0.639,0.919 -0.728,1.537c-0.085,0.598 0.064,1.587 -0.324,2.103c-0.937,1.251 -2.473,-0.412 -3.478,-0.161c-1.257,0.314 -1.972,1.747 -3.075,2.023c-0.753,0.187 -0.673,-1.543 -1.456,-1.7c-2.527,-0.505 -3.903,2.366 -5.34,3.803c-1.382,1.382 -1.912,0.981 -3.075,3.075c-0.189,0.34 -0.647,0.708 -0.647,1.132c0,1.804 2.345,-0.173 2.589,1.538c0.223,1.563 -2.276,2.949 -1.376,4.449c0.783,1.304 1.715,4.046 3.398,4.046c1.092,0 3.104,-2.927 3.399,-0.567c0.252,2.019 -0.372,4.14 -0.648,6.068c-0.064,0.455 -0.488,0.666 -0.566,1.133c-0.052,0.313 0.043,0.56 0.324,0.729c1.332,0.798 3.22,-1.635 4.369,-0.486c0.43,0.431 -0.058,1.156 0.404,1.618c0.496,0.496 1.045,-0.43 1.295,-0.243c0.693,0.521 0.013,3.299 1.537,2.994c1.297,-0.26 0.22,-2.026 0.971,-2.589c0.016,-0.013 1.269,1.132 1.699,1.132c1.14,0 1.697,-1.397 1.78,-0.566c0.048,0.481 -0.076,1.011 -0.242,1.457c-0.416,1.106 -1.705,1.87 -2.104,2.669c-0.415,0.83 -0.764,2.383 -1.376,2.994c-0.309,0.309 -1.613,0.055 -1.699,0.485c-0.181,0.904 -0.332,1.985 -1.456,2.266c-1.13,0.282 -3.253,-0.11 -3.722,0.242c-0.968,0.726 -1.73,2.456 -2.912,2.751c-0.954,0.239 -2.283,-0.935 -3.723,-0.647c-1.413,0.283 -1.978,1.226 -3.155,1.618c-1.227,0.409 -2.922,0.838 -4.207,1.052c-1.073,0.179 -2.391,-0.908 -3.398,-0.404c-0.611,0.305 -1.609,2.831 -0.486,2.831c0.306,0 0.758,-0.503 1.133,-0.566c0.867,-0.144 1.994,0.513 2.751,0.324c0.802,-0.201 1.488,-1.08 2.023,-1.214c1.373,-0.343 2.559,0.675 3.964,0.323c0.86,-0.214 0.987,-1.459 1.78,-1.617c0.951,-0.191 1.05,1.521 2.184,1.294c2.266,-0.454 4.478,-1.463 6.716,-2.023c0.561,-0.14 1.057,0.355 1.618,0.243c1.113,-0.223 0.211,-2.258 1.214,-2.508c1.75,-0.438 3.665,-0.986 5.259,-1.942c1.075,-0.646 2.615,-0.82 3.802,-1.295c1.968,-0.786 3.537,-2.328 5.178,-3.559c3.432,-2.574 -0.951,-1.818 0.162,-4.046c1.503,-3.006 3.095,-1.637 4.127,-2.67c1.855,-1.855 1.153,-4.015 4.774,-5.825c0.384,-0.193 0.643,-0.646 1.051,-0.809c0.793,-0.317 4.025,-0.606 3.074,1.294c-0.551,1.104 -2.346,-0.08 -2.993,0.405c-0.408,0.306 -1.02,0.535 -1.375,0.89c-0.302,0.301 -1.851,3.835 -1.942,4.288c-0.119,0.59 0.538,1.098 0.323,1.456c-0.182,0.305 -1.279,0.937 -1.132,1.376c0.435,1.305 3.579,-0.558 4.207,-0.809c1.193,-0.477 2.816,-2.047 4.207,-1.699c1.29,0.322 2.349,1.342 3.802,1.051c0.433,-0.086 1.711,-1.179 1.538,-1.698c-0.163,-0.49 -1.382,0.444 -1.618,0.404c-0.726,-0.121 -1.065,-1.943 -0.971,-2.508c0.313,-1.874 2.551,-2.437 4.207,-2.023c1.317,0.329 0.733,1.546 1.214,2.347c0.056,0.094 1.509,0.976 1.699,1.051c0.192,0.077 0.381,-0.173 0.566,-0.081c0.223,0.112 0.427,0.75 0.647,0.972c0.535,0.534 2.27,1.275 2.994,1.455c1.804,0.452 5.171,-0.102 6.23,0.162c0.408,0.102 0.676,1.382 1.861,1.619c1.109,0.221 1.925,-0.68 3.479,-0.162c0.561,0.187 -0.978,1.331 -0.081,1.78c1.977,0.989 3.619,2.324 5.178,3.883c0.768,0.769 1.739,1.346 2.913,1.052c0.126,-0.031 1.456,-0.427 1.456,-0.243c0,0.916 -1.464,1.42 -1.213,2.67c0.258,1.29 1.537,1.458 1.779,2.185c0.175,0.524 -0.175,1.341 0,1.78c0.372,0.927 2.646,2.969 3.48,3.802c0.301,0.302 0.301,1.053 0.728,1.053c0.076,0 -0.506,-3.547 0.081,-3.156c0.571,0.381 0.678,4.038 1.294,3.884c0.9,-0.225 0.662,-2.501 0.971,-2.347c0.225,0.113 0.302,1.553 0.404,1.861c0.569,1.705 0.793,1.504 1.295,2.508c0.749,1.498 -0.951,1.233 1.942,4.126c0.117,0.118 1.513,1.041 1.618,0.972c0.271,-0.181 0.023,-0.924 -0.081,-1.134c-0.071,-0.14 -0.383,-0.333 -0.242,-0.404c0.513,-0.256 1.233,1.892 2.103,1.457c0.633,-0.317 -0.244,-1.541 -0.405,-1.861c-0.309,-0.618 -2.291,-3.789 -0.081,-3.236c1.347,0.336 2.298,4.797 4.289,3.802c0.538,-0.269 -0.05,-0.817 0.566,-0.971l0.323,0.081Zm-110.717,-6.68c-3.163,-4.299 -2.353,-0.915 -4.324,0.267c-1.087,0.653 -1.701,-1.021 -2.617,-1.174c-1.169,-0.195 -2.603,0.535 -3.47,1.228c-0.367,0.294 -0.966,0.78 -0.855,1.335c0.058,0.291 2.349,-0.321 2.67,-0.321c1.852,0 3.171,0.56 4.912,0.908c1.194,0.239 3.474,-1.184 3.898,-2.243l-0.214,0Zm45.454,-12.96c-0.538,1.197 -6.864,4.373 -7.043,4.642c-0.705,1.056 -0.618,3.2 0.315,4.132c0.567,0.568 6.244,-2.621 6.846,-3.423c0.833,-1.111 -3.277,-2.183 -1.968,-2.558c1.35,-0.386 4.44,-0.989 1.968,-2.637l-0.118,-0.156Zm-36.11,-19.77c0.808,-0.134 1.461,-0.186 2.243,0.108c0.428,0.16 0.939,0.082 1.334,0.32c1.535,0.92 -1.789,4.538 -3.256,1.601c-0.325,-0.649 -0.841,-1.261 -0.642,-2.029l0.321,0Zm-13.475,-8.835c-0.743,2.43 4.235,3.909 0.366,0.04l-0.366,-0.04Zm10.966,-13.59c0.375,-0.075 3.224,1.855 3.577,2.296c0.079,0.099 0.785,3.219 0.747,3.257c-1.407,1.407 -2.658,-2.746 -2.829,-2.883c-0.77,-0.616 -3.791,-0.823 -1.656,-2.67l0.161,0Z" style="fill:#2c4267;fill-rule:nonzero;"/><path id="Hawaii" d="M206.816,333.501c-0.608,-0.174 -0.93,0.166 -1.186,0.677c-0.512,1.025 1.22,1.168 1.073,2.201c-0.197,1.376 -5.332,2.596 -2.54,4.458c3.114,2.076 0.174,7.767 2.653,9.254c2.681,1.609 2.581,-1.721 4.232,-2.822c0.746,-0.497 1.669,-1.607 2.652,-1.467c0.643,0.092 2.851,0.942 3.386,0.621c0.28,-0.168 0.532,-1.116 0.79,-1.41c0.438,-0.501 1.202,-1.019 1.467,-1.637c0.193,-0.45 -1.458,-1.519 -1.919,-1.75c-1.359,-0.679 -1.402,-2.869 -2.426,-3.893c-0.976,-0.976 -2.555,-1.006 -3.555,-1.806c-0.537,-0.429 -3.024,-2.044 -3.555,-2.257c-0.332,-0.133 -0.717,-0.113 -1.072,-0.113l0,-0.056Zm-10.158,-9.875c-1.881,0.963 -0.58,1.659 0.452,2.821c0.84,0.945 1.054,2.36 2.2,3.047c1.769,1.061 5.643,0.226 5.643,-2.144c0,-0.127 -0.353,-0.657 -0.507,-0.734c-0.258,-0.128 -0.71,0.002 -1.016,-0.113c-2.045,-0.766 -4.78,-1.454 -6.49,-2.821l-0.282,-0.056Zm-4.74,2.595c0.177,0.326 0.274,0.69 0.452,1.016c0.415,0.762 2.708,0.789 2.708,-0.282c0,-0.954 -2.934,-2.654 -2.934,-0.621l-0.226,-0.113Zm3.442,-3.724c-0.032,1.633 -7.485,1.099 -6.489,-0.395c0.75,-1.125 3.518,-0.282 4.571,-0.282c1.02,0 2.427,0.222 2.427,0.225c-0.039,0.114 -0.256,0.213 -0.339,0.282l-0.17,0.17Zm-15.461,-7.449c0.875,0.876 1.258,2.024 2.031,2.991c0.389,0.486 0.838,0.927 1.242,1.411c0.163,0.196 1.05,0.103 1.128,0.338c0.248,0.743 -1.796,0.96 -2.201,0.96c-0.802,0 -1.453,-0.571 -2.2,-0.677c-0.473,-0.068 -0.959,0.474 -1.411,0.112c-0.49,-0.392 -0.671,-1.231 -1.016,-1.749c-1.668,-2.502 0.082,-2.313 2.257,-3.386l0.17,0Zm-27.425,-2.596c-0.339,0.457 -0.189,0.455 0.225,0.621c0.193,0.077 1.245,0.407 1.411,0.282c0.341,-0.256 1.101,-2.257 0.17,-2.257c-0.543,0 -1.383,0.897 -1.863,1.185l0.057,0.169Zm6.828,-3.273c-0.696,0.374 -0.416,0.88 -0.508,1.524c-0.199,1.389 0.802,1.25 1.862,1.637c0.818,0.297 1.394,1.13 2.314,0.394c0.634,-0.507 1.629,-4.485 0.112,-4.232c-1.15,0.192 -2.404,0.734 -3.555,0.734l-0.225,-0.057Z" style="fill:#2c4267;fill-rule:nonzero;"/></svg>